<svg width="16" height="16" viewBox="0 0 16 16" fill="none" xmlns="http://www.w3.org/2000/svg">
<path d="M9.17777 1.3999H5.44116C4.09364 1.3999 3 2.49354 3 3.84106V11.9587C3 13.3063 4.09364 14.3999 5.44116 14.3999H10.4927C11.8403 14.3999 12.9339 13.3063 12.9339 11.9587V5.15604L9.17777 1.3999ZM9.40561 2.83205L11.5018 4.92819H9.40561V2.83205ZM10.4927 13.5471H5.44116C4.56234 13.5471 3.84627 12.831 3.84627 11.9522V3.84106C3.84627 2.96225 4.56234 2.24617 5.44116 2.24617H8.59189V5.3318C8.59189 5.44247 8.63746 5.54662 8.70906 5.61823C8.78067 5.68984 8.88483 5.73541 8.99549 5.73541H12.0811V11.9522C12.0876 12.831 11.3716 13.5471 10.4927 13.5471Z" fill="white"/>
</svg>
