<svg width="14" height="14" viewBox="0 0 14 14" fill="none" xmlns="http://www.w3.org/2000/svg">
<path d="M13.2123 1.07296C13.0662 0.930192 12.9932 0.858807 12.8471 0.716037C11.8244 -0.21197 10.2174 -0.140602 9.26773 0.787405L1.88984 8.0687L0.428875 12.4946C0.282778 12.9229 0.721068 13.4226 1.23241 13.2798L5.76141 11.9235L13.1393 4.71359C14.162 3.64281 14.162 2.07236 13.2123 1.07296ZM1.96289 10.8527L2.54728 8.9967C3.56996 9.42501 4.37349 10.2102 4.81178 11.1383L2.83947 11.7094L1.96289 10.8527ZM12.2627 1.42989C12.3358 1.50127 12.4819 1.64406 12.5549 1.71545C13.1393 2.35791 13.1393 3.35729 12.4819 3.92837L12.1897 4.21393L9.70602 1.78681L9.99822 1.50126C10.5826 0.85879 11.6053 0.858807 12.2627 1.42989Z" fill="white"/>
</svg>
