<svg width="15" height="14" viewBox="0 0 15 14" fill="none" xmlns="http://www.w3.org/2000/svg">
<path d="M5.50361 5.83824C5.86535 6.49911 6.31752 7.11128 6.85318 7.64694C7.38883 8.18259 8.001 8.63476 8.66187 8.9965C8.001 9.35824 7.38883 9.81041 6.85318 10.3461C6.31752 10.8817 5.86535 11.4939 5.50361 12.1548C5.14187 11.4939 4.6897 10.8817 4.15404 10.3461C3.61839 9.81041 3.00622 9.35824 2.34535 8.9965C3.00622 8.63476 3.61839 8.18259 4.15404 7.64694C4.6897 7.11128 5.14883 6.49911 5.50361 5.83824ZM5.50361 4.04346C5.37144 4.04346 5.24622 4.11998 5.19752 4.26607C4.87057 5.2678 4.31404 6.21389 3.51405 7.00694C2.721 7.80694 1.77491 8.36346 0.773176 8.69041C0.474046 8.7878 0.474046 9.2052 0.773176 9.30259C1.77491 9.62954 2.721 10.1861 3.51405 10.9861C4.31404 11.7861 4.87057 12.7252 5.19752 13.7269C5.24622 13.873 5.37144 13.9495 5.50361 13.9495C5.51057 13.9495 5.52448 13.9495 5.53144 13.9495C5.6497 13.9426 5.761 13.8661 5.8097 13.7269C6.13665 12.7252 6.69318 11.7791 7.49318 10.9861C8.28622 10.193 9.23231 9.62954 10.234 9.30259C10.5332 9.2052 10.5332 8.7878 10.234 8.69041C9.23231 8.36346 8.28622 7.80694 7.49318 7.00694C6.69318 6.21389 6.13665 5.2678 5.8097 4.26607C5.76796 4.12694 5.6497 4.05737 5.53144 4.04346C5.52448 4.04346 5.51057 4.04346 5.50361 4.04346Z" fill="white"/>
<path d="M11.5207 1.81042C11.6807 2.03302 11.8616 2.24868 12.0564 2.44346C12.2511 2.63824 12.4668 2.81911 12.6894 2.97911C12.4668 3.13911 12.2511 3.31998 12.0564 3.51476C11.8616 3.70955 11.6807 3.9252 11.5207 4.14781C11.3607 3.9252 11.1798 3.70955 10.9851 3.51476C10.7903 3.31998 10.5746 3.13911 10.352 2.97911C10.5746 2.81911 10.7903 2.63824 10.9851 2.44346C11.1798 2.24868 11.3607 2.03998 11.5207 1.81042ZM11.5207 0.050415C11.4442 0.050415 11.3677 0.0921542 11.3398 0.182589C11.1451 0.773893 10.8181 1.33042 10.3451 1.80346C9.87201 2.2765 9.31549 2.60346 8.72418 2.79824C8.55027 2.85389 8.55027 3.10433 8.72418 3.15998C9.31549 3.35476 9.87201 3.68172 10.3451 4.15476C10.8181 4.62781 11.1451 5.18433 11.3398 5.77563C11.3677 5.86607 11.4442 5.90781 11.5207 5.90781C11.5972 5.90781 11.6738 5.86607 11.7016 5.77563C11.8964 5.18433 12.2233 4.62781 12.6964 4.15476C13.1694 3.68172 13.7259 3.35476 14.3172 3.15998C14.4911 3.10433 14.4911 2.85389 14.3172 2.79824C13.7259 2.60346 13.1694 2.2765 12.6964 1.80346C12.2233 1.33042 11.8964 0.773893 11.7016 0.182589C11.6668 0.0991107 11.5972 0.050415 11.5207 0.050415Z" fill="white"/>
</svg>
