<svg width="16" height="16" viewBox="0 0 16 16" fill="none" xmlns="http://www.w3.org/2000/svg">
<path d="M15.0713 8.12503L13.6906 6.93751L7.9793 2L0.950047 8.12503C0.761764 8.25003 0.761764 8.5 0.887286 8.6875C0.950047 8.75 1.07557 8.81251 1.20109 8.81251C1.26385 8.81251 1.38938 8.75 1.45214 8.6875L2.26803 7.9375V14H6.91236V10.5625C6.91236 10 7.35169 9.56252 7.91654 9.56252C8.48139 9.56252 8.92072 10 8.92072 10.5625V14H13.565V7.9375L14.3809 8.6875C14.5692 8.8125 14.8203 8.81252 14.9458 8.62502C15.2596 8.50002 15.2596 8.25003 15.0713 8.12503Z" fill="white"/>
</svg>
