<svg width="16" height="16" viewBox="0 0 16 16" fill="none" xmlns="http://www.w3.org/2000/svg">
<g opacity="0.2">
<mask id="mask0_5054_9751" style="mask-type:luminance" maskUnits="userSpaceOnUse" x="0" y="0" width="16" height="16">
<path d="M0 16L16 16L16 0L0 0L0 16Z" fill="white"/>
</mask>
<g mask="url(#mask0_5054_9751)">
<path d="M4.79971 12.8001C5.68336 12.8001 6.39971 12.0838 6.39971 11.2001C6.39971 10.3164 5.68336 9.6001 4.79971 9.6001C3.91605 9.6001 3.19971 10.3164 3.19971 11.2001C3.19971 12.0838 3.91605 12.8001 4.79971 12.8001Z" fill="white"/>
<path d="M4.79971 6.39995C5.68336 6.39995 6.39971 5.68361 6.39971 4.79995C6.39971 3.9163 5.68336 3.19995 4.79971 3.19995C3.91605 3.19995 3.19971 3.9163 3.19971 4.79995C3.19971 5.68361 3.91605 6.39995 4.79971 6.39995Z" fill="white"/>
<path d="M11.1996 12.8001C12.0833 12.8001 12.7996 12.0838 12.7996 11.2001C12.7996 10.3164 12.0833 9.6001 11.1996 9.6001C10.316 9.6001 9.59961 10.3164 9.59961 11.2001C9.59961 12.0838 10.316 12.8001 11.1996 12.8001Z" fill="white"/>
<path d="M11.1996 6.39995C12.0833 6.39995 12.7996 5.68361 12.7996 4.79995C12.7996 3.9163 12.0833 3.19995 11.1996 3.19995C10.316 3.19995 9.59961 3.9163 9.59961 4.79995C9.59961 5.68361 10.316 6.39995 11.1996 6.39995Z" fill="white"/>
</g>
</g>
</svg>
