<svg width="9" height="9" viewBox="0 0 9 9" fill="none" xmlns="http://www.w3.org/2000/svg">
<path d="M8.7521 1.32996C8.66986 1.13362 8.51376 0.977482 8.31746 0.895232C8.22146 0.840888 8.1147 0.80831 8.00473 0.799805H4.24136C4.03049 0.799805 3.82826 0.883587 3.67915 1.03272C3.53005 1.18185 3.44628 1.38412 3.44628 1.59503C3.44628 1.80594 3.53005 2.00821 3.67915 2.15734C3.82826 2.30648 4.03049 2.39026 4.24136 2.39026H6.10184L1.03454 7.4426C0.960183 7.51607 0.901144 7.60357 0.860849 7.70004C0.820554 7.7965 0.799805 7.90001 0.799805 8.00456C0.799805 8.1091 0.820554 8.21261 0.860849 8.30907C0.901144 8.40554 0.960183 8.49304 1.03454 8.56652C1.10777 8.6411 1.19525 8.70018 1.29177 8.74026C1.38829 8.78033 1.49189 8.80058 1.5964 8.79978C1.70091 8.80058 1.8045 8.78033 1.90103 8.74026C1.99755 8.70018 2.08503 8.6411 2.15825 8.56652L7.20965 3.51418V5.3591C7.20965 5.57001 7.29342 5.77228 7.44252 5.92141C7.59163 6.07055 7.79386 6.15433 8.00473 6.15433C8.21559 6.15433 8.41783 6.07055 8.56693 5.92141C8.71604 5.77228 8.7998 5.57001 8.7998 5.3591V1.59503C8.79743 1.50476 8.78134 1.41538 8.7521 1.32996Z" fill="white"/>
</svg>
