<svg width="16" height="16" viewBox="0 0 16 16" fill="none" xmlns="http://www.w3.org/2000/svg">
<g clip-path="url(#clip0_6819_8318)">
<path d="M8 15.9968C5.87899 15.9945 3.84553 15.1509 2.34574 13.6511C0.845963 12.1513 0.00235276 10.1178 0 7.99683C0.00235276 5.87582 0.845963 3.84231 2.34574 2.34253C3.84553 0.842748 5.87899 -0.00082107 8 -0.00317383C10.121 -0.00082107 12.1545 0.842748 13.6543 2.34253C15.154 3.84231 15.9976 5.87582 16 7.99683C15.9976 10.1178 15.154 12.1513 13.6543 13.6511C12.1545 15.1509 10.121 15.9945 8 15.9968ZM8 1.7746C6.35027 1.77625 4.76859 2.43229 3.60205 3.59882C2.43551 4.76536 1.77943 6.3471 1.77778 7.99683C1.77966 9.64648 2.43582 11.228 3.60231 12.3945C4.76879 13.561 6.35034 14.2172 8 14.219C9.64966 14.2172 11.2312 13.561 12.3977 12.3945C13.5642 11.228 14.2203 9.64648 14.2222 7.99683C14.2203 6.34717 13.5642 4.76563 12.3977 3.59915C11.2312 2.43266 9.64966 1.77649 8 1.7746Z" fill="white" fill-opacity="0.1"/>
<path d="M14.2215 7.99769C14.2196 6.34804 13.5635 4.7665 12.397 3.60002C11.2305 2.43353 9.64894 1.77735 7.99928 1.77547V1.75062C7.7959 1.72622 7.60838 1.62852 7.47177 1.47588C7.33517 1.32325 7.25883 1.12603 7.25705 0.921197C7.25402 0.704854 7.32647 0.494316 7.46192 0.325602C7.59738 0.156888 7.78739 0.040615 7.99928 -0.00317383C10.1203 -0.00082107 12.1538 0.842748 13.6535 2.34253C15.1533 3.84231 15.9969 5.87582 15.9993 7.99683H15.9868C15.9775 8.21997 15.883 8.43108 15.7228 8.58667C15.5626 8.74226 15.3488 8.83044 15.1255 8.8332H15.0899C14.8672 8.82685 14.6548 8.7378 14.4943 8.58331C14.3337 8.42881 14.2364 8.22002 14.2215 7.99769Z" fill="white"/>
</g>
<defs>
<clipPath id="clip0_6819_8318">
<rect width="16" height="16" fill="white" transform="translate(0 -0.00317383)"/>
</clipPath>
</defs>
</svg>
