<svg width="20" height="20" viewBox="0 0 20 20" fill="none" xmlns="http://www.w3.org/2000/svg">
<path fill-rule="evenodd" clip-rule="evenodd" d="M7.74407 1.07733C7.90036 0.921052 8.11232 0.833252 8.33333 0.833252H15C16.3808 0.833252 17.5 1.95254 17.5 3.33325V6.66659C17.5 7.12682 17.1269 7.49992 16.6667 7.49992C16.2064 7.49992 15.8333 7.12682 15.8333 6.66659V3.33325C15.8333 2.87302 15.4603 2.49992 15 2.49992H9.16667V6.66659C9.16667 7.12682 8.79358 7.49992 8.33333 7.49992H4.16667V16.6666C4.16667 17.1268 4.53977 17.4999 5 17.4999H8.33333C8.79358 17.4999 9.16667 17.873 9.16667 18.3333C9.16667 18.7935 8.79358 19.1666 8.33333 19.1666H5C3.61929 19.1666 2.5 18.0473 2.5 16.6666V6.66659C2.5 6.44557 2.5878 6.23361 2.74408 6.07733L7.74407 1.07733ZM5.34518 5.83325H7.5V3.67843L5.34518 5.83325ZM16.8097 15.6311C17.2459 14.9724 17.5 14.1825 17.5 13.3333C17.5 11.0321 15.6345 9.16659 13.3333 9.16659C11.0322 9.16659 9.16667 11.0321 9.16667 13.3333C9.16667 15.6344 11.0322 17.4999 13.3333 17.4999C14.1826 17.4999 14.9725 17.2458 15.6312 16.8096L17.7441 18.9225C18.0695 19.2479 18.5972 19.2479 18.9226 18.9225C19.248 18.5971 19.248 18.0694 18.9226 17.744L16.8097 15.6311ZM10.8333 13.3333C10.8333 11.9525 11.9526 10.8333 13.3333 10.8333C14.7141 10.8333 15.8333 11.9525 15.8333 13.3333C15.8333 14.714 14.7141 15.8333 13.3333 15.8333C11.9526 15.8333 10.8333 14.714 10.8333 13.3333Z" fill="white" fill-opacity="0.3"/>
</svg>
