<svg width="14" height="14" viewBox="0 0 14 14" fill="none" xmlns="http://www.w3.org/2000/svg">
<path d="M12.1959 6.9279C12.1959 6.78357 12.1959 6.63917 12.1959 6.49484L14 5.12378L13.0618 3.46395L12.1237 1.80412L10.0309 2.67015C9.81444 2.52582 9.52577 2.30935 9.23711 2.23718L8.94846 0H7H5.12371L4.83505 2.23718C4.54639 2.38151 4.3299 2.52582 4.04124 2.67015L1.94846 1.80412L1.01033 3.46395L0.0721693 5.12378L1.80412 6.49484C1.80412 6.63917 1.80412 6.85571 1.80412 7.00004C1.80412 7.14437 1.80412 7.28869 1.80412 7.43302L0 8.80417L0.938156 10.4639L1.87629 12.1237L3.96907 11.2578C4.25773 11.4743 4.54639 11.6186 4.83505 11.7629L5.12371 14H7H8.87629L9.16495 11.7629C9.4536 11.6186 9.6701 11.4743 9.95876 11.3299L11.9794 12.1959L12.9175 10.5361L13.8557 8.87631L12.1237 7.50516C12.1959 7.28867 12.1959 7.14439 12.1959 6.9279ZM9.23711 6.9279C9.23711 8.1547 8.2268 9.23714 6.92783 9.23714C5.70103 9.23714 4.61857 8.22686 4.61857 6.9279C4.61857 5.62893 5.62886 4.61857 6.92783 4.61857C8.2268 4.69073 9.23711 5.70109 9.23711 6.9279Z" fill="white"/>
</svg>
