<svg width="14" height="14" viewBox="0 0 14 14" fill="none" xmlns="http://www.w3.org/2000/svg">
<path d="M6.99961 0.600098C5.73381 0.600098 4.49644 0.975451 3.44396 1.67869C2.39149 2.38193 1.57118 3.38148 1.08678 4.55092C0.602382 5.72037 0.475641 7.00719 0.722586 8.24867C0.969532 9.49015 1.57907 10.6305 2.47413 11.5256C3.36918 12.4206 4.50955 13.0302 5.75103 13.2771C6.99251 13.5241 8.27934 13.3973 9.44878 12.9129C10.6182 12.4285 11.6178 11.6082 12.321 10.5557C13.0243 9.50327 13.3996 8.2659 13.3996 7.0001C13.3996 5.30271 12.7253 3.67485 11.5251 2.47461C10.3249 1.27438 8.69699 0.600098 6.99961 0.600098ZM9.37546 8.7864C9.45158 8.86552 9.49409 8.97104 9.49409 9.08082C9.49409 9.19061 9.45158 9.29612 9.37546 9.37524C9.33678 9.41387 9.29088 9.4445 9.24036 9.46539C9.18984 9.48628 9.13571 9.49701 9.08104 9.49696C9.02622 9.4981 8.97176 9.48788 8.92109 9.46693C8.87042 9.44598 8.82464 9.41476 8.78663 9.37524L6.99961 7.59246L5.21401 9.37524C5.176 9.41476 5.13022 9.44598 5.07955 9.46693C5.02887 9.48788 4.97441 9.4981 4.91959 9.49696C4.86493 9.49701 4.81079 9.48628 4.76028 9.46539C4.70976 9.4445 4.66385 9.41387 4.62518 9.37524C4.54906 9.29612 4.50654 9.19061 4.50654 9.08082C4.50654 8.97104 4.54906 8.86552 4.62518 8.7864L6.41078 7.0008L4.62518 5.22086C4.54906 5.14175 4.50654 5.03623 4.50654 4.92645C4.50654 4.81666 4.54906 4.71115 4.62518 4.63203C4.66338 4.59257 4.70914 4.56118 4.75971 4.53975C4.81029 4.51832 4.86466 4.50728 4.91959 4.50728C4.97452 4.50728 5.02889 4.51832 5.07947 4.53975C5.13005 4.56118 5.1758 4.59257 5.21401 4.63203L6.99961 6.41126L8.78521 4.63203C8.82342 4.59257 8.86917 4.56118 8.91975 4.53975C8.97033 4.51832 9.0247 4.50728 9.07963 4.50728C9.13456 4.50728 9.18893 4.51832 9.23951 4.53975C9.29008 4.56118 9.33584 4.59257 9.37404 4.63203C9.45016 4.71115 9.49268 4.81666 9.49268 4.92645C9.49268 5.03623 9.45016 5.14175 9.37404 5.22086L7.58844 7.0001L9.37546 8.7864Z" fill="white"/>
</svg>
