<svg width="14" height="14" viewBox="0 0 14 14" fill="none" xmlns="http://www.w3.org/2000/svg">
<path d="M6.99961 0.599609C5.73381 0.599609 4.49644 0.974963 3.44396 1.6782C2.39149 2.38144 1.57118 3.38099 1.08678 4.55043C0.602382 5.71988 0.475641 7.00671 0.722586 8.24818C0.969532 9.48966 1.57907 10.63 2.47413 11.5251C3.36918 12.4201 4.50955 13.0297 5.75103 13.2766C6.99251 13.5236 8.27934 13.3968 9.44878 12.9124C10.6182 12.428 11.6178 11.6077 12.321 10.5553C13.0243 9.50278 13.3996 8.26541 13.3996 6.99961C13.3996 5.30222 12.7253 3.67436 11.5251 2.47413C10.3249 1.27389 8.69699 0.599609 6.99961 0.599609ZM9.37546 8.78592C9.45158 8.86503 9.49409 8.97055 9.49409 9.08033C9.49409 9.19012 9.45158 9.29564 9.37546 9.37475C9.33678 9.41338 9.29088 9.44402 9.24036 9.4649C9.18984 9.48579 9.13571 9.49652 9.08104 9.49648C9.02622 9.49762 8.97176 9.48739 8.92109 9.46644C8.87042 9.44549 8.82464 9.41427 8.78663 9.37475L6.99961 7.59198L5.21401 9.37475C5.176 9.41427 5.13022 9.44549 5.07955 9.46644C5.02887 9.48739 4.97441 9.49762 4.91959 9.49648C4.86493 9.49652 4.81079 9.48579 4.76028 9.4649C4.70976 9.44402 4.66385 9.41338 4.62518 9.37475C4.54906 9.29564 4.50654 9.19012 4.50654 9.08033C4.50654 8.97055 4.54906 8.86503 4.62518 8.78592L6.41078 7.00032L4.62518 5.22038C4.54906 5.14126 4.50654 5.03574 4.50654 4.92596C4.50654 4.81618 4.54906 4.71066 4.62518 4.63154C4.66338 4.59208 4.70914 4.5607 4.75971 4.53926C4.81029 4.51783 4.86466 4.50679 4.91959 4.50679C4.97452 4.50679 5.02889 4.51783 5.07947 4.53926C5.13005 4.5607 5.1758 4.59208 5.21401 4.63154L6.99961 6.41078L8.78521 4.63154C8.82342 4.59208 8.86917 4.5607 8.91975 4.53926C8.97033 4.51783 9.0247 4.50679 9.07963 4.50679C9.13456 4.50679 9.18893 4.51783 9.23951 4.53926C9.29008 4.5607 9.33584 4.59208 9.37404 4.63154C9.45016 4.71066 9.49268 4.81618 9.49268 4.92596C9.49268 5.03574 9.45016 5.14126 9.37404 5.22038L7.58844 6.99961L9.37546 8.78592Z" fill="white" fill-opacity="0.2"/>
</svg>
