<svg width="14" height="4" viewBox="0 0 14 4" fill="none" xmlns="http://www.w3.org/2000/svg">
<path d="M2.2002 3.5C1.37177 3.5 0.700195 2.82843 0.700195 2C0.700195 1.17157 1.37177 0.5 2.2002 0.5C3.02862 0.5 3.7002 1.17157 3.7002 2C3.7002 2.82843 3.02862 3.5 2.2002 3.5Z" fill="white"/>
<path d="M7.2002 3.5C6.37177 3.5 5.7002 2.82843 5.7002 2C5.7002 1.17157 6.37177 0.5 7.2002 0.5C8.02862 0.5 8.7002 1.17157 8.7002 2C8.7002 2.82843 8.02862 3.5 7.2002 3.5Z" fill="white"/>
<path d="M12.2002 3.5C11.3718 3.5 10.7002 2.82843 10.7002 2C10.7002 1.17157 11.3718 0.5 12.2002 0.5C13.0286 0.5 13.7002 1.17157 13.7002 2C13.7002 2.82843 13.0286 3.5 12.2002 3.5Z" fill="white"/>
</svg>
