<svg xmlns="http://www.w3.org/2000/svg" xmlns:xlink="http://www.w3.org/1999/xlink" width="500" height="320" viewBox="0 0 500 320">
  <defs>
    <clipPath id="clip-path">
      <rect id="Rectangle_52494" data-name="Rectangle 52494" width="500" height="320" rx="12" transform="translate(390 146)" fill="#2a2f30"/>
    </clipPath>
  </defs>
  <g id="Mask_Group_95575" data-name="Mask Group 95575" transform="translate(-390 -146)" clip-path="url(#clip-path)">
    <g id="Group_106231" data-name="Group 106231" transform="translate(702.858 146)">
      <path id="Path_171733" data-name="Path 171733" d="M311.507,420.116a1.535,1.535,0,0,1-.383-.38,1.58,1.58,0,0,1,.3-2.118c6.8-5.345,11.7-5.861,14.982-4.889,4.152-7.914,13.011-10.266,13.471-10.386a1.3,1.3,0,0,1,.291-.038h1.925l.071-.119c3.753-6.345,8.359-9.892,13.7-10.549,9.437-1.168,17.541,7.2,17.872,7.551a1.591,1.591,0,0,1,.02,2.151,1.37,1.37,0,0,1-2.022.022h0c-.071-.076-7.5-7.708-15.569-6.7-4.085.511-7.7,3.15-10.79,7.86,4.463.511,7.66,1.977,9.5,4.389,1.726,2.249,2.242,5.264,1.481,8.691a6.2,6.2,0,0,1-6.3,5.063c-4.2-.244-7.328-3.1-9.033-8.267a12.305,12.305,0,0,1-.194-7.062H340.4c-1.021.3-7.941,2.531-11.357,8.653a10.725,10.725,0,0,1,4.54,8.985c-.1,1.765-.843,3.064-2.043,3.563a4.449,4.449,0,0,1-5.408-1.412,7.8,7.8,0,0,1-1.7-6.046,18.714,18.714,0,0,1,.771-3.52c-2.625-.587-6.521.13-12.107,4.525A1.364,1.364,0,0,1,311.507,420.116Zm16.341-3.346a15.294,15.294,0,0,0-.572,2.678,4.67,4.67,0,0,0,.981,3.607,1.738,1.738,0,0,0,2.257.635c.4-.337.511-3.015-1.231-5.432a7.058,7.058,0,0,0-1.43-1.488Zm15.968-11.407a9.148,9.148,0,0,0-.1,5.975c1.312,3.971,3.5,6.073,6.506,6.247a3.323,3.323,0,0,0,3.36-2.716c.562-2.526.255-4.579-.914-6.1-1.5-1.95-4.524-3.113-8.844-3.406Z" transform="translate(-187.021 -339.193)" fill="#22b339"/>
      <path id="Path_171734" data-name="Path 171734" d="M631.663,60.44S630.8,71.23,620.24,70.914c0,0,9.138,3.244,7.071,14.448,0,0,5.266-11.981,11.7-11.361C639.037,74,630.789,69.468,631.663,60.44Z" transform="translate(-554.099 -48.11)" fill="#fd3c31"/>
      <path id="Path_171735" data-name="Path 171735" d="M653.15,248.869l5.03,3.1s3.365-9.4,12.833-11.065l-1.43-6.176A21.852,21.852,0,0,0,653.15,248.869Z" transform="translate(-477.717 -135.245)" fill="#2160b5"/>
      <path id="Path_171736" data-name="Path 171736" d="M3.85,0A3.979,3.979,0,0,1,7.7,4.1a3.979,3.979,0,0,1-3.85,4.1A3.979,3.979,0,0,1,0,4.1,3.979,3.979,0,0,1,3.85,0Z" transform="translate(119.975 40.331)" fill="#f8c332"/>
      <path id="Path_171737" data-name="Path 171737" d="M3.85,0A3.979,3.979,0,0,1,7.7,4.1a3.979,3.979,0,0,1-3.85,4.1A3.979,3.979,0,0,1,0,4.1,3.979,3.979,0,0,1,3.85,0Z" transform="translate(0 0)" fill="#22b339"/>
    </g>
  </g>
</svg>
