<svg id="logoipsum-362" xmlns="http://www.w3.org/2000/svg" width="266.846" height="41.537" viewBox="0 0 266.846 41.537">
  <path id="Path_44" data-name="Path 44" d="M37.255,1.616a4.842,4.842,0,0,1,3.49-1.5h16.9c10.988,0,16.49,13.82,8.721,21.9L49.439,39.622a1.228,1.228,0,0,1-2.105-.907V23.208l1.956-2.035a2.58,2.58,0,0,0-1.744-4.381H22.667Z"/>
  <path id="Path_45" data-name="Path 45" d="M32.745,38.384a4.842,4.842,0,0,1-3.49,1.5h-16.9c-10.988,0-16.49-13.82-8.72-21.9L20.561.378a1.228,1.228,0,0,1,2.105.907V16.792l-1.956,2.035a2.58,2.58,0,0,0,1.744,4.381H47.333Z"/>
  <path id="Path_46" data-name="Path 46" d="M168.151,13.44V33.435h5.872V13.44Z"/>
  <path id="Path_47" data-name="Path 47" d="M168.56,10.114a3.463,3.463,0,0,0,2.546,1.041,3.4,3.4,0,0,0,2.527-1.041,3.44,3.44,0,0,0,1.041-2.527,3.423,3.423,0,0,0-1.041-2.546A3.4,3.4,0,0,0,171.106,4a3.463,3.463,0,0,0-2.546,1.041,3.423,3.423,0,0,0-1.041,2.546A3.44,3.44,0,0,0,168.56,10.114Z"/>
  <path id="Path_48" data-name="Path 48" d="M177.336,41.239V13.44h5.575v1.988h.073a8.962,8.962,0,0,1,1.135-.948,7.723,7.723,0,0,1,4.534-1.375,8.514,8.514,0,0,1,4.293,1.171,8.79,8.79,0,0,1,3.345,3.475,11.438,11.438,0,0,1,1.245,5.742,12.372,12.372,0,0,1-.725,4.534A9.071,9.071,0,0,1,194.8,31.2a8.459,8.459,0,0,1-2.825,1.9,8.351,8.351,0,0,1-3.159.632,7.689,7.689,0,0,1-4.534-1.412,9.47,9.47,0,0,1-.957-.781h-.121v9.7Zm10.109-12.413a4.08,4.08,0,0,0,2.286-.687,4.449,4.449,0,0,0,1.542-1.9,6.656,6.656,0,0,0,.539-2.862,6.34,6.34,0,0,0-.557-2.862,4.119,4.119,0,0,0-3.921-2.471,3.927,3.927,0,0,0-2.23.613,4.33,4.33,0,0,0-1.561,1.84,6.561,6.561,0,0,0-.576,2.88,6.668,6.668,0,0,0,.576,2.862,4.65,4.65,0,0,0,1.6,1.9A4.169,4.169,0,0,0,187.445,28.826Z" fill-rule="evenodd"/>
  <path id="Path_49" data-name="Path 49" d="M203.19,33.119a9.658,9.658,0,0,0,3.419.613,8.629,8.629,0,0,0,3.735-.8,6.844,6.844,0,0,0,2.732-2.23,5.556,5.556,0,0,0,1.04-3.326,4.686,4.686,0,0,0-.631-2.509,5.327,5.327,0,0,0-1.561-1.672,8.7,8.7,0,0,0-1.914-1.022,17.1,17.1,0,0,0-1.729-.595q-.966-.279-1.858-.576a5.6,5.6,0,0,1-1.468-.706,1.263,1.263,0,0,1-.576-1.078,1.358,1.358,0,0,1,.576-1.115,2.3,2.3,0,0,1,1.45-.446,2.58,2.58,0,0,1,1.709.558,4.43,4.43,0,0,1,1.041,1.152l4.515-1.951a6.656,6.656,0,0,0-2.9-3.1,8.973,8.973,0,0,0-4.572-1.171,8.364,8.364,0,0,0-3.642.762,6.281,6.281,0,0,0-2.509,2.118,5.382,5.382,0,0,0-.91,3.1,5.011,5.011,0,0,0,.78,2.843,6.444,6.444,0,0,0,2.026,1.933,12.252,12.252,0,0,0,2.676,1.171q.613.167,1.338.372a11.833,11.833,0,0,1,1.412.483,3.746,3.746,0,0,1,1.1.669,1.217,1.217,0,0,1,.428.929,1.252,1.252,0,0,1-.3.8,2.072,2.072,0,0,1-.78.613,2.863,2.863,0,0,1-1.171.223,3.3,3.3,0,0,1-2.193-.78,5.679,5.679,0,0,1-1.393-1.654l-4.609,2.026a7.418,7.418,0,0,0,1.877,2.639A9.065,9.065,0,0,0,203.19,33.119Z"/>
  <path id="Path_50" data-name="Path 50" d="M237.987,33.435V13.44h5.593v2.546h.1a7.29,7.29,0,0,1,1.478-1.542,6.256,6.256,0,0,1,3.958-1.3,5.444,5.444,0,0,1,3.215.929,5.288,5.288,0,0,1,1.659,1.858h.1a6.8,6.8,0,0,1,2.305-1.9,8.408,8.408,0,0,1,3.847-.892,6.729,6.729,0,0,1,3.27.706,5.292,5.292,0,0,1,2.007,1.821,7.409,7.409,0,0,1,1.022,2.453,11.6,11.6,0,0,1,.3,2.564V33.435h-5.91V21.412a3.982,3.982,0,0,0-.687-2.509,2.309,2.309,0,0,0-1.97-.892,2.969,2.969,0,0,0-1.524.39,2.654,2.654,0,0,0-1.04,1.133,4.256,4.256,0,0,0-.372,1.877V33.435h-5.872V21.412a3.976,3.976,0,0,0-.688-2.509,2.358,2.358,0,0,0-1.988-.892,2.787,2.787,0,0,0-2.1.873,3.533,3.533,0,0,0-.836,2.564V33.435Z"/>
  <path id="Path_51" data-name="Path 51" d="M223.617,33.732a8.054,8.054,0,0,1-3.753-.873,6.712,6.712,0,0,1-2.695-2.6A8.486,8.486,0,0,1,216.184,26V13.44h5.872V25.221a3.621,3.621,0,0,0,.892,2.639,3.044,3.044,0,0,0,2.212.892,3.267,3.267,0,0,0,1.691-.427A2.934,2.934,0,0,0,228,27.117a3.963,3.963,0,0,0,.427-1.9V13.44H234.3V26.429a2.949,2.949,0,0,0,.316,1.561,2.526,2.526,0,0,0,1.282.836l-2.081,4.906a7.709,7.709,0,0,1-3.233-1.505,3.144,3.144,0,0,1-.78-1.078h-.149a10.273,10.273,0,0,1-1.728,1.394A7.886,7.886,0,0,1,223.617,33.732Z"/>
  <path id="Path_52" data-name="Path 52" d="M155.436,33.732a10.654,10.654,0,0,1-5.259-1.319,9.948,9.948,0,0,1-5.166-8.994,10.2,10.2,0,0,1,1.393-5.352,9.992,9.992,0,0,1,3.773-3.624,11.356,11.356,0,0,1,10.555,0,9.722,9.722,0,0,1,3.735,3.624,10.2,10.2,0,0,1,1.393,5.352,10.2,10.2,0,0,1-1.393,5.352,9.818,9.818,0,0,1-3.754,3.642A10.625,10.625,0,0,1,155.436,33.732Zm0-5.017a4.65,4.65,0,0,0,2.471-.669,4.719,4.719,0,0,0,1.728-1.858,5.818,5.818,0,0,0,.632-2.769,5.833,5.833,0,0,0-.613-2.713,4.641,4.641,0,0,0-1.691-1.858,4.531,4.531,0,0,0-2.49-.688,4.782,4.782,0,0,0-2.509.669,4.587,4.587,0,0,0-1.728,1.84,5.777,5.777,0,0,0-.632,2.75,5.819,5.819,0,0,0,.632,2.769,4.853,4.853,0,0,0,1.747,1.858A4.615,4.615,0,0,0,155.436,28.715Z" fill-rule="evenodd"/>
  <path id="Path_53" data-name="Path 53" d="M127.631,40.924a16.123,16.123,0,0,0,4.571.613,14.426,14.426,0,0,0,4.256-.595A9.355,9.355,0,0,0,139.8,39.2a7.886,7.886,0,0,0,2.212-2.9,9.673,9.673,0,0,0,.78-4.014V13.421h-5.333v1.951h-.111a8.745,8.745,0,0,0-1.153-.929,7.81,7.81,0,0,0-4.515-1.319,8.915,8.915,0,0,0-7.675,4.478,10.818,10.818,0,0,0-1.3,5.556,11.463,11.463,0,0,0,.762,4.367,9.17,9.17,0,0,0,2.026,3.1,8.555,8.555,0,0,0,5.983,2.434,7.708,7.708,0,0,0,4.535-1.394,9.5,9.5,0,0,0,1.174-.985h.089v1.933a3.012,3.012,0,0,1-.929,2.3,5.571,5.571,0,0,1-2.248,1.3,8.593,8.593,0,0,1-2.546.409,8.881,8.881,0,0,1-2.825-.465,11.425,11.425,0,0,1-2.415-1.078L124.379,39.7A17.425,17.425,0,0,0,127.631,40.924Zm7.656-13.305a4.21,4.21,0,0,1-2.36.669,4.089,4.089,0,0,1-2.323-.669,4.706,4.706,0,0,1-1.579-1.877,6.359,6.359,0,0,1-.577-2.769,6,6,0,0,1,.577-2.713,4.256,4.256,0,0,1,1.635-1.765,4.456,4.456,0,0,1,2.36-.632,4.367,4.367,0,0,1,2.323.613,4.22,4.22,0,0,1,1.579,1.765,5.971,5.971,0,0,1,.576,2.732,6.24,6.24,0,0,1-.594,2.787A4.657,4.657,0,0,1,135.287,27.618Z" fill-rule="evenodd"/>
  <path id="Path_54" data-name="Path 54" d="M110.79,33.732a10.66,10.66,0,0,1-5.259-1.319,9.953,9.953,0,0,1-5.166-8.994,10.2,10.2,0,0,1,1.394-5.352,9.989,9.989,0,0,1,3.772-3.624,11.356,11.356,0,0,1,10.555,0,9.722,9.722,0,0,1,3.735,3.624,10.2,10.2,0,0,1,1.394,5.352,10.2,10.2,0,0,1-1.394,5.352,9.818,9.818,0,0,1-3.754,3.642A10.625,10.625,0,0,1,110.79,33.732Zm0-5.017a4.648,4.648,0,0,0,2.471-.669,4.729,4.729,0,0,0,1.729-1.858,5.818,5.818,0,0,0,.631-2.769,5.833,5.833,0,0,0-.613-2.713,4.634,4.634,0,0,0-1.691-1.858,4.529,4.529,0,0,0-2.49-.688,4.784,4.784,0,0,0-2.509.669,4.587,4.587,0,0,0-1.728,1.84,5.777,5.777,0,0,0-.632,2.75,5.818,5.818,0,0,0,.632,2.769,4.861,4.861,0,0,0,1.747,1.858A4.615,4.615,0,0,0,110.79,28.715Z" fill-rule="evenodd"/>
  <path id="Path_55" data-name="Path 55" d="M84.49,6.044V33.435h15.963V28.009H90.585V6.044Z"/>
</svg>
