<svg width="14" height="18" viewBox="0 0 14 18" fill="none" xmlns="http://www.w3.org/2000/svg">
<path d="M8.62079 0.322632H3.62079C2.75694 0.324397 1.92906 0.668721 1.31875 1.28008C0.708439 1.89143 0.365527 2.71989 0.365234 3.58374V14.4271C0.365527 15.2909 0.708439 16.1194 1.31875 16.7307C1.92906 17.3421 2.75694 17.6864 3.62079 17.6882H10.3686C11.2334 17.6879 12.0627 17.3442 12.6742 16.7327C13.2857 16.1212 13.6294 15.2919 13.6297 14.4271V5.34041L8.62079 0.322632ZM8.92524 2.23597L11.7252 5.03597H8.92524V2.23597ZM10.3775 16.5493H3.62079C3.05624 16.5481 2.51515 16.3233 2.11595 15.9241C1.71675 15.5249 1.49196 14.9838 1.49079 14.4193V3.58374C1.49167 3.019 1.71633 2.47762 2.11556 2.07819C2.51479 1.67875 3.05605 1.45381 3.62079 1.45263H7.82968V5.57485C7.82939 5.64687 7.84335 5.71824 7.87078 5.78483C7.8982 5.85142 7.93854 5.91192 7.98946 5.96285C8.04039 6.01377 8.10089 6.05411 8.16748 6.08153C8.23408 6.10896 8.30544 6.12293 8.37746 6.12263H12.5097V14.4271C12.5085 14.9916 12.2837 15.5327 11.8845 15.9319C11.4853 16.3311 10.9442 16.5559 10.3797 16.5571L10.3775 16.5493Z" fill="white"/>
</svg>
