<svg xmlns="http://www.w3.org/2000/svg" xmlns:xlink="http://www.w3.org/1999/xlink" width="18" height="18" viewBox="0 0 18 18">
  <defs>
    <clipPath id="clip-path">
      <rect id="Rectangle_47814" data-name="Rectangle 47814" width="18" height="18" fill="#fff"/>
    </clipPath>
  </defs>
  <g id="AI_Builder_Icon" data-name="AI Builder_Icon" clip-path="url(#clip-path)">
    <path id="Union_717" data-name="Union 717" d="M2.2,12.375A2.2,2.2,0,0,1,0,10.166V2.207A2.2,2.2,0,0,1,2.2,0H5.685V9.385L8.691,4.9A1.408,1.408,0,0,0,8.3,2.975L7.232,2.249a.4.4,0,1,1,.453-.666l1.066.725a2.207,2.207,0,0,1,.613,3.033l0,0-3.8,5.667,4.59-1.331a1.409,1.409,0,0,0,.965-1.74L10.76,6.7a.4.4,0,0,1,.774-.225l.359,1.24a2.217,2.217,0,0,1-1.516,2.738l-6.1,1.768a2.2,2.2,0,0,1-.8.151ZM1.213,1.216a1.4,1.4,0,0,0-.407.99v7.961a1.395,1.395,0,0,0,1.395,1.4H3.478a1.413,1.413,0,0,0,.238-.02l.022-.007.281-.081a1.421,1.421,0,0,0,.577-.45L4.6,11l.085-.127a1.4,1.4,0,0,0,.193-.709V.806H2.2A1.406,1.406,0,0,0,1.213,1.216ZM2.838,10.36a.837.837,0,0,1-.8-.707.507.507,0,0,1,0-.143.843.843,0,0,1,1.68,0H3.683a.654.654,0,0,1,0,.2.837.837,0,0,1-.817.651Z" transform="translate(3.6 2.813)" fill="#fff"/>
  </g>
</svg>
