<svg xmlns="http://www.w3.org/2000/svg" xmlns:xlink="http://www.w3.org/1999/xlink" width="60" height="30" viewBox="0 0 60 30">
  <defs>
    <clipPath id="clip-path">
      <rect id="Rectangle_48170" data-name="Rectangle 48170" width="60" height="30" transform="translate(382 -423)" fill="red"/>
    </clipPath>
  </defs>
  <g id="Mask_Group_1305" data-name="Mask Group 1305" transform="translate(-382 423)" clip-path="url(#clip-path)">
    <path id="Path_162852" data-name="Path 162852" d="M-28.67,0V-18.6h3.44V-2.742h7.782L-17.549,0ZM-9.1-2.26A2.883,2.883,0,0,0-6.556-3.491a6.177,6.177,0,0,0,.851-3.529,6.166,6.166,0,0,0-.851-3.542,2.919,2.919,0,0,0-2.564-1.219,2.9,2.9,0,0,0-2.545,1.225,6.162,6.162,0,0,0-.857,3.548,6.08,6.08,0,0,0,.863,3.517A2.928,2.928,0,0,0-9.1-2.26ZM-9.184.267a6.179,6.179,0,0,1-4.875-2.006,7.669,7.669,0,0,1-1.777-5.281,7.6,7.6,0,0,1,1.777-5.326,6.443,6.443,0,0,1,5.015-1.949,6.219,6.219,0,0,1,4.894,1.987A7.652,7.652,0,0,1-2.38-7.021,7.609,7.609,0,0,1-4.17-1.708,6.424,6.424,0,0,1-9.184.267ZM3.345,6.246l-.19-2.691H4.843a7.8,7.8,0,0,0,4.1-.781A3.2,3.2,0,0,0,10.111-.089q0-.851-.076-1.841a6.239,6.239,0,0,1-.628.755,4.576,4.576,0,0,1-.749.59,3.373,3.373,0,0,1-1.079.438A6.337,6.337,0,0,1,6.15,0,5.836,5.836,0,0,1,1.6-1.993,7.419,7.419,0,0,1-.185-7.135a8.973,8.973,0,0,1,.5-3.053,6.312,6.312,0,0,1,1.346-2.266,5.919,5.919,0,0,1,1.961-1.365,5.947,5.947,0,0,1,2.368-.476,4.685,4.685,0,0,1,4.177,2.044l.229-1.7h2.971V-.99a15.563,15.563,0,0,1-.1,1.873,8.282,8.282,0,0,1-.355,1.6,4.894,4.894,0,0,1-.667,1.339A4.917,4.917,0,0,1,11.2,4.862a5.4,5.4,0,0,1-1.466.768,10.236,10.236,0,0,1-1.961.457,18,18,0,0,1-2.514.159ZM6.683-2.323q3.44,0,3.479-4.608v-.482a5.407,5.407,0,0,0-.863-3.2,2.891,2.891,0,0,0-2.45-1.143,3.245,3.245,0,0,0-2.768,1.25,5.484,5.484,0,0,0-.939,3.371,5.934,5.934,0,0,0,.946,3.428A2.981,2.981,0,0,0,6.683-2.323Zm16.249.063a2.883,2.883,0,0,0,2.539-1.231,6.177,6.177,0,0,0,.851-3.529,6.166,6.166,0,0,0-.851-3.542,2.919,2.919,0,0,0-2.564-1.219,2.9,2.9,0,0,0-2.545,1.225A6.162,6.162,0,0,0,19.5-7.008a6.08,6.08,0,0,0,.863,3.517A2.928,2.928,0,0,0,22.932-2.26ZM22.843.267a6.179,6.179,0,0,1-4.875-2.006,7.669,7.669,0,0,1-1.777-5.281,7.6,7.6,0,0,1,1.777-5.326,6.443,6.443,0,0,1,5.015-1.949,6.219,6.219,0,0,1,4.894,1.987,7.652,7.652,0,0,1,1.771,5.288,7.609,7.609,0,0,1-1.79,5.313A6.424,6.424,0,0,1,22.843.267Z" transform="translate(411.67 -401.801)" fill="#fff"/>
  </g>
</svg>
