<svg id="display_conditions" data-name="display conditions" xmlns="http://www.w3.org/2000/svg" width="23" height="23" viewBox="0 0 23 23">
  <rect id="Rectangle_54182" data-name="Rectangle 54182" width="23" height="23" fill="none"/>
  <g id="Group_171981" data-name="Group 171981" transform="translate(4.013 4.02)">
    <g id="Group_171978" data-name="Group 171978" transform="translate(0 1.058)">
      <path id="Path_171986" data-name="Path 171986" d="M18.532,19.7H9.648A2.671,2.671,0,0,1,6.98,17.029V11.5A2.671,2.671,0,0,1,9.648,8.83h6.17a.46.46,0,1,1,0,.92H9.648A1.75,1.75,0,0,0,7.9,11.5v5.531a1.75,1.75,0,0,0,1.748,1.748h8.884a1.75,1.75,0,0,0,1.748-1.748v-3.49a.46.46,0,0,1,.92,0v3.49A2.671,2.671,0,0,1,18.532,19.7Z" transform="translate(-6.98 -8.83)" fill="#fff"/>
      <path id="Path_171987" data-name="Path 171987" d="M20.008,30.086h-5.09l.9-3.956h3.3Zm-3.938-.92h2.787l-.477-2.116H16.551Z" transform="translate(-10.354 -16.182)" fill="#fff"/>
      <path id="Line_5168" data-name="Line 5168" d="M8.085.12H0V-.8H8.085Z" transform="translate(3.07 13.783)" fill="#fff"/>
    </g>
    <g id="Group_171980" data-name="Group 171980" transform="translate(7.024)">
      <g id="Group_171979" data-name="Group 171979">
        <path id="Path_171988" data-name="Path 171988" d="M25.391,6.991a1.64,1.64,0,0,1,1.1.424,1.142,1.142,0,0,1,.129.128l.043.047.028.03.01.011a1.631,1.631,0,0,1-.045,2.279L22.48,14.088l-2.635.829a.526.526,0,0,1-.127.016.521.521,0,0,1-.505-.648l.008-.027.822-2.6,4.179-4.179A1.645,1.645,0,0,1,25.391,6.991Zm.646,1.273c-.019-.02-.037-.039-.052-.055l-.028-.03-.015-.015-.013-.016a.236.236,0,0,0-.033-.033L25.88,8.1a.722.722,0,0,0-.488-.19.731.731,0,0,0-.52.216l-4.02,4.02L20.329,13.8l1.66-.523,4.02-4.02A.715.715,0,0,0,26.037,8.264Z" transform="translate(-19.196 -6.991)" fill="#fff"/>
      </g>
      <path id="Line_5169" data-name="Line 5169" d="M1.075,1.534A.459.459,0,0,1,.749,1.4L-.665-.015a.46.46,0,0,1,0-.651.46.46,0,0,1,.651,0L1.4.749a.46.46,0,0,1-.325.785Z" transform="translate(5.529 1.685)" fill="#fff"/>
      <path id="Path_171989" data-name="Path 171989" d="M20.4,17.66l.943.943-1.271.4A.061.061,0,0,1,20,18.931Z" transform="translate(-19.536 -11.525)" fill="#fff"/>
      <path id="Path_171990" data-name="Path 171990" d="M22.869,17.34a.46.46,0,0,1-.425-.284,2.4,2.4,0,0,0-.515-.771,2.268,2.268,0,0,0-.852-.541.46.46,0,0,1,.307-.867,3.181,3.181,0,0,1,1.2.758,3.324,3.324,0,0,1,.715,1.069.46.46,0,0,1-.425.636Z" transform="translate(-19.865 -10.331)" fill="#fff"/>
    </g>
  </g>
</svg>
