<svg xmlns="http://www.w3.org/2000/svg" xmlns:xlink="http://www.w3.org/1999/xlink" width="18" height="18" viewBox="0 0 18 18">
  <defs>
    <clipPath id="clip-path">
      <rect id="Rectangle_54278" data-name="Rectangle 54278" width="16" height="16" transform="translate(35 277)" fill="#fff"/>
    </clipPath>
  </defs>
  <g id="Group_172372" data-name="Group 172372" transform="translate(-35 -275)">
    <g id="Mask_Group_95685" data-name="Mask Group 95685" clip-path="url(#clip-path)">
      <g id="Group_172043" data-name="Group 172043" transform="translate(3819.25 -10519.349)">
        <path id="Path_172206" data-name="Path 172206" d="M.9-.65A1.554,1.554,0,1,1-.65.9,1.555,1.555,0,0,1,.9-.65Zm0,2.306A.752.752,0,1,0,.151.9.753.753,0,0,0,.9,1.656Z" transform="translate(-3777.899 10799.896)" fill="#fff"/>
        <path id="Path_172207" data-name="Path 172207" d="M8.359.55A3.253,3.253,0,0,1,11.608,3.8v.007a3.134,3.134,0,0,1-.158.925,13.365,13.365,0,0,1-2.8,4.585l-.3.334-.3-.322A13.173,13.173,0,0,1,5.206,4.623a.782.782,0,0,1-.065-.337.766.766,0,0,1,0-.083,3.162,3.162,0,0,1-.029-.4v0A3.253,3.253,0,0,1,8.359.55ZM10.806,3.8a2.447,2.447,0,0,0-4.895,0,2.357,2.357,0,0,0,.026.33l.008.052-.005.048,0,.018v.022c0,.01,0,.021,0,.032l.018.029.015.069A11.343,11.343,0,0,0,8.34,8.449,11.614,11.614,0,0,0,10.677,4.52l.009-.029A2.334,2.334,0,0,0,10.806,3.8Z" transform="translate(-3785.361 10797)" fill="#fff"/>
        <path id="Path_172208" data-name="Path 172208" d="M20.232,13.188a1.134,1.134,0,0,1-.031.253,1.1,1.1,0,0,1-2.164-.062,1,1,0,0,1,0-.191,1.11,1.11,0,1,1,2.213,0Z" transform="translate(-3790.317 10792.609)" fill="#fff"/>
        <path id="Path_172209" data-name="Path 172209" d="M3.756,19.991a.906.906,0,0,1,0,.259,1.1,1.1,0,0,1-2.189-.055.956.956,0,0,1,0-.191,1.1,1.1,0,1,1,2.207,0Z" transform="translate(-3784 10789.962)" fill="#fff"/>
        <path id="Path_172210" data-name="Path 172210" d="M5.134,18.33a6.463,6.463,0,0,1-.877-.075,4.523,4.523,0,0,0-1-.059l-.068-.8a5.219,5.219,0,0,1,1.178.063,3.073,3.073,0,0,0,2.169-.307,3.037,3.037,0,0,0,1.455-1.629,3.988,3.988,0,0,1,4.461-2.383,4.7,4.7,0,0,0,.953.063l.052.8a5.394,5.394,0,0,1-1.112-.069,3.075,3.075,0,0,0-2.172.306,3.039,3.039,0,0,0-1.461,1.633,3.831,3.831,0,0,1-1.8,1.986A3.647,3.647,0,0,1,5.134,18.33Z" transform="translate(-3784.622 10792.2)" fill="#fff"/>
      </g>
    </g>
    <g id="Group_172371" data-name="Group 172371">
      <path id="Path_172390" data-name="Path 172390" d="M2.5,0A2.5,2.5,0,1,1,0,2.5,2.5,2.5,0,0,1,2.5,0Z" transform="translate(46 277)" fill="#d41125"/>
      <path id="Ellipse_12726_-_Outline" data-name="Ellipse 12726 - Outline" d="M2.5,0A2.5,2.5,0,1,0,5,2.5,2.5,2.5,0,0,0,2.5,0m0-2A4.5,4.5,0,1,1-2,2.5,4.505,4.505,0,0,1,2.5-2Z" transform="translate(46 277)" fill="#0c0d0e"/>
    </g>
  </g>
</svg>
