<svg width="16" height="16" viewBox="0 0 16 16" fill="none" xmlns="http://www.w3.org/2000/svg">
<path fill-rule="evenodd" clip-rule="evenodd" d="M1.99328 6.98321C1.99328 4.23106 4.23858 1.99352 7.01632 1.99352C9.79408 1.99352 12.0394 4.23106 12.0394 6.98321C12.0394 9.73537 9.79407 11.9729 7.01632 11.9729C4.23858 11.9729 1.99328 9.73537 1.99328 6.98321ZM7.01632 0.703369C3.53324 0.703369 0.703125 3.51136 0.703125 6.98321C0.703125 10.4551 3.53323 13.2631 7.01632 13.2631C8.54325 13.2631 9.94468 12.7234 11.0372 11.8248L14.1865 15.0979L15.1162 14.2034L11.9452 10.9078C12.8112 9.83319 13.3295 8.46899 13.3295 6.98321C13.3295 3.51136 10.4994 0.703369 7.01632 0.703369Z" fill="white"/>
</svg>
