<svg xmlns="http://www.w3.org/2000/svg" xmlns:xlink="http://www.w3.org/1999/xlink" width="14" height="14" viewBox="0 0 14 14">
  <defs>
    <clipPath id="clip-path">
      <rect id="Rectangle_54302" data-name="Rectangle 54302" width="14" height="14" transform="translate(436 380)" fill="#fff"/>
    </clipPath>
  </defs>
  <g id="Mask_Group_95686" data-name="Mask Group 95686" transform="translate(-436 -380)" clip-path="url(#clip-path)">
    <g id="Group_172070" data-name="Group 172070" transform="translate(8.114 4.402)">
      <g id="Group_172071" data-name="Group 172071" transform="translate(430.326 377.368)">
        <g id="Group_172063" data-name="Group 172063">
          <g id="Group_172062" data-name="Group 172062">
            <path id="Path_172214" data-name="Path 172214" d="M9.084,9.532a2.477,2.477,0,0,1-.244.812,5.034,5.034,0,0,1-.973,1.227l-.582.552A2.1,2.1,0,0,0,6.65,13.57a.123.123,0,0,1-.122.117H4.963a.131.131,0,0,1-.088-.039.1.1,0,0,1-.034-.088,3.629,3.629,0,0,1,.181-1.506,3.333,3.333,0,0,1,.914-1.212,4.4,4.4,0,0,0,.831-.9,1.41,1.41,0,0,0,.24-.694,1.025,1.025,0,0,0-.9-1.134A.949.949,0,0,0,5.99,8.1a.6.6,0,0,0-.1.01c-.611,0-1.012.406-1.1,1.12a.131.131,0,0,1-.127.117H2.8a.122.122,0,0,1-.088-.039.137.137,0,0,1-.039-.1,2.93,2.93,0,0,1,3.222-2.9,3.577,3.577,0,0,1,2.117.5,1.28,1.28,0,0,1-.191.073.883.883,0,0,0-.567.572.855.855,0,0,0,.059.675.871.871,0,0,0,.513.435,2.43,2.43,0,0,1,.963.587A2.021,2.021,0,0,1,9.084,9.532Z" transform="translate(-2.67 -6.31)" fill="#fff"/>
          </g>
        </g>
        <g id="Group_172064" data-name="Group 172064" transform="translate(1.858 8.365)">
          <path id="Path_172215" data-name="Path 172215" d="M8.89,24.632A1.21,1.21,0,1,1,7.682,23.42,1.21,1.21,0,0,1,8.89,24.632Z" transform="translate(-6.47 -23.42)" fill="#fff"/>
        </g>
      </g>
      <g id="Group_172072" data-name="Group 172072" transform="translate(435.599 376.508)">
        <g id="Group_172066" data-name="Group 172066" transform="translate(0 0.007)">
          <path id="Path_172216" data-name="Path 172216" d="M17.989,6.879a.133.133,0,0,1-.093.093,3.175,3.175,0,0,0-2.029,2.034.184.184,0,0,1-.059.078l-.034.015a.083.083,0,0,1-.034,0,.12.12,0,0,1-.059,0,.154.154,0,0,1-.1-.093,3.139,3.139,0,0,0-.768-1.261,2.613,2.613,0,0,0-.244-.22,3.107,3.107,0,0,0-1.017-.548.146.146,0,0,1-.093-.186.144.144,0,0,1,.093-.1,2.956,2.956,0,0,0,.528-.225,3.087,3.087,0,0,0,.733-.548,3.122,3.122,0,0,0,.768-1.256.141.141,0,0,1,.156-.1.062.062,0,0,1,.029,0,.117.117,0,0,1,.059.034.125.125,0,0,1,.039.059,3.08,3.08,0,0,0,.772,1.256,3.379,3.379,0,0,0,.279.249,3.046,3.046,0,0,0,.8.46c.059.024.117.044.176.064a.138.138,0,0,1,.073.054A.153.153,0,0,1,17.989,6.879Z" transform="translate(-13.455 -4.564)" fill="#2a61ae"/>
        </g>
        <g id="Group_172067" data-name="Group 172067" transform="translate(2.283)" opacity="0.2">
          <path id="Path_172217" data-name="Path 172217" d="M20.284,6.965a3.167,3.167,0,0,0-2.029,2.029.146.146,0,0,1-.127.1c0-.01,0-4.5,0-4.547a.141.141,0,0,1,.127.1,3.079,3.079,0,0,0,.772,1.256,3.188,3.188,0,0,0,1.256.772.148.148,0,0,1,.1.186A.15.15,0,0,1,20.284,6.965Z" transform="translate(-18.126 -4.55)" fill="#fff"/>
        </g>
      </g>
    </g>
  </g>
</svg>
