<svg width="18" height="18" viewBox="0 0 18 18" fill="none" xmlns="http://www.w3.org/2000/svg">
<path d="M9.00128 1.79999C4.95571 1.79999 1.68758 5.1473 1.80276 9.21447C1.91074 12.9649 5.04209 16.0891 8.79252 16.197C12.8597 16.3122 16.1998 13.0369 16.1998 8.99851C16.1998 5.03213 12.9677 1.79999 9.00128 1.79999ZM9.82911 11.8779C9.82911 12.3386 9.45479 12.7058 9.00128 12.7058C8.54057 12.7058 8.17345 12.3386 8.17345 11.8779V8.62419C8.17345 8.16348 8.54057 7.79636 9.00128 7.79636C9.45479 7.79636 9.82911 8.16348 9.82911 8.62419V11.8779ZM9.00128 6.94693C8.54057 6.94693 8.17345 6.57981 8.17345 6.1191C8.17345 5.6656 8.54057 5.29127 9.00128 5.29127C9.45479 5.29127 9.82911 5.6656 9.82911 6.1191C9.82911 6.57981 9.45479 6.94693 9.00128 6.94693Z" fill="white"/>
</svg>
