<svg version="1.2" xmlns="http://www.w3.org/2000/svg" viewBox="0 0 26 26" width="26" height="26">
	<title>undo-svg</title>
	<defs>
		<clipPath clipPathUnits="userSpaceOnUse" id="cp1">
			<path d="m0 0h26v26h-26z"/>
		</clipPath>
	</defs>
	<style>
		.s0 { fill: #ffffff } 
	</style>
	<g id="Clip-Path: Restore_Icon-2" clip-path="url(#cp1)">
		<g id="Restore_Icon-2">
			<path id="Subtraction_3" class="s0" d="m11.8 20.4h0.1q0.5 0 0.9 0 0.4-0.1 0.9-0.2 0.4-0.1 0.8-0.3 0.4-0.1 0.8-0.3 0.1-0.1 0.1-0.1 0.1 0 0.1-0.1 0.1 0 0.1-0.1 0-0.1 0-0.1 0.1-0.1 0.1-0.1 0-0.1 0-0.2 0 0-0.1-0.1 0-0.1 0-0.1 0-0.1-0.1-0.2-0.1 0-0.1-0.1-0.1 0-0.2 0-0.1-0.1-0.2-0.1 0 0 0 0-0.1 0-0.1 0.1-0.1 0-0.1 0 0 0-0.1 0-0.3 0.2-0.6 0.3-0.4 0.1-0.7 0.2-0.4 0.1-0.8 0.2-0.3 0-0.7 0h-0.1q-0.6 0-1.1-0.1-0.6-0.1-1.1-0.3-0.6-0.3-1-0.6-0.5-0.3-0.9-0.7-0.4-0.5-0.8-1-0.3-0.5-0.5-1-0.2-0.5-0.3-1.1-0.1-0.6-0.1-1.2 0-0.6 0.1-1.2 0.1-0.5 0.4-1.1 0.2-0.5 0.5-1 0.3-0.5 0.8-0.9 0.4-0.4 0.9-0.7 0.5-0.4 1-0.6 0.6-0.2 1.1-0.3 0.6-0.2 1.2-0.2 0.6 0 1.1 0.2 0.6 0.1 1.1 0.3 0.6 0.2 1 0.6 0.5 0.3 0.9 0.7 0.4 0.4 0.8 0.9 0.3 0.5 0.5 1 0.2 0.6 0.3 1.1 0.2 0.6 0.2 1.2v0.3h-1.6q-0.1 0-0.2 0 0 0.1-0.1 0.1-0.1 0-0.1 0.1-0.1 0-0.1 0.1-0.1 0.1-0.1 0.2 0 0.1 0 0.2 0 0.1 0.1 0.2 0 0.1 0.1 0.2l2.2 2.5q0 0 0.1 0 0 0.1 0.1 0.1 0 0 0.1 0 0 0.1 0.1 0.1 0.1 0 0.1-0.1 0.1 0 0.2 0 0 0 0.1-0.1 0 0 0.1 0l2.2-2.6q0 0 0.1-0.1 0 0 0-0.1 0 0 0-0.1 0 0 0-0.1 0 0 0-0.1 0-0.1 0-0.1 0-0.1-0.1-0.1 0-0.1-0.1-0.1 0-0.1-0.1-0.1 0 0 0 0-0.1-0.1-0.1-0.1-0.1 0-0.1 0h-1.7v-0.3q0-0.7-0.1-1.4-0.2-0.7-0.4-1.4-0.3-0.6-0.7-1.2-0.4-0.6-0.9-1.2c-1-1-2.3-1.6-3.7-1.9-1.4-0.3-2.9-0.1-4.2 0.4-1.3 0.6-2.4 1.5-3.2 2.7-0.8 1.2-1.2 2.6-1.2 4q-0.1 1.4 0.5 2.8 0.5 1.3 1.5 2.3 1 1.1 2.4 1.6 1.3 0.6 2.7 0.6z"/>
		</g>
	</g>
</svg>