<svg xmlns="http://www.w3.org/2000/svg" xmlns:xlink="http://www.w3.org/1999/xlink" width="26" height="26" viewBox="0 0 26 26">
  <defs>
    <clipPath id="clip-path">
      <rect id="Rectangle_47809" data-name="Rectangle 47809" width="26" height="26" fill="#fff"/>
    </clipPath>
  </defs>
  <g id="Restore_Icon" opacity="0.2">
    <g id="Restore_Icon-2" data-name="Restore_Icon" clip-path="url(#clip-path)">
      <path id="Subtraction_4" data-name="Subtraction 4" d="M7.258,14.618H7.176A7.264,7.264,0,0,1,0,7.272,7.305,7.305,0,0,1,7.258,0,7.239,7.239,0,0,1,12.35,2.129a7.608,7.608,0,0,1,2.122,5.147l.007.317h1.669a.8.8,0,0,1,.3.15l.025.025a.614.614,0,0,1,.207.45.515.515,0,0,1-.15.388l-2.225,2.532a.623.623,0,0,1-.471.2.529.529,0,0,1-.424-.185L11.231,8.7a.68.68,0,0,1-.1-.842.7.7,0,0,1,.492-.268H13.2V7.268a5.943,5.943,0,0,0-5.86-5.938A6.106,6.106,0,0,0,3.11,3.089,6,6,0,0,0,1.32,7.307a6.176,6.176,0,0,0,1.687,4.231l0,0a5.84,5.84,0,0,0,4.165,1.747h.082a6.234,6.234,0,0,0,2.81-.7.685.685,0,0,1,.321-.079.605.605,0,0,1,.553.347.685.685,0,0,1,.047.528.615.615,0,0,1-.314.356l0,0A7.462,7.462,0,0,1,7.258,14.618Z" transform="translate(4.657 5.814)" fill="#fff"/>
    </g>
  </g>
</svg>
