<svg id="Plugins_Icon" xmlns="http://www.w3.org/2000/svg" xmlns:xlink="http://www.w3.org/1999/xlink" width="16" height="16" viewBox="0 0 16 16">
  <defs>
    <clipPath id="clip-path">
      <rect id="Rectangle_47816" data-name="Rectangle 47816" width="16" height="16" fill="#fff" stroke="#fff" stroke-width="1"/>
    </clipPath>
  </defs>
  <g id="Plugins_Icon-2" data-name="Plugins_Icon" clip-path="url(#clip-path)">
    <g id="Untitled-2-01" transform="translate(-0.12 -0.58)">
      <g id="Group_108117" data-name="Group 108117" transform="translate(0.12 1.31)">
        <g id="Group_108115" data-name="Group 108115" transform="translate(3.523)">
          <path id="Path_172202" data-name="Path 172202" d="M8.351,7.751a3.221,3.221,0,1,1,3.221-3.221A3.225,3.225,0,0,1,8.351,7.751Zm0-5.527a2.307,2.307,0,1,0,2.307,2.307A2.308,2.308,0,0,0,8.351,2.224Z" transform="translate(-5.13 -1.31)" fill="#fff"/>
        </g>
        <g id="Group_108116" data-name="Group 108116" transform="translate(0 6.723)">
          <path id="Path_172203" data-name="Path 172203" d="M6.864,18.479A8.4,8.4,0,0,1,.3,15.349L.12,15.124l.127-.26a7.325,7.325,0,0,1,4.922-3.952l.176-.042.169.091a2.734,2.734,0,0,0,2.707,0l.155-.091.176.042a7.316,7.316,0,0,1,2.1.858.456.456,0,0,1-.471.781,6.281,6.281,0,0,0-1.674-.71,3.664,3.664,0,0,1-3.291,0A6.369,6.369,0,0,0,1.21,15a7.47,7.47,0,0,0,5.661,2.567,7.323,7.323,0,0,0,1.709-.2c.127-.028.246-.063.366-.1a.457.457,0,0,1,.253.879,3.98,3.98,0,0,1-.415.105A8.379,8.379,0,0,1,6.864,18.479Z" transform="translate(-0.12 -10.87)" fill="#fff"/>
        </g>
      </g>
      <g id="Group_108118" data-name="Group 108118" transform="translate(9.033 8.855)">
        <path id="Path_172204" data-name="Path 172204" d="M16.343,13.51l.436.886.211.429.478.07.977.141-.71.689-.345.338.084.478.169.97-.879-.457-.422-.218-.422.218-.872.457.169-.97.084-.471-.345-.338-.71-.689.984-.141.478-.07.211-.436.422-.886m-.007-1.47a.443.443,0,0,0-.408.239l-.38.766-.464.949-1.9.274a.438.438,0,0,0-.366.309.455.455,0,0,0,.113.471L14.3,16.386l-.316,1.835-.007.049a.453.453,0,0,0,.183.443.425.425,0,0,0,.267.091.43.43,0,0,0,.211-.056l1.695-.886,1.695.886a.479.479,0,0,0,.218.056.439.439,0,0,0,.267-.091.453.453,0,0,0,.183-.443l-.331-1.885,1.378-1.336a.47.47,0,0,0,.113-.471.447.447,0,0,0-.366-.309l-1.9-.274-.844-1.716a.446.446,0,0,0-.415-.239Z" transform="translate(-12.795 -12.04)" fill="#fff"/>
      </g>
    </g>
  </g>
</svg>
