<svg width="15" height="16" viewBox="0 0 15 16" fill="none" xmlns="http://www.w3.org/2000/svg">
<path d="M4.66934 15.2776C4.33243 14.2375 3.75438 13.2918 2.98235 12.5176C2.20926 11.7462 1.26498 11.1682 0.226345 10.8306C0.160967 10.8102 0.103807 10.7695 0.0632171 10.7144C0.0226268 10.6592 0.000732422 10.5926 0.000732422 10.5241C0.000732422 10.4556 0.0226268 10.3889 0.0632171 10.3338C0.103807 10.2787 0.160967 10.2379 0.226345 10.2176C1.26472 9.87958 2.20865 9.30123 2.98135 8.5296C3.75416 7.75666 4.33266 6.81146 4.66934 5.7716C4.69083 5.70676 4.73221 5.65033 4.78759 5.61035C4.84297 5.57036 4.90954 5.54883 4.97784 5.54883C5.04615 5.54883 5.11272 5.57036 5.1681 5.61035C5.22348 5.65033 5.26486 5.70676 5.28635 5.7716C5.62246 6.81128 6.20044 7.75638 6.97281 8.52927C7.74518 9.30216 8.68989 9.88078 9.72934 10.2176C9.79337 10.2379 9.84943 10.2777 9.88961 10.3316C9.9298 10.3854 9.95209 10.4504 9.95335 10.5176C9.95296 10.5859 9.93153 10.6524 9.89198 10.708C9.85243 10.7637 9.79669 10.8058 9.73234 10.8286C8.69346 11.1674 7.74928 11.7468 6.97669 12.5196C6.20409 13.2923 5.62493 14.2366 5.28635 15.2756C5.26486 15.3404 5.22348 15.3969 5.1681 15.4368C5.11272 15.4768 5.04615 15.4984 4.97784 15.4984C4.90954 15.4984 4.84297 15.4768 4.78759 15.4368C4.73221 15.3969 4.69083 15.3404 4.66934 15.2756V15.2776ZM11.8693 6.2606C11.6678 5.64721 11.3247 5.08988 10.8678 4.63368C10.4109 4.17748 9.85303 3.83523 9.23934 3.6346C9.19901 3.62395 9.16337 3.60019 9.13802 3.56706C9.11268 3.53393 9.09907 3.49331 9.09935 3.4516C9.09905 3.40996 9.11281 3.36944 9.1384 3.3366C9.16398 3.30375 9.1999 3.2805 9.24035 3.2706C9.85526 3.07054 10.4141 2.72788 10.8713 2.2706C11.3248 1.81195 11.6636 1.25281 11.8603 0.638595C11.8721 0.598748 11.8965 0.563815 11.9299 0.539093C11.9633 0.51437 12.0038 0.501206 12.0453 0.501595C12.0862 0.501802 12.1258 0.51528 12.1583 0.539995C12.1907 0.564709 12.2143 0.599318 12.2253 0.638595C12.4254 1.25438 12.768 1.81423 13.2253 2.2726C13.6828 2.73101 14.243 3.07381 14.8593 3.2726C14.8993 3.28261 14.9347 3.30565 14.9601 3.33807C14.9854 3.37049 14.9992 3.41044 14.9993 3.4516C14.9998 3.49361 14.9861 3.53456 14.9606 3.56791C14.935 3.60126 14.899 3.62509 14.8583 3.6356C14.2441 3.83523 13.6857 4.17714 13.2287 4.63348C12.7717 5.08982 12.4289 5.64767 12.2283 6.2616C12.218 6.30144 12.1947 6.33671 12.1621 6.36189C12.1295 6.38707 12.0895 6.40073 12.0483 6.40073C12.0072 6.40073 11.9672 6.38707 11.9346 6.36189C11.902 6.33671 11.8787 6.30144 11.8683 6.2616L11.8693 6.2606Z" fill="white"/>
</svg>
