<svg id="Restore_Icon" xmlns="http://www.w3.org/2000/svg" xmlns:xlink="http://www.w3.org/1999/xlink" width="26" height="26" viewBox="0 0 26 26">
  <defs>
    <clipPath id="clip-path">
      <rect id="Rectangle_47809" data-name="Rectangle 47809" width="26" height="26" fill="#fff"/>
    </clipPath>
  </defs>
  <g id="Restore_Icon-2" data-name="Restore_Icon" clip-path="url(#clip-path)">
    <path id="Subtraction_3" data-name="Subtraction 3" d="M9.508,14.618H9.426a7.43,7.43,0,0,1-3.413-.87l0,0a.611.611,0,0,1-.316-.374.7.7,0,0,1,.053-.51.6.6,0,0,1,.549-.347.7.7,0,0,1,.325.079,6.2,6.2,0,0,0,2.807.7h.082a5.842,5.842,0,0,0,4.166-1.747l0,0A6.183,6.183,0,0,0,15.368,7.3a6,6,0,0,0-1.794-4.215,6.1,6.1,0,0,0-4.23-1.759A5.853,5.853,0,0,0,5.221,3.078a5.912,5.912,0,0,0-1.733,4.19v.324H5.061a.708.708,0,0,1,.489.268.679.679,0,0,1-.093.842L3.285,11.138l-.011.014a.539.539,0,0,1-.428.185.609.609,0,0,1-.467-.2L.164,8.621.154,8.606A.516.516,0,0,1,0,8.217a.614.614,0,0,1,.207-.45l.028-.025a.754.754,0,0,1,.3-.15H2.208l0-.317A7.645,7.645,0,0,1,4.333,2.129,7.25,7.25,0,0,1,16.684,7.268a7.264,7.264,0,0,1-7.176,7.35Z" transform="translate(4.659 5.814)" fill="#fff"/>
  </g>
</svg>
