<svg version="1.2" xmlns="http://www.w3.org/2000/svg" viewBox="0 0 26 26" width="26" height="26">
	<title>redo_disabled-svg</title>
	<defs>
		<clipPath clipPathUnits="userSpaceOnUse" id="cp1">
			<path d="m0 0h26v26h-26z"/>
		</clipPath>
	</defs>
	<style>
		.s0 { fill: #ffffff } 
	</style>
	<g id="Restore_Icon" style="opacity: .2">
		<g id="Clip-Path: Restore_Icon-2" clip-path="url(#cp1)">
			<g id="Restore_Icon-2">
				<path id="Subtraction_4" class="s0" d="m14.1 20.4h0.1q1.4 0 2.7-0.6 1.4-0.5 2.4-1.6 1-1 1.5-2.3 0.6-1.4 0.5-2.8 0-1.5-0.5-2.8-0.6-1.3-1.6-2.3-1-1.1-2.3-1.6-1.4-0.6-2.8-0.6-0.7 0-1.4 0.2-0.7 0.1-1.4 0.4-0.6 0.2-1.2 0.6-0.6 0.4-1.1 0.9-0.5 0.6-0.9 1.2-0.4 0.6-0.7 1.2-0.2 0.7-0.4 1.4-0.1 0.7-0.1 1.4v0.3h-1.7q0 0-0.1 0 0 0-0.1 0.1 0 0 0 0-0.1 0-0.1 0.1-0.1 0-0.1 0.1-0.1 0-0.1 0.1 0 0 0 0.1 0 0.1 0 0.1 0 0.1 0 0.1 0 0.1 0 0.1 0 0.1 0 0.1 0.1 0.1 0.1 0.1l2.2 2.6q0.1 0 0.1 0 0.1 0.1 0.2 0.1 0 0 0.1 0 0 0.1 0.1 0.1 0.1 0 0.1-0.1 0.1 0 0.1 0 0.1 0 0.1-0.1 0.1 0 0.1 0l2.2-2.5q0.1-0.1 0.1-0.2 0.1-0.1 0.1-0.2 0-0.1 0-0.2 0-0.1-0.1-0.2 0-0.1-0.1-0.1 0-0.1-0.1-0.1-0.1 0-0.1-0.1-0.1 0-0.2 0h-1.6v-0.3q0-1.2 0.5-2.3 0.4-1.1 1.3-1.9 0.8-0.8 1.9-1.3 1-0.4 2.2-0.5 0.6 0 1.2 0.2 0.5 0.1 1.1 0.3 0.5 0.2 1 0.6 0.5 0.3 0.9 0.7 0.5 0.4 0.8 0.9 0.3 0.5 0.5 1 0.3 0.6 0.4 1.2 0.1 0.5 0.1 1.1 0 0.6-0.1 1.2-0.1 0.6-0.3 1.1-0.2 0.5-0.5 1-0.4 0.5-0.8 1-0.4 0.4-0.9 0.7-0.4 0.3-1 0.5-0.5 0.3-1.1 0.4-0.5 0.1-1.1 0.1h-0.1q-0.4 0-0.7-0.1-0.4 0-0.8-0.1-0.3-0.1-0.7-0.2-0.3-0.1-0.6-0.3-0.1 0-0.1 0 0-0.1-0.1-0.1 0 0-0.1 0 0 0 0 0-0.1 0-0.2 0-0.1 0.1-0.2 0.1 0 0.1-0.1 0.1-0.1 0.1-0.1 0.2 0 0 0 0.1-0.1 0.1-0.1 0.1 0 0.1 0 0.2 0 0 0.1 0.1 0 0.1 0 0.1 0 0.1 0.1 0.1 0 0.1 0.1 0.1 0 0 0.1 0.1 0.4 0.2 0.8 0.3 0.4 0.2 0.8 0.3 0.5 0.1 0.9 0.2 0.4 0 0.9 0z"/>
			</g>
		</g>
	</g>
</svg>