<svg id="My_Sites_Icon" data-name="My Sites_Icon" xmlns="http://www.w3.org/2000/svg" xmlns:xlink="http://www.w3.org/1999/xlink" width="18" height="18" viewBox="0 0 18 18">
  <defs>
    <linearGradient id="linear-gradient" x1="0.5" y1="1" x2="0.5" gradientUnits="objectBoundingBox">
      <stop offset="0" stop-color="#fff" stop-opacity="0.588"/>
      <stop offset="1" stop-color="#fff"/>
    </linearGradient>
    <clipPath id="clip-path">
      <rect id="Rectangle_48074" data-name="Rectangle 48074" width="18" height="18" fill="url(#linear-gradient)"/>
    </clipPath>
  </defs>
  <g id="My_Sites_Icon-2" data-name="My Sites_Icon" clip-path="url(#clip-path)">
    <g id="design_system_icons-69" data-name="design system icons-69" transform="translate(2.454 3.273)">
      <path id="Path_169919" data-name="Path 169919" d="M20.918,15.861l-4.659-4.539a2.344,2.344,0,0,0-3.285,0L8.316,15.861a.783.783,0,0,0-.09,1.045.735.735,0,0,0,.567.269.655.655,0,0,0,.508-.209L14.02,12.4a.847.847,0,0,1,1.195,0L19.9,16.966a.768.768,0,0,0,1.1-.06A.814.814,0,0,0,20.918,15.861Z" transform="translate(-8.067 -10.65)" fill="#fff"/>
      <path id="Path_169920" data-name="Path 169920" d="M23.579,23.441l-.448-.448-3.584-3.614a.577.577,0,0,0-.836,0l-3.584,3.614-.448.448a.59.59,0,0,0-.179.418v3.733a.6.6,0,0,0,.6.6h8.063a.6.6,0,0,0,.6-.6V23.859A.59.59,0,0,0,23.579,23.441Zm-5.644,2.3V23.351h2.389V25.74Z" transform="translate(-12.579 -16.647)" fill="#fff"/>
    </g>
  </g>
</svg>
