<svg width="16" height="16" viewBox="0 0 16 16" fill="none" xmlns="http://www.w3.org/2000/svg">
<g clip-path="url(#clip0_60_189)">
<path d="M13.0708 7.99844L15.6308 6.49844C15.8308 6.37844 15.9508 6.16844 15.9608 5.93844C15.9608 5.70844 15.8408 5.48844 15.6408 5.36844L8.00078 0.898438L0.370781 5.36844C0.170781 5.48844 0.0507812 5.69844 0.0507812 5.92844C0.0507812 6.15844 0.170781 6.37844 0.370781 6.48844L2.93078 7.99844L0.370781 9.49844C0.170781 9.61844 0.0507812 9.82844 0.0507812 10.0584C0.0507812 10.2884 0.170781 10.5084 0.370781 10.6184L8.00078 15.0984L15.6308 10.6284C15.8308 10.5084 15.9508 10.2984 15.9508 10.0684C15.9508 9.83844 15.8308 9.61844 15.6308 9.50844L13.0708 7.99844ZM8.00078 2.16844L14.4108 5.92844L8.00078 9.69844L1.59078 5.93844L8.00078 2.16844ZM8.00078 13.8284L1.59078 10.0684L4.02078 8.63844L8.00078 10.9684L11.9808 8.62844L14.4108 10.0584L8.00078 13.8284Z" fill="#9CA1A7"/>
</g>
<defs>
<clipPath id="clip0_60_189">
<rect width="16" height="16" fill="white"/>
</clipPath>
</defs>
</svg>
