<svg width="44" height="44" viewBox="0 0 44 44" fill="none" xmlns="http://www.w3.org/2000/svg">
<mask id="mask0_93_278" style="mask-type:luminance" maskUnits="userSpaceOnUse" x="0" y="0" width="44" height="44">
<path d="M44 0H0V44H44V0Z" fill="white"/>
</mask>
<g mask="url(#mask0_93_278)">
<path d="M15.0162 39.7851C14.1924 37.2427 12.7794 34.931 10.8924 33.0385C9.00182 31.1526 6.69275 29.7397 4.15306 28.9147C3.99325 28.865 3.85352 28.7654 3.7543 28.6306C3.65508 28.4958 3.60156 28.3329 3.60156 28.1655C3.60156 27.9981 3.65508 27.8351 3.7543 27.7003C3.85352 27.5655 3.99325 27.466 4.15306 27.4163C6.69211 26.5902 9.00033 25.1764 10.8899 23.29C12.7794 21.3999 14.1935 19.0886 15.0162 16.5458C15.0687 16.3873 15.1698 16.2494 15.3052 16.1516C15.4406 16.0539 15.6033 16.0013 15.7703 16.0013C15.9373 16.0013 16.1 16.0539 16.2354 16.1516C16.3707 16.2494 16.4719 16.3873 16.5244 16.5458C17.3458 19.0876 18.7586 21.3983 20.6466 23.288C22.5346 25.1777 24.844 26.5925 27.3851 27.4163C27.5415 27.4656 27.6784 27.5631 27.7763 27.6947C27.8741 27.8264 27.928 27.9855 27.9302 28.1496C27.9296 28.3159 27.8776 28.478 27.7814 28.6137C27.6851 28.7493 27.5492 28.8519 27.3924 28.9074C24.853 29.7358 22.5451 31.1521 20.6566 33.041C18.768 34.93 17.3522 37.2382 16.5244 39.7778C16.4719 39.9363 16.3707 40.0742 16.2354 40.172C16.1 40.2697 15.9373 40.3223 15.7703 40.3223C15.6033 40.3223 15.4406 40.2697 15.3052 40.172C15.1698 40.0742 15.0687 39.9363 15.0162 39.7778V39.7851ZM32.6162 17.7436C32.1232 16.2439 31.2841 14.8814 30.1668 13.7662C29.0496 12.6511 27.6854 11.8146 26.1848 11.3245C26.0863 11.299 25.9989 11.2414 25.9366 11.1609C25.8743 11.0804 25.8405 10.9814 25.8405 10.8796C25.8405 10.7778 25.8743 10.6788 25.9366 10.5983C25.9989 10.5178 26.0863 10.4602 26.1848 10.4347C27.688 9.94569 29.0541 9.10807 30.1717 7.99026C31.2822 6.86895 32.1122 5.50124 32.5942 3.99848C32.6228 3.90173 32.6823 3.81695 32.7634 3.75696C32.8446 3.69698 32.943 3.66506 33.0439 3.66604C33.1435 3.66599 33.2403 3.69843 33.3197 3.75843C33.3991 3.81844 33.4568 3.90272 33.4839 3.99848C33.9734 5.50354 34.8109 6.87197 35.9284 7.9927C37.0468 9.11312 38.416 9.95105 39.9226 10.4371C40.0212 10.4627 40.1085 10.5202 40.1708 10.6007C40.2332 10.6813 40.267 10.7802 40.267 10.882C40.267 10.9839 40.2332 11.0828 40.1708 11.1633C40.1085 11.2439 40.0212 11.3014 39.9226 11.3269C38.4225 11.8164 37.0591 12.6528 35.9429 13.7682C34.8267 14.8835 33.9893 16.2463 33.4986 17.746C33.4741 17.8445 33.4174 17.932 33.3374 17.9945C33.2575 18.057 33.1589 18.091 33.0574 18.091C32.9559 18.091 32.8573 18.057 32.7774 17.9945C32.6974 17.932 32.6407 17.8445 32.6162 17.746V17.7436Z" fill="#3339F1"/>
</g>
</svg>
