<svg width="12" height="12" viewBox="0 0 12 12" fill="none" xmlns="http://www.w3.org/2000/svg">
<path d="M10.9897 5.56617C9.86642 5.08049 8.83913 4.36016 8.0207 3.48704C7.73283 3.17599 7.46754 2.84311 7.23048 2.49386C7.17968 2.42292 7.12888 2.34106 7.08372 2.26467C6.93697 2.59209 6.76199 2.90859 6.57008 3.20873C6.79022 3.52524 7.03857 3.82537 7.30386 4.10914C7.99812 4.8513 8.8222 5.48977 9.72531 5.99181C8.8222 6.49386 7.99812 7.13233 7.30386 7.87994C6.79586 8.4311 6.3556 9.03683 5.99436 9.68076C5.62747 9.03683 5.19285 8.4311 4.67921 7.87994C4.22766 7.39427 3.71402 6.94679 3.16087 6.55934C2.95767 6.41746 2.74318 6.28104 2.52869 6.15007C2.43838 6.0955 2.34807 6.04638 2.25776 5.99181C2.30856 5.96453 2.365 5.93724 2.4158 5.9045C2.44403 5.88813 2.47225 5.87176 2.50611 5.84993C2.50611 5.84993 2.51176 5.84993 2.5174 5.84447C2.87865 5.63711 3.22295 5.40246 3.55597 5.14598C3.64064 5.08049 3.72531 5.00955 3.80997 4.94407C4.01881 4.76944 4.22766 4.57299 4.4365 4.36562C4.52681 4.28377 4.60583 4.19645 4.68485 4.1146C4.75823 4.03274 4.83725 3.94543 4.90499 3.86357C5.10818 3.63438 5.31138 3.38336 5.492 3.12142C5.56538 3.01774 5.63311 2.91405 5.70649 2.81037C5.77987 2.69577 5.85325 2.58117 5.92098 2.45566C6.15804 2.04638 6.3556 1.61528 6.49671 1.16235C6.47977 1.12415 6.46284 1.08595 6.44591 1.04775L6 0L5.54845 1.04775C5.16463 1.94816 4.63405 2.77217 3.96237 3.4925C3.14393 4.37108 2.1223 5.0914 0.993415 5.57162L0 5.99727L0.993415 6.42838C2.1223 6.91405 3.14393 7.63438 3.96237 8.5075C4.62841 9.22783 5.16463 10.0464 5.54845 10.9523L6 12L6.44591 10.9523C6.82973 10.0518 7.3603 9.22783 8.03198 8.5075C8.85042 7.62892 9.8777 6.90314 11.0009 6.42838L12 5.99727L11.0009 5.57162L10.9897 5.56617Z" fill="white"/>
</svg>
