<svg width="19" height="18" viewBox="0 0 19 18" fill="none" xmlns="http://www.w3.org/2000/svg">
<path d="M13.0129 12.0007C11.7434 12.4552 10.474 13.1823 9.47662 14.1822C8.47922 15.182 7.66316 16.4545 7.30047 17.7271C7.2098 17.9089 7.11913 17.9998 6.93778 17.9998C6.75643 17.9998 6.57509 17.9089 6.48442 17.7271C6.03105 16.4545 5.30567 15.182 4.30826 14.1822C3.31086 13.1823 2.04144 12.4552 0.772019 12.0007C0.409327 11.9098 0.409327 11.3644 0.772019 11.1827C2.04144 10.7282 3.31086 10.001 4.30826 9.00118C5.30567 8.00133 6.12172 6.72881 6.48442 5.45628C6.57509 5.27449 6.75643 5.18359 6.93778 5.18359C7.11913 5.18359 7.2098 5.27449 7.30047 5.45628C7.75384 6.72881 8.47922 8.00133 9.47662 9.00118C10.474 10.001 11.7434 10.8191 13.0129 11.1827C13.3756 11.3644 13.3756 11.9098 13.0129 12.0007Z" fill="white"/>
<path d="M18.3641 3.99937C17.548 4.27205 16.8227 4.72653 16.2786 5.2719C15.6439 5.90816 15.1905 6.63531 15.0092 7.36247C15.0092 7.45337 14.8279 7.54426 14.7372 7.54426C14.6465 7.54426 14.5558 7.45337 14.4652 7.36247C14.1931 6.54442 13.7398 5.81726 13.1957 5.2719C12.561 4.63563 11.8356 4.18116 11.1103 3.99937C10.8382 3.90847 10.8382 3.63579 11.1103 3.5449C11.9263 3.27221 12.6517 2.81774 13.1957 2.27237C13.8305 1.6361 14.2838 0.908944 14.4652 0.181787C14.4652 0.0908919 14.6465 0 14.7372 0C14.8279 0 14.9185 0.0908919 15.0092 0.181787C15.2812 0.999839 15.7346 1.727 16.2786 2.27237C16.9133 2.90863 17.6387 3.36311 18.3641 3.5449C18.5454 3.5449 18.5454 3.90847 18.3641 3.99937Z" fill="white"/>
</svg>
