<svg width="32" height="32" viewBox="0 0 32 32" fill="none" xmlns="http://www.w3.org/2000/svg">
<path d="M21.7503 20.915C19.559 21.6296 17.5674 22.8516 15.9376 24.4813C14.3079 26.1111 13.0859 28.1027 12.3713 30.294C12.3261 30.4302 12.2391 30.5488 12.1227 30.6328C12.0063 30.7168 11.8664 30.762 11.7228 30.762C11.5793 30.762 11.4394 30.7168 11.323 30.6328C11.2066 30.5488 11.1196 30.4302 11.0744 30.294C10.3606 28.1 9.13546 26.1072 7.49989 24.48C5.87538 22.8517 3.88845 21.6311 1.70166 20.9181C1.56383 20.8746 1.44348 20.7882 1.35805 20.6716C1.27262 20.555 1.22656 20.4142 1.22656 20.2697C1.22656 20.1251 1.27262 19.9843 1.35805 19.8677C1.44348 19.7511 1.56383 19.6648 1.70166 19.6212C3.88876 18.9089 5.87583 17.6883 7.49989 16.0594C9.13642 14.4329 10.3618 12.4398 11.0744 10.2453C11.1196 10.1091 11.2066 9.99057 11.323 9.90657C11.4394 9.82256 11.5793 9.77734 11.7228 9.77734C11.8664 9.77734 12.0063 9.82256 12.1227 9.90657C12.2391 9.99057 12.3261 10.1091 12.3713 10.2453C13.0811 12.4363 14.2996 14.428 15.927 16.0576C17.5544 17.6872 19.5445 18.9084 21.7345 19.6212C21.8696 19.6672 21.9869 19.7542 22.07 19.8703C22.1531 19.9863 22.1978 20.1254 22.1978 20.2681C22.1978 20.4108 22.1531 20.5499 22.07 20.6659C21.9869 20.7819 21.8696 20.869 21.7345 20.915H21.7503Z" fill="url(#paint0_linear_60_264)"/>
<path d="M30.4543 7.8483C29.1604 8.27076 27.9845 8.99254 27.0221 9.95496C26.0597 10.9174 25.3379 12.0933 24.9154 13.3871C24.8935 13.4719 24.844 13.547 24.7747 13.6006C24.7054 13.6542 24.6203 13.6833 24.5327 13.6833C24.4451 13.6833 24.36 13.6542 24.2907 13.6006C24.2214 13.547 24.1719 13.4719 24.1499 13.3871C23.7261 12.094 23.0039 10.9188 22.0417 9.95658C21.0794 8.99435 19.9042 8.27212 18.6111 7.8483C18.5249 7.82746 18.4482 7.77822 18.3933 7.70851C18.3384 7.63881 18.3086 7.55267 18.3086 7.46397C18.3086 7.37526 18.3384 7.28913 18.3933 7.21942C18.4482 7.14971 18.5249 7.10048 18.6111 7.07963C19.9048 6.66322 21.0811 5.9455 22.0432 4.98556C23.0059 4.01764 23.7247 2.83477 24.1404 1.53446C24.1624 1.44967 24.2119 1.37458 24.2812 1.32097C24.3505 1.26737 24.4356 1.23828 24.5232 1.23828C24.6108 1.23828 24.6959 1.26737 24.7652 1.32097C24.8345 1.37458 24.884 1.44967 24.906 1.53446C25.3286 2.83595 26.0539 4.01867 27.0222 4.98556C27.9845 5.95189 29.1632 6.67514 30.4606 7.09545C30.5468 7.11629 30.6236 7.16553 30.6784 7.23523C30.7333 7.30494 30.7631 7.39107 30.7631 7.47978C30.7631 7.56849 30.7333 7.65462 30.6784 7.72433C30.6236 7.79404 30.5468 7.84327 30.4606 7.86412L30.4543 7.8483Z" fill="url(#paint1_linear_60_264)"/>
<path opacity="0.5" d="M21.7073 20.9117C19.516 21.6263 17.5244 22.8483 15.8946 24.4781C14.2649 26.1079 13.0429 28.0994 12.3283 30.2907C12.2882 30.4198 12.2099 30.5337 12.1037 30.6172C11.9975 30.7008 11.8685 30.7502 11.7336 30.7589C11.7336 30.7083 11.7178 9.97003 11.7336 9.76758C11.8685 9.77623 11.9975 9.82562 12.1037 9.90922C12.2099 9.99281 12.2882 10.1067 12.3283 10.2357C13.0391 12.4277 14.259 14.4201 15.8881 16.0498C17.5173 17.6795 19.5093 18.9001 21.701 19.6116C21.8396 19.6553 21.9606 19.742 22.0465 19.8592C22.1324 19.9764 22.1788 20.1179 22.1788 20.2632C22.1788 20.4085 22.1324 20.5501 22.0465 20.6672C21.9606 20.7844 21.8396 20.8712 21.701 20.9149L21.7073 20.9117Z" fill="url(#paint2_linear_60_264)"/>
<path opacity="0.5" d="M30.4568 7.8481C29.1629 8.27056 27.987 8.99233 27.0246 9.95475C26.0621 10.9172 25.3404 12.0931 24.9179 13.3869C24.8927 13.4684 24.8418 13.5395 24.7728 13.5897C24.7038 13.6399 24.6204 13.6664 24.5352 13.6653V1.25589C24.6204 1.2548 24.7038 1.28132 24.7728 1.33149C24.8418 1.38165 24.8927 1.45278 24.9179 1.53426C25.3404 2.83066 26.0634 4.00883 27.0278 4.97271C27.9902 5.93903 29.1688 6.66228 30.4662 7.08259C30.5525 7.10344 30.6292 7.15267 30.684 7.22238C30.7389 7.29208 30.7687 7.37822 30.7687 7.46692C30.7687 7.55563 30.7389 7.64176 30.684 7.71147C30.6292 7.78118 30.5525 7.83041 30.4662 7.85126L30.4568 7.8481Z" fill="url(#paint3_linear_60_264)"/>
<defs>
<linearGradient id="paint0_linear_60_264" x1="11.7122" y1="9.77734" x2="11.7122" y2="30.762" gradientUnits="userSpaceOnUse">
<stop stop-color="#3339F1" stop-opacity="0.4"/>
<stop offset="1" stop-color="#3339F1"/>
</linearGradient>
<linearGradient id="paint1_linear_60_264" x1="24.5358" y1="1.23828" x2="24.5358" y2="13.6833" gradientUnits="userSpaceOnUse">
<stop stop-color="#3339F1" stop-opacity="0.4"/>
<stop offset="1" stop-color="#3339F1"/>
</linearGradient>
<linearGradient id="paint2_linear_60_264" x1="16.9527" y1="9.76758" x2="16.9527" y2="30.7589" gradientUnits="userSpaceOnUse">
<stop stop-color="#3339F1" stop-opacity="0.4"/>
<stop offset="1" stop-color="#3339F1"/>
</linearGradient>
<linearGradient id="paint3_linear_60_264" x1="27.6519" y1="1.25586" x2="27.6519" y2="13.6653" gradientUnits="userSpaceOnUse">
<stop stop-color="#3339F1" stop-opacity="0.4"/>
<stop offset="1" stop-color="#3339F1"/>
</linearGradient>
</defs>
</svg>
