<svg width="20" height="20" viewBox="0 0 20 20" fill="none" xmlns="http://www.w3.org/2000/svg">
<path d="M10 2C8.41775 2 6.87103 2.46919 5.55544 3.34824C4.23985 4.22729 3.21447 5.47672 2.60897 6.93853C2.00347 8.40034 1.84504 10.0089 2.15372 11.5607C2.4624 13.1126 3.22433 14.538 4.34315 15.6569C5.46197 16.7757 6.88743 17.5376 8.43928 17.8463C9.99113 18.155 11.5997 17.9965 13.0615 17.391C14.5233 16.7855 15.7727 15.7602 16.6518 14.4446C17.5308 13.129 18 11.5822 18 10C18 7.87827 17.1571 5.84344 15.6569 4.34315C14.1566 2.84285 12.1217 2 10 2ZM12.9698 12.2329C13.065 12.3318 13.1181 12.4637 13.1181 12.6009C13.1181 12.7381 13.065 12.87 12.9698 12.9689C12.9215 13.0172 12.8641 13.0555 12.8009 13.0816C12.7378 13.1077 12.6701 13.1211 12.6018 13.1211C12.5333 13.1225 12.4652 13.1097 12.4019 13.0835C12.3385 13.0573 12.2813 13.0183 12.2338 12.9689L10 10.7405L7.768 12.9689C7.72049 13.0183 7.66326 13.0573 7.59992 13.0835C7.53658 13.1097 7.46851 13.1225 7.39998 13.1211C7.33165 13.1211 7.26398 13.1077 7.20083 13.0816C7.13769 13.0555 7.0803 13.0172 7.03196 12.9689C6.93681 12.87 6.88367 12.7381 6.88367 12.6009C6.88367 12.4637 6.93681 12.3318 7.03196 12.2329L9.26396 10.0009L7.03196 7.77596C6.93681 7.67707 6.88367 7.54517 6.88367 7.40794C6.88367 7.27071 6.93681 7.13881 7.03196 7.03992C7.07972 6.99059 7.13691 6.95136 7.20013 6.92457C7.26335 6.89778 7.33132 6.88397 7.39998 6.88397C7.46864 6.88397 7.53661 6.89778 7.59983 6.92457C7.66305 6.95136 7.72024 6.99059 7.768 7.03992L10 9.26396L12.232 7.03992C12.2798 6.99059 12.337 6.95136 12.4002 6.92457C12.4634 6.89778 12.5314 6.88397 12.6 6.88397C12.6687 6.88397 12.7366 6.89778 12.7999 6.92457C12.8631 6.95136 12.9203 6.99059 12.968 7.03992C13.0632 7.13881 13.1163 7.27071 13.1163 7.40794C13.1163 7.54517 13.0632 7.67707 12.968 7.77596L10.736 10L12.9698 12.2329Z" fill="black" fill-opacity="0.2"/>
</svg>
