<svg width="92" height="112" viewBox="0 0 92 112" fill="none" xmlns="http://www.w3.org/2000/svg">
<path d="M84.3327 86.1962H88.166V89.9707H84.3327V86.1962ZM84.3327 82.4217H88.166V78.6471H84.3327V82.4217ZM84.3327 74.8726H88.166V71.0981H84.3327V74.8726ZM84.3327 67.3236H88.166V63.5491H84.3327V67.3236ZM84.3327 59.7746H88.166V56.0001H84.3327V59.7746ZM88.166 48.4511H84.3327V52.2256H88.166V48.4511ZM7.66602 89.9707H11.4993V86.1962H7.66602V89.9707ZM7.66602 82.4217H11.4993V78.6471H7.66602V82.4217ZM7.66602 74.8726H11.4993V71.0981H7.66602V74.8726ZM7.66602 67.3236H11.4993V63.5491H7.66602V67.3236ZM7.66602 59.7746H11.4993V56.0001H7.66602V59.7746ZM11.4993 48.4511H7.66602V52.2256H11.4993V48.4511ZM68.9994 67.3236H72.8327V63.5491H68.9994V67.3236ZM68.9994 59.7746H72.8327V56.0001H68.9994V59.7746ZM72.8327 48.4511H68.9994V52.2256H72.8327V48.4511ZM22.9993 67.3236H26.8327V63.5491H22.9993V67.3236ZM22.9993 59.7746H26.8327V56.0001H22.9993V59.7746ZM26.8327 48.4511H22.9993V52.2256H26.8327V48.4511ZM71.8744 71.0981L89.1244 101.294H7.66602L24.916 71.0981H71.8744ZM27.1585 74.8726L25.0042 78.6471H40.625L56.6752 86.1962H76.1025L69.6319 74.8726H27.1585ZM82.5694 97.5197L78.2569 89.9707H55.805L39.7549 82.4217H22.9993V82.1537L14.221 97.5197H82.5694ZM71.8744 14.4805L89.1244 44.6765H7.66602L24.916 14.4805H71.8744ZM49.8327 18.255V26.3626L56.6752 29.5785H76.1025L69.6319 18.255H49.8327ZM27.1585 18.255L25.0003 22.0295H40.6212L45.9994 24.5584V18.255H27.1585ZM45.9994 40.902V28.7406L39.751 25.804H22.9993V25.536L14.221 40.902H45.9994ZM82.5694 40.902L78.2569 33.353H55.805L49.8327 30.5448V40.902H82.5694Z" fill="white"/>
</svg>
