<svg width="18" height="18" viewBox="0 0 18 18" fill="none" xmlns="http://www.w3.org/2000/svg">
<path d="M9.00226 1.80078C4.95669 1.80078 1.68856 5.1481 1.80373 9.21526C1.91171 12.9657 5.04307 16.0899 8.7935 16.1978C12.8607 16.313 16.2008 13.0377 16.2008 8.99931C16.2008 5.03292 12.9686 1.80078 9.00226 1.80078ZM9.83009 11.8787C9.83009 12.3394 9.45576 12.7065 9.00226 12.7065C8.54155 12.7065 8.17443 12.3394 8.17443 11.8787V8.62498C8.17443 8.16428 8.54155 7.79715 9.00226 7.79715C9.45576 7.79715 9.83009 8.16428 9.83009 8.62498V11.8787ZM9.00226 6.94773C8.54155 6.94773 8.17443 6.5806 8.17443 6.1199C8.17443 5.66639 8.54155 5.29207 9.00226 5.29207C9.45576 5.29207 9.83009 5.66639 9.83009 6.1199C9.83009 6.5806 9.45576 6.94773 9.00226 6.94773Z" fill="black"/>
</svg>
