<svg width="18" height="18" viewBox="0 0 18 18" fill="none" xmlns="http://www.w3.org/2000/svg">
<g clip-path="url(#clip0_93_286)">
<path d="M3.36979 6.30491L8.771 0.670124C8.80394 0.636029 8.84316 0.608961 8.88639 0.590487C8.92963 0.572012 8.97601 0.5625 9.02286 0.5625C9.06971 0.5625 9.1161 0.572012 9.15933 0.590487C9.20256 0.608961 9.24179 0.636029 9.27473 0.670124L17.0558 8.83607C17.122 8.90676 17.1589 9.00089 17.1589 9.09879C17.1589 9.1967 17.122 9.29083 17.0558 9.36152L17.0098 9.40905C16.8578 9.56809 16.6762 9.69444 16.4757 9.78071C16.2753 9.86697 16.0601 9.91141 15.8426 9.91141C15.6252 9.91141 15.4099 9.86697 15.2095 9.78071C15.0091 9.69444 14.8275 9.56809 14.6754 9.40905L9.18286 3.67868C9.14992 3.64459 9.1107 3.61752 9.06746 3.59905C9.02423 3.58057 8.97785 3.57106 8.931 3.57106C8.88415 3.57106 8.83776 3.58057 8.79453 3.59905C8.75129 3.61752 8.71207 3.64459 8.67913 3.67868L5.61234 6.87841C5.46026 7.03745 5.27868 7.16381 5.07825 7.25007C4.87781 7.33634 4.66257 7.38077 4.44513 7.38077C4.2277 7.38077 4.01246 7.33634 3.81202 7.25007C3.61159 7.16381 3.43001 7.03745 3.27793 6.87841C3.24624 6.78242 3.23805 6.67994 3.25407 6.57995C3.27008 6.47996 3.30982 6.38552 3.36979 6.30491Z" fill="black"/>
<path d="M14.6788 11.535L9.2776 17.1703C9.24466 17.2044 9.20544 17.2315 9.1622 17.25C9.11897 17.2684 9.07259 17.2779 9.02573 17.2779C8.97888 17.2779 8.9325 17.2684 8.88927 17.25C8.84603 17.2315 8.80681 17.2044 8.77387 17.1703L0.946895 9.00437C0.880704 8.93368 0.84375 8.83956 0.84375 8.74165C0.84375 8.64374 0.880704 8.54961 0.946895 8.47892C1.09898 8.31988 1.28056 8.19353 1.48099 8.10726C1.68142 8.021 1.89667 7.97656 2.1141 7.97656C2.33154 7.97656 2.54678 8.021 2.74721 8.10726C2.94764 8.19353 3.12923 8.31988 3.28131 8.47892L8.72845 14.1618C8.76139 14.1959 8.80061 14.2229 8.84384 14.2414C8.88708 14.2599 8.93346 14.2694 8.98031 14.2694C9.02716 14.2694 9.07355 14.2599 9.11678 14.2414C9.16002 14.2229 9.19924 14.1959 9.23218 14.1618L12.299 10.962C12.451 10.803 12.6326 10.6766 12.8331 10.5904C13.0335 10.5041 13.2487 10.4597 13.4662 10.4597C13.6836 10.4597 13.8989 10.5041 14.0993 10.5904C14.2997 10.6766 14.4813 10.803 14.6334 10.962C14.6739 10.9961 14.7073 11.0381 14.7316 11.0856C14.756 11.1331 14.7707 11.1852 14.7749 11.2387C14.7792 11.2921 14.7728 11.3459 14.7563 11.3968C14.7398 11.4478 14.7134 11.4947 14.6788 11.535Z" fill="black"/>
<path d="M9.55742 8.75431L8.20546 7.36964C8.0255 7.16713 7.92578 6.90324 7.92578 6.62951C7.92578 6.35578 8.0255 6.09188 8.20546 5.88938L8.25191 5.84185C8.3442 5.74017 8.45598 5.65907 8.58029 5.60361C8.70459 5.54816 8.83873 5.51953 8.97433 5.51953C9.10993 5.51953 9.24407 5.54816 9.36838 5.60361C9.49268 5.65907 9.60447 5.74017 9.69675 5.84185L12.4936 8.7073C12.5608 8.77742 12.5985 8.87176 12.5985 8.97002C12.5985 9.06829 12.5608 9.16263 12.4936 9.23275L9.78862 12.001C9.69633 12.1027 9.58454 12.1838 9.46024 12.2393C9.33594 12.2947 9.2018 12.3234 9.0662 12.3234C8.9306 12.3234 8.79645 12.2947 8.67215 12.2393C8.54785 12.1838 8.43606 12.1027 8.34377 12.001C8.24452 11.9064 8.16537 11.7918 8.11125 11.6645C8.05713 11.5371 8.0292 11.3998 8.0292 11.2609C8.0292 11.1221 8.05713 10.9847 8.11125 10.8574C8.16537 10.73 8.24452 10.6155 8.34377 10.5208L9.60234 9.23118C9.65126 9.15913 9.6736 9.07165 9.66538 8.98431C9.65715 8.89697 9.6189 8.81547 9.55742 8.75431Z" fill="black"/>
<path d="M7.9444 8.60831L7.47844 8.13091C7.38615 8.02924 7.27436 7.94813 7.15006 7.89268C7.02576 7.83722 6.89161 7.80859 6.75601 7.80859C6.62041 7.80859 6.48627 7.83722 6.36197 7.89268C6.23767 7.94813 6.12588 8.02924 6.03359 8.13091C5.85363 8.33341 5.75391 8.59731 5.75391 8.87104C5.75391 9.14477 5.85363 9.40866 6.03359 9.61117C6.12588 9.71284 6.23767 9.79394 6.36197 9.8494C6.48627 9.90486 6.62041 9.93349 6.75601 9.93349C6.89161 9.93349 7.02576 9.90486 7.15006 9.8494C7.27436 9.79394 7.38615 9.71284 7.47844 9.61117L7.9444 9.13377C8.01167 9.06364 8.04935 8.9693 8.04935 8.87104C8.04935 8.77277 8.01167 8.67843 7.9444 8.60831Z" fill="black"/>
</g>
<defs>
<clipPath id="clip0_93_286">
<rect width="18" height="18" fill="white"/>
</clipPath>
</defs>
</svg>
