<svg width="16" height="16" viewBox="0 0 16 16" fill="none" xmlns="http://www.w3.org/2000/svg">
<path d="M7.23438 2.32422C9.94344 2.32422 12.1445 4.50865 12.1445 7.20898C12.1444 8.36446 11.7399 9.42408 11.0664 10.2598L13.5342 12.8242L12.8115 13.5195L10.3613 10.9736C9.51159 11.6726 8.42197 12.0928 7.23438 12.0928C4.5255 12.0927 2.32446 9.90907 2.32422 7.20898C2.32422 4.50869 4.52536 2.32428 7.23438 2.32422ZM7.23438 3.32812C5.07395 3.32818 3.32812 5.06846 3.32812 7.20898C3.32837 9.34931 5.07411 11.0898 7.23438 11.0898C9.39469 11.0898 11.1414 9.34935 11.1416 7.20898C11.1416 5.06842 9.39485 3.32812 7.23438 3.32812Z" fill="#767680" fill-opacity="0.22"/>
</svg>
