<svg width="16" height="16" viewBox="0 0 16 16" fill="none" xmlns="http://www.w3.org/2000/svg">
<g id="Close_Icon">
<g id="Mask Group 1282">
<mask id="mask0_3506_4236" style="mask-type:luminance" maskUnits="userSpaceOnUse" x="0" y="0" width="16" height="16">
<path id="Path 169840" fill-rule="evenodd" clip-rule="evenodd" d="M0 0H16V16H0V0Z" fill="white"/>
</mask>
<g mask="url(#mask0_3506_4236)">
<path id="Path 169841" fill-rule="evenodd" clip-rule="evenodd" d="M6.92164 12.7572L6.9221 9.07754L3.24185 9.07737C2.95326 9.07974 2.68246 8.96729 2.47743 8.76226C2.27286 8.55769 2.15995 8.28642 2.16214 7.99674C2.16266 7.71091 2.27367 7.44166 2.4776 7.23773C2.67924 7.0361 2.94843 6.92411 3.23512 6.9217L3.24007 6.92112L6.92165 6.9217L6.92108 3.24011C6.92326 2.64567 7.40663 2.1623 7.999 2.15989L8.00797 2.16059C8.29454 2.16357 8.56189 2.27625 8.76266 2.47702C8.96493 2.67929 9.0768 2.9486 9.0783 3.23551L9.07853 3.2385L9.07841 6.92123L12.7675 6.92008C13.0545 6.92353 13.3224 7.03678 13.5237 7.23802C13.7244 7.43879 13.8371 7.70608 13.84 7.99265L13.8407 8.00163C13.8377 8.59342 13.3544 9.0768 12.7621 9.08024L9.07893 9.07897L9.07852 12.766C9.07652 13.0522 8.96453 13.3214 8.76151 13.5244C8.55711 13.7288 8.28787 13.8398 8.00089 13.8382C7.71329 13.8397 7.44243 13.7272 7.23843 13.5232C7.03283 13.3176 6.91993 13.0464 6.92165 12.7572L6.92164 12.7572Z" fill="black"/>
</g>
</g>
</g>
</svg>
