<svg id="Close_Icon" xmlns="http://www.w3.org/2000/svg" xmlns:xlink="http://www.w3.org/1999/xlink" width="12" height="12" viewBox="0 0 12 12">
  <defs>
    <clipPath id="clip-path">
      <path id="Path_169840" data-name="Path 169840" d="M0,0H12V12H0Z" fill="none"/>
    </clipPath>
  </defs>
  <g id="Mask_Group_1282" data-name="Mask Group 1282" clip-path="url(#clip-path)">
    <path id="Path_169841" data-name="Path 169841" d="M769.284,5103.429l-1.951-1.952-1.952,1.952a.808.808,0,0,1-1.381-.57.808.808,0,0,1,.234-.569l0,0,1.953-1.952-1.953-1.952a.814.814,0,0,1,0-1.145l.005,0a.809.809,0,0,1,1.138,0h0l1.953,1.953,1.956-1.957a.812.812,0,0,1,1.138,0l.005,0a.816.816,0,0,1,0,1.144l-1.954,1.953,1.955,1.956a.807.807,0,0,1,.234.57.809.809,0,0,1-1.383.569Z" transform="translate(3069.894 -4143.067) rotate(45)" fill="#f9f9f9"/>
  </g>
</svg>
