<svg width="12" height="12" viewBox="0 0 12 12" fill="none" xmlns="http://www.w3.org/2000/svg">
<g id="Group 175750" opacity="0.8">
<g id="Group 96022">
<g id="Group 96022_2">
<g id="Layer 2">
<g id="Layer 1">
<path id="Path 171728" d="M8.33694 7.99599C7.44677 8.28651 6.63772 8.78326 5.97565 9.44581C5.31357 10.1084 4.81718 10.918 4.52687 11.8088C4.5085 11.8642 4.47316 11.9124 4.42588 11.9465C4.37859 11.9807 4.32176 11.9991 4.26344 11.9991C4.20513 11.9991 4.1483 11.9807 4.10101 11.9465C4.05372 11.9124 4.01839 11.8642 4.00002 11.8088C3.71008 10.9169 3.21237 10.1068 2.54795 9.44525C1.88802 8.7833 1.08086 8.28711 0.192512 7.99728C0.136522 7.97957 0.0876289 7.94446 0.0529249 7.89706C0.0182209 7.84966 -0.000488281 7.79242 -0.000488281 7.73366C-0.000488281 7.6749 0.0182209 7.61766 0.0529249 7.57026C0.0876289 7.52286 0.136522 7.48776 0.192512 7.47004C1.08098 7.18048 1.8882 6.68425 2.54795 6.02208C3.21276 5.36087 3.71053 4.55064 4.00002 3.65852C4.01839 3.60313 4.05372 3.55495 4.10101 3.52079C4.1483 3.48664 4.20513 3.46826 4.26344 3.46826C4.32176 3.46826 4.37859 3.48664 4.42588 3.52079C4.47316 3.55495 4.5085 3.60313 4.52687 3.65852C4.81524 4.54918 5.31023 5.35888 5.97133 6.02135C6.63244 6.68383 7.44088 7.18027 8.33052 7.47004C8.3854 7.48872 8.43307 7.52412 8.46682 7.57129C8.50057 7.61845 8.51872 7.675 8.51872 7.73302C8.51872 7.79103 8.50057 7.84759 8.46682 7.89475C8.43307 7.94191 8.3854 7.97732 8.33052 7.99599H8.33694Z" fill="white"/>
<path id="Path 171729" d="M11.8747 2.68812C11.3491 2.85986 10.8714 3.15328 10.4805 3.54453C10.0895 3.93578 9.79628 4.41382 9.62466 4.9398C9.61573 4.97427 9.59562 5.0048 9.56747 5.02659C9.53933 5.04838 9.50475 5.0602 9.46917 5.0602C9.43359 5.0602 9.39901 5.04838 9.37087 5.02659C9.34272 5.0048 9.32261 4.97427 9.31368 4.9398C9.14151 4.41411 8.84812 3.93636 8.45723 3.54519C8.06634 3.15402 7.58893 2.86041 7.06362 2.68812C7.02859 2.67964 6.99743 2.65963 6.97515 2.63129C6.95286 2.60295 6.94073 2.56794 6.94073 2.53188C6.94073 2.49581 6.95286 2.4608 6.97515 2.43246C6.99743 2.40412 7.02859 2.38411 7.06362 2.37563C7.58917 2.20635 8.06703 1.91458 8.45786 1.52434C8.84893 1.13086 9.14095 0.649989 9.30983 0.121381C9.31876 0.0869113 9.33887 0.0563848 9.36701 0.0345927C9.39516 0.0128006 9.42973 0.000976563 9.46532 0.000976563C9.5009 0.000976562 9.53548 0.0128006 9.56362 0.0345927C9.59176 0.0563848 9.61188 0.0869113 9.62081 0.121381C9.7925 0.650469 10.0871 1.13128 10.4805 1.52434C10.8714 1.91718 11.3502 2.2112 11.8773 2.38206C11.9123 2.39054 11.9435 2.41055 11.9658 2.43889C11.9881 2.46723 12.0002 2.50224 12.0002 2.53831C12.0002 2.57437 11.9881 2.60938 11.9658 2.63772C11.9435 2.66606 11.9123 2.68607 11.8773 2.69455L11.8747 2.68812Z" fill="white"/>
<path id="Path 171730" opacity="0.5" d="M8.31574 7.99473C7.42557 8.28524 6.61652 8.78199 5.95444 9.44454C5.29237 10.1071 4.79598 10.9167 4.50567 11.8075C4.48939 11.86 4.45758 11.9063 4.41444 11.9403C4.3713 11.9743 4.31887 11.9943 4.26409 11.9979C4.26409 11.9773 4.25766 3.54666 4.26409 3.46436C4.31887 3.46787 4.3713 3.48795 4.41444 3.52194C4.45758 3.55592 4.48939 3.60221 4.50567 3.65468C4.79442 4.54577 5.28999 5.35573 5.9518 6.01824C6.6136 6.68074 7.42282 7.17694 8.31317 7.4662C8.36947 7.48397 8.41864 7.51923 8.45354 7.56687C8.48844 7.6145 8.50726 7.67204 8.50726 7.73111C8.50726 7.79018 8.48844 7.84771 8.45354 7.89535C8.41864 7.94298 8.36947 7.97825 8.31317 7.99601L8.31574 7.99473Z" fill="white"/>
<path id="Path 171731" opacity="0.5" d="M11.8738 2.6887C11.3482 2.86044 10.8705 3.15386 10.4795 3.54511C10.0886 3.93636 9.79537 4.4144 9.62375 4.94038C9.6135 4.9735 9.59281 5.00242 9.56479 5.02281C9.53677 5.04321 9.50291 5.05399 9.46826 5.05354V0.00880221C9.50291 0.00835884 9.53677 0.0191388 9.56479 0.0395333C9.59281 0.0599278 9.6135 0.0888434 9.62375 0.121965C9.79539 0.648984 10.0891 1.12794 10.4809 1.51978C10.8718 1.91262 11.3506 2.20664 11.8777 2.3775C11.9127 2.38598 11.9439 2.40599 11.9661 2.43433C11.9884 2.46267 12.0005 2.49768 12.0005 2.53375C12.0005 2.56981 11.9884 2.60482 11.9661 2.63316C11.9439 2.6615 11.9127 2.68151 11.8777 2.68999L11.8738 2.6887Z" fill="white"/>
</g>
</g>
</g>
</g>
</g>
</svg>
