<svg width="22" height="22" viewBox="0 0 22 22" fill="none" xmlns="http://www.w3.org/2000/svg">
<g id="Loader_Small 2" clip-path="url(#clip0_3558_1544)">
<path id="Subtraction 1" d="M11.0001 21.3957C8.24278 21.3926 5.59928 20.296 3.64956 18.3463C1.69985 16.3966 0.603156 13.753 0.600098 10.9957C0.603156 8.23839 1.69985 5.59483 3.64956 3.64512C5.59928 1.6954 8.24278 0.598762 11.0001 0.595703C13.7574 0.598762 16.4009 1.6954 18.3506 3.64512C20.3003 5.59483 21.397 8.23839 21.4001 10.9957C21.397 13.753 20.3003 16.3966 18.3506 18.3463C16.4009 20.296 13.7574 21.3926 11.0001 21.3957ZM11.0001 2.90681C8.85545 2.90896 6.79926 3.7618 5.28276 5.2783C3.76627 6.7948 2.91335 8.85105 2.91121 10.9957C2.91366 13.1403 3.76667 15.1963 5.2831 16.7127C6.79953 18.2291 8.85554 19.0821 11.0001 19.0846C13.1447 19.0821 15.2007 18.2291 16.7171 16.7127C18.2335 15.1963 19.0865 13.1403 19.089 10.9957C19.0865 8.85115 18.2335 6.79515 16.7171 5.27872C15.2007 3.76229 13.1447 2.90926 11.0001 2.90681Z" fill="#3339F1" fill-opacity="0.1"/>
<path id="Intersection 2" d="M19.0881 10.9968C19.0856 8.85228 18.2326 6.79628 16.7162 5.27985C15.1998 3.76342 13.1438 2.91039 10.9992 2.90794V2.87564C10.7348 2.84391 10.491 2.71691 10.3134 2.51848C10.1359 2.32005 10.0366 2.06366 10.0343 1.79738C10.0304 1.51614 10.1245 1.24244 10.3006 1.02311C10.4767 0.803784 10.7237 0.652629 10.9992 0.595703C13.7565 0.598762 16.4 1.6954 18.3497 3.64512C20.2994 5.59483 21.3961 8.23839 21.3992 10.9957H21.383C21.3709 11.2858 21.2481 11.5602 21.0398 11.7625C20.8315 11.9648 20.5536 12.0794 20.2633 12.083H20.217C19.9275 12.0747 19.6514 11.959 19.4427 11.7581C19.2339 11.5573 19.1075 11.2859 19.0881 10.9968Z" fill="#3339F1"/>
</g>
<defs>
<clipPath id="clip0_3558_1544">
<rect width="20.8" height="20.8" fill="white" transform="translate(0.600098 0.595703)"/>
</clipPath>
</defs>
</svg>
