<svg width="12" height="12" viewBox="0 0 12 12" fill="none" xmlns="http://www.w3.org/2000/svg">
<g opacity="0.3">
<path d="M8.33905 7.99704C7.44871 8.2874 6.6395 8.78389 5.9773 9.4461C5.31509 10.1083 4.8186 10.9175 4.52824 11.8079C4.50986 11.8632 4.47452 11.9114 4.42723 11.9455C4.37993 11.9796 4.32309 11.998 4.26476 11.998C4.20644 11.998 4.14959 11.9796 4.1023 11.9455C4.055 11.9114 4.01966 11.8632 4.00128 11.8079C3.71129 10.9164 3.21348 10.1067 2.54893 9.44553C1.88887 8.78394 1.08156 8.28801 0.193037 7.99832C0.137037 7.98062 0.0881343 7.94553 0.0534236 7.89816C0.0187129 7.85078 0 7.79357 0 7.73484C0 7.67611 0.0187129 7.61891 0.0534236 7.57153C0.0881343 7.52415 0.137037 7.48907 0.193037 7.47136C1.08168 7.18195 1.88906 6.68598 2.54893 6.02416C3.21387 5.3633 3.71174 4.55349 4.00128 3.66183C4.01966 3.60648 4.055 3.55832 4.1023 3.52418C4.14959 3.49005 4.20644 3.47168 4.26476 3.47168C4.32309 3.47168 4.37993 3.49005 4.42723 3.52418C4.47452 3.55832 4.50986 3.60648 4.52824 3.66183C4.81666 4.55203 5.31175 5.36131 5.97298 6.02343C6.63422 6.68556 7.44282 7.18174 8.33263 7.47136C8.38752 7.49003 8.43519 7.52542 8.46895 7.57256C8.50271 7.61969 8.52087 7.67622 8.52087 7.7342C8.52087 7.79218 8.50271 7.84871 8.46895 7.89585C8.43519 7.94299 8.38752 7.97837 8.33263 7.99704H8.33905Z" fill="url(#paint0_linear_3160_14671)"/>
<path d="M11.8759 2.68769C11.3502 2.85934 10.8724 3.1526 10.4813 3.54365C10.0903 3.93469 9.79702 4.41248 9.62536 4.93819C9.61643 4.97264 9.59631 5.00315 9.56817 5.02493C9.54002 5.04671 9.50543 5.05853 9.46984 5.05853C9.43425 5.05853 9.39967 5.04671 9.37152 5.02493C9.34337 5.00315 9.32326 4.97264 9.31432 4.93819C9.14212 4.41278 8.84868 3.93527 8.45771 3.54431C8.06674 3.15334 7.58923 2.85989 7.06382 2.68769C7.02879 2.67922 6.99763 2.65921 6.97534 2.63089C6.95304 2.60257 6.94092 2.56757 6.94092 2.53153C6.94092 2.49548 6.95304 2.46049 6.97534 2.43216C6.99763 2.40384 7.02879 2.38384 7.06382 2.37537C7.58948 2.20617 8.06743 1.91456 8.45834 1.52452C8.84949 1.13124 9.14156 0.650625 9.31047 0.122294C9.3194 0.0878428 9.33952 0.0573323 9.36767 0.0355516C9.39582 0.0137709 9.4304 0.00195313 9.46599 0.00195313C9.50158 0.00195312 9.53617 0.0137709 9.56431 0.0355516C9.59246 0.0573323 9.61258 0.0878428 9.62151 0.122294C9.79324 0.651106 10.0879 1.13166 10.4814 1.52452C10.8724 1.91715 11.3513 2.21102 11.8784 2.38179C11.9135 2.39026 11.9446 2.41027 11.9669 2.43859C11.9892 2.46691 12.0013 2.50191 12.0013 2.53795C12.0013 2.574 11.9892 2.60899 11.9669 2.63732C11.9446 2.66564 11.9135 2.68564 11.8784 2.69411L11.8759 2.68769Z" fill="url(#paint1_linear_3160_14671)"/>
<path opacity="0.5" d="M8.32092 7.99577C7.43058 8.28613 6.62137 8.78262 5.95917 9.44483C5.29696 10.107 4.80048 10.9162 4.51011 11.8066C4.49383 11.859 4.46201 11.9053 4.41886 11.9393C4.37572 11.9732 4.32328 11.9933 4.26848 11.9968C4.26848 11.9762 4.26205 3.55003 4.26848 3.46777C4.32328 3.47129 4.37572 3.49136 4.41886 3.52532C4.46201 3.55929 4.49383 3.60555 4.51011 3.658C4.79892 4.54862 5.29458 5.35816 5.95652 6.02032C6.61846 6.68248 7.42783 7.17842 8.31836 7.46752C8.37466 7.48528 8.42384 7.52052 8.45875 7.56813C8.49366 7.61575 8.51248 7.67325 8.51248 7.73229C8.51248 7.79133 8.49366 7.84883 8.45875 7.89644C8.42384 7.94405 8.37466 7.9793 8.31836 7.99705L8.32092 7.99577Z" fill="url(#paint2_linear_3160_14671)"/>
<path opacity="0.5" d="M11.8753 2.6873C11.3496 2.85895 10.8718 3.15221 10.4807 3.54326C10.0897 3.9343 9.79641 4.41209 9.62476 4.9378C9.6145 4.9709 9.59381 4.9998 9.56579 5.02019C9.53776 5.04057 9.50389 5.05134 9.46924 5.0509V0.0088022C9.50389 0.00835906 9.53776 0.0191334 9.56579 0.0395172C9.59381 0.059901 9.6145 0.0888015 9.62476 0.121906C9.79643 0.648649 10.0902 1.12736 10.482 1.51899C10.8731 1.91162 11.352 2.20549 11.8791 2.37626C11.9141 2.38473 11.9453 2.40474 11.9676 2.43306C11.9899 2.46138 12.002 2.49638 12.002 2.53242C12.002 2.56847 11.9899 2.60346 11.9676 2.63179C11.9453 2.66011 11.9141 2.68011 11.8791 2.68858L11.8753 2.6873Z" fill="url(#paint3_linear_3160_14671)"/>
</g>
<defs>
<linearGradient id="paint0_linear_3160_14671" x1="4.26043" y1="3.47168" x2="4.26043" y2="11.998" gradientUnits="userSpaceOnUse">
<stop stop-opacity="0.4"/>
<stop offset="1"/>
</linearGradient>
<linearGradient id="paint1_linear_3160_14671" x1="9.47113" y1="0.00195312" x2="9.47113" y2="5.05853" gradientUnits="userSpaceOnUse">
<stop stop-opacity="0.4"/>
<stop offset="1"/>
</linearGradient>
<linearGradient id="paint2_linear_3160_14671" x1="6.38905" y1="3.46777" x2="6.38905" y2="11.9968" gradientUnits="userSpaceOnUse">
<stop stop-opacity="0.4"/>
<stop offset="1"/>
</linearGradient>
<linearGradient id="paint3_linear_3160_14671" x1="10.7356" y1="0.00878906" x2="10.7356" y2="5.05091" gradientUnits="userSpaceOnUse">
<stop stop-opacity="0.4"/>
<stop offset="1"/>
</linearGradient>
</defs>
</svg>
