<svg width="12" height="12" viewBox="0 0 12 12" fill="none" xmlns="http://www.w3.org/2000/svg">
<g id="Group 175750" opacity="0.8">
<g id="Group 96022">
<g id="Group 96022_2">
<g id="Layer 2">
<g id="Layer 1">
<path id="Path 171728" d="M8.33743 7.99599C7.44726 8.28651 6.63821 8.78326 5.97614 9.44581C5.31406 10.1084 4.81767 10.918 4.52736 11.8088C4.50899 11.8642 4.47365 11.9124 4.42636 11.9465C4.37908 11.9807 4.32225 11.9991 4.26393 11.9991C4.20562 11.9991 4.14878 11.9807 4.1015 11.9465C4.05421 11.9124 4.01888 11.8642 4.0005 11.8088C3.71057 10.9169 3.21286 10.1068 2.54843 9.44525C1.88851 8.7833 1.08135 8.28711 0.193 7.99728C0.137011 7.97957 0.0881172 7.94446 0.0534132 7.89706C0.0187092 7.84966 0 7.79242 0 7.73366C0 7.6749 0.0187092 7.61766 0.0534132 7.57026C0.0881172 7.52286 0.137011 7.48776 0.193 7.47004C1.08147 7.18048 1.88869 6.68425 2.54843 6.02208C3.21325 5.36087 3.71102 4.55064 4.0005 3.65852C4.01888 3.60313 4.05421 3.55495 4.1015 3.52079C4.14878 3.48664 4.20562 3.46826 4.26393 3.46826C4.32225 3.46826 4.37908 3.48664 4.42636 3.52079C4.47365 3.55495 4.50899 3.60313 4.52736 3.65852C4.81573 4.54918 5.31071 5.35888 5.97182 6.02135C6.63293 6.68383 7.44137 7.18027 8.33101 7.47004C8.38589 7.48872 8.43355 7.52412 8.46731 7.57129C8.50106 7.61845 8.51921 7.675 8.51921 7.73302C8.51921 7.79103 8.50106 7.84759 8.46731 7.89475C8.43355 7.94191 8.38589 7.97732 8.33101 7.99599H8.33743Z" fill="url(#paint0_linear_3882_9788)"/>
<path id="Path 171729" d="M11.8753 2.68812C11.3497 2.85986 10.872 3.15328 10.481 3.54453C10.09 3.93578 9.79683 4.41382 9.62521 4.9398C9.61628 4.97427 9.59616 5.0048 9.56802 5.02659C9.53988 5.04838 9.5053 5.0602 9.46972 5.0602C9.43414 5.0602 9.39956 5.04838 9.37142 5.02659C9.34327 5.0048 9.32316 4.97427 9.31423 4.9398C9.14206 4.41411 8.84867 3.93636 8.45778 3.54519C8.06689 3.15402 7.58947 2.86041 7.06417 2.68812C7.02914 2.67964 6.99798 2.65963 6.9757 2.63129C6.95341 2.60295 6.94128 2.56794 6.94128 2.53188C6.94128 2.49581 6.95341 2.4608 6.9757 2.43246C6.99798 2.40412 7.02914 2.38411 7.06417 2.37563C7.58972 2.20635 8.06758 1.91458 8.45841 1.52434C8.84948 1.13086 9.1415 0.649989 9.31038 0.121381C9.31931 0.0869113 9.33942 0.0563848 9.36756 0.0345927C9.3957 0.0128006 9.43028 0.000976563 9.46587 0.000976563C9.50145 0.000976562 9.53603 0.0128006 9.56417 0.0345927C9.59231 0.0563848 9.61243 0.0869113 9.62136 0.121381C9.79305 0.650469 10.0877 1.13128 10.481 1.52434C10.872 1.91718 11.3508 2.2112 11.8778 2.38206C11.9129 2.39054 11.944 2.41055 11.9663 2.43889C11.9886 2.46723 12.0007 2.50224 12.0007 2.53831C12.0007 2.57437 11.9886 2.60938 11.9663 2.63772C11.944 2.66606 11.9129 2.68607 11.8778 2.69455L11.8753 2.68812Z" fill="url(#paint1_linear_3882_9788)"/>
<path id="Path 171730" opacity="0.5" d="M8.31623 7.99473C7.42606 8.28524 6.61701 8.78199 5.95493 9.44454C5.29286 10.1071 4.79647 10.9167 4.50616 11.8075C4.48988 11.86 4.45806 11.9063 4.41493 11.9403C4.37179 11.9743 4.31936 11.9943 4.26457 11.9979C4.26457 11.9773 4.25815 3.54666 4.26457 3.46436C4.31936 3.46787 4.37179 3.48795 4.41493 3.52194C4.45806 3.55592 4.48988 3.60221 4.50616 3.65468C4.79491 4.54577 5.29048 5.35573 5.95229 6.01824C6.61409 6.68074 7.42331 7.17694 8.31366 7.4662C8.36996 7.48397 8.41913 7.51923 8.45403 7.56687C8.48893 7.6145 8.50775 7.67204 8.50775 7.73111C8.50775 7.79018 8.48893 7.84771 8.45403 7.89535C8.41913 7.94298 8.36996 7.97825 8.31366 7.99601L8.31623 7.99473Z" fill="url(#paint2_linear_3882_9788)"/>
<path id="Path 171731" opacity="0.5" d="M11.8743 2.6887C11.3487 2.86044 10.871 3.15386 10.48 3.54511C10.0891 3.93636 9.79586 4.4144 9.62424 4.94038C9.61399 4.9735 9.5933 5.00242 9.56528 5.02281C9.53726 5.04321 9.5034 5.05399 9.46875 5.05354V0.00880221C9.5034 0.00835884 9.53726 0.0191388 9.56528 0.0395333C9.5933 0.0599278 9.61399 0.0888434 9.62424 0.121965C9.79588 0.648984 10.0896 1.12794 10.4813 1.51978C10.8723 1.91262 11.3511 2.20664 11.8782 2.3775C11.9132 2.38598 11.9443 2.40599 11.9666 2.43433C11.9889 2.46267 12.001 2.49768 12.001 2.53375C12.001 2.56981 11.9889 2.60482 11.9666 2.63316C11.9443 2.6615 11.9132 2.68151 11.8782 2.68999L11.8743 2.6887Z" fill="url(#paint3_linear_3882_9788)"/>
</g>
</g>
</g>
</g>
</g>
<defs>
<linearGradient id="paint0_linear_3882_9788" x1="4.25961" y1="3.46826" x2="4.25961" y2="11.9991" gradientUnits="userSpaceOnUse">
<stop stop-color="#3339F1"/>
<stop offset="1" stop-color="#3339F1"/>
</linearGradient>
<linearGradient id="paint1_linear_3882_9788" x1="9.471" y1="0.000976562" x2="9.471" y2="5.0602" gradientUnits="userSpaceOnUse">
<stop stop-color="#3339F1"/>
<stop offset="1" stop-color="#3339F1"/>
</linearGradient>
<linearGradient id="paint2_linear_3882_9788" x1="6.38473" y1="3.46436" x2="6.38473" y2="11.9979" gradientUnits="userSpaceOnUse">
<stop stop-color="#3339F1"/>
<stop offset="1" stop-color="#3339F1"/>
</linearGradient>
<linearGradient id="paint3_linear_3882_9788" x1="10.7349" y1="0.00878906" x2="10.7349" y2="5.05356" gradientUnits="userSpaceOnUse">
<stop stop-color="#3339F1"/>
<stop offset="1" stop-color="#3339F1"/>
</linearGradient>
</defs>
</svg>
