<svg width="16" height="16" viewBox="0 0 16 16" fill="none" xmlns="http://www.w3.org/2000/svg">
<g id="Group 172628">
<g id="Mask Group 95689">
<mask id="mask0_3981_26702" style="mask-type:luminance" maskUnits="userSpaceOnUse" x="0" y="0" width="16" height="16">
<path id="Rectangle 54363" fill-rule="evenodd" clip-rule="evenodd" d="M0 0H16V16H0V0Z" fill="white"/>
</mask>
<g mask="url(#mask0_3981_26702)">
<path id="colors_FILL1_wght400_GRAD0_opsz24" fill-rule="evenodd" clip-rule="evenodd" d="M5.90229 13.6354L2.05181 9.78499C1.94746 9.68057 1.8692 9.56583 1.81702 9.44059C1.76485 9.31535 1.73877 9.18497 1.73877 9.04931C1.73877 8.91364 1.76485 8.78311 1.81702 8.65803C1.86921 8.53279 1.94746 8.41796 2.05181 8.31363L5.65186 4.72924L3.99272 3.07015L4.96317 2.05273L11.2241 8.31364C11.3285 8.41797 11.4041 8.5328 11.4511 8.65804C11.498 8.78312 11.5215 8.91365 11.5215 9.04932C11.5215 9.18499 11.498 9.31535 11.4511 9.4406C11.4041 9.56584 11.3285 9.68059 11.2241 9.785L7.37361 13.6354C7.26926 13.7398 7.15449 13.818 7.02926 13.8701C6.90405 13.9224 6.7736 13.9486 6.63794 13.9486C6.50229 13.9486 6.37186 13.9224 6.24664 13.8701C6.12142 13.8181 6.00664 13.7398 5.90228 13.6354L5.90229 13.6354ZM6.63786 5.71549L3.28825 9.06519H9.98748L6.63786 5.71549ZM12.8834 13.9487C12.5077 13.9487 12.1894 13.8155 11.9286 13.5495C11.6677 13.2834 11.5373 12.9574 11.5373 12.5712C11.5373 12.2896 11.6077 12.0234 11.7486 11.773C11.8894 11.5225 12.0486 11.2773 12.226 11.0372L12.8834 10.1921L13.5721 11.0372C13.7391 11.2773 13.8956 11.5225 14.0417 11.773C14.1878 12.0234 14.2608 12.2896 14.2608 12.5712C14.2608 12.9574 14.1252 13.2834 13.8538 13.5495C13.5825 13.8155 13.2591 13.9487 12.8834 13.9487H12.8834Z" fill="black"/>
</g>
</g>
</g>
</svg>
