<svg width="16" height="16" viewBox="0 0 16 16" fill="none" xmlns="http://www.w3.org/2000/svg">
<g id="Copy_Icon">
<g id="Copy_Icon_2">
<mask id="mask0_3160_16376" style="mask-type:luminance" maskUnits="userSpaceOnUse" x="0" y="0" width="16" height="16">
<path id="Rectangle 47765" fill-rule="evenodd" clip-rule="evenodd" d="M0 0H16V16H0V0Z" fill="white"/>
</mask>
<g mask="url(#mask0_3160_16376)">
<g id="Group">
<g id="Layer_1">
<g id="Group_2">
<g id="Group_3">
<path id="Vector" d="M12.1212 14.2454H5.59197C4.42328 14.2454 3.46924 13.2913 3.46924 12.1226V5.59344C3.46924 4.42474 4.42328 3.4707 5.59197 3.4707H12.1271C13.2958 3.4707 14.2499 4.42474 14.2499 5.59344V12.1286C14.2499 13.2973 13.2958 14.2513 12.1271 14.2513L12.1212 14.2454ZM5.59197 4.24586C4.84663 4.24586 4.24439 4.84809 4.24439 5.59344V12.1286C4.24439 12.8739 4.84663 13.4762 5.59197 13.4762H12.1271C12.8725 13.4762 13.4747 12.8739 13.4747 12.1286V5.59344C13.4747 4.84809 12.8725 4.24586 12.1271 4.24586H5.59197Z" fill="#1F2124"/>
<path id="Vector_2" d="M2.14441 10.7973C1.92976 10.7973 1.75684 10.6244 1.75684 10.4097V4.83458C1.75684 3.1352 3.13423 1.75781 4.83361 1.75781H10.4147C10.6294 1.75781 10.8023 1.93073 10.8023 2.14539C10.8023 2.36005 10.6294 2.53297 10.4147 2.53297H4.83361C3.56354 2.53297 2.53199 3.56452 2.53199 4.83458V10.4157C2.53199 10.6304 2.35907 10.8033 2.14441 10.8033V10.7973Z" fill="#1F2124"/>
</g>
</g>
</g>
</g>
</g>
</g>
</g>
</svg>
