<svg id="Recycle_Bin_Icon" xmlns="http://www.w3.org/2000/svg" xmlns:xlink="http://www.w3.org/1999/xlink" width="18" height="18" viewBox="0 0 18 18">
  <defs>
    <clipPath id="clip-path">
      <rect id="Rectangle_47778" data-name="Rectangle 47778" width="18" height="18" fill="#fff"/>
    </clipPath>
  </defs>
  <g id="Recycle_Bin_Icon-2" data-name="Recycle_Bin_Icon" clip-path="url(#clip-path)">
    <g id="design_system_icons-35" data-name="design system icons-35" transform="translate(3.7 3)">
      <path id="Path_169319" data-name="Path 169319" d="M21.546,12.178h0A2.583,2.583,0,0,0,19.73,11.4H18.108a2.583,2.583,0,0,0-1.816.778H13.924a.349.349,0,0,0-.324.324v.876a.306.306,0,0,0,.324.324h9.989a.349.349,0,0,0,.324-.324V12.5a.306.306,0,0,0-.324-.324Z" transform="translate(-13.6 -11.4)" fill="#fff"/>
      <path id="Path_169320" data-name="Path 169320" d="M16.5,21.5l.551,7.622a1.18,1.18,0,0,0,1.2,1.1h5.286a1.226,1.226,0,0,0,1.2-1.1l.551-7.622Z" transform="translate(-15.559 -18.224)" fill="#fff"/>
    </g>
  </g>
</svg>
