<svg id="Copy_Icon" xmlns="http://www.w3.org/2000/svg" xmlns:xlink="http://www.w3.org/1999/xlink" width="18" height="18" viewBox="0 0 18 18">
  <defs>
    <clipPath id="clip-path">
      <rect id="Rectangle_47765" data-name="Rectangle 47765" width="18" height="18" fill="#fff"/>
    </clipPath>
  </defs>
  <g id="Copy_Icon-2" data-name="Copy_Icon" clip-path="url(#clip-path)">
    <g id="design_system_icons-50" data-name="design system icons-50" transform="translate(3 3)">
      <path id="Path_169337" data-name="Path 169337" d="M14.693,27.142h6.862a1.6,1.6,0,0,0,1.593-1.6V18.7a1.6,1.6,0,0,0-1.593-1.6H14.726A1.612,1.612,0,0,0,13.1,18.73v6.847A1.592,1.592,0,0,0,14.693,27.142Z" transform="translate(-11.149 -15.144)" fill="#fff"/>
      <path id="Path_169338" data-name="Path 169338" d="M19.9,13.056v6.162a1.947,1.947,0,0,0,.976,1.7V13.708a1.612,1.612,0,0,1,1.626-1.63h7.187A1.94,1.94,0,0,0,28,11.1H21.851A1.939,1.939,0,0,0,19.9,13.056Z" transform="translate(-19.9 -11.1)" fill="#fff"/>
    </g>
  </g>
</svg>
