<svg xmlns="http://www.w3.org/2000/svg" xmlns:xlink="http://www.w3.org/1999/xlink" width="18" height="18" viewBox="0 0 18 18">
  <defs>
    <filter id="Rectangle_54409" x="-30.5" y="-25.5" width="79" height="79" filterUnits="userSpaceOnUse">
      <feOffset dy="5" input="SourceAlpha"/>
      <feGaussianBlur stdDeviation="10" result="blur"/>
      <feFlood flood-color="#bbc6d8" flood-opacity="0.4"/>
      <feComposite operator="in" in2="blur"/>
      <feComposite in="SourceGraphic"/>
    </filter>
    <clipPath id="clip-path">
      <g transform="matrix(1, 0, 0, 1, 0, 0)" filter="url(#Rectangle_54409)">
        <rect id="Rectangle_54409-2" data-name="Rectangle 54409" width="18" height="18" transform="translate(15.15 15.15)" fill="#fff" stroke="rgba(0,0,0,0.05)" stroke-width="1"/>
      </g>
    </clipPath>
  </defs>
  <g id="Mask_Group_378" data-name="Mask Group 378" transform="translate(-15.155 -15.155)" clip-path="url(#clip-path)">
    <g id="help_with_AI-01" data-name="help with AI-01" transform="translate(19.297 16.038)">
      <g id="Group_172312" data-name="Group 172312" transform="translate(0 3.336)">
        <g id="Group_172310" data-name="Group 172310">
          <g id="Group_172309" data-name="Group 172309">
            <path id="Path_172426" data-name="Path 172426" d="M9.526,9.754a2.647,2.647,0,0,1-.261.867,5.381,5.381,0,0,1-1.04,1.312l-.622.591a2.243,2.243,0,0,0-.679,1.547.132.132,0,0,1-.131.125H5.121a.141.141,0,0,1-.094-.042.109.109,0,0,1-.037-.094,3.879,3.879,0,0,1,.193-1.61,3.562,3.562,0,0,1,.977-1.3,4.706,4.706,0,0,0,.888-.962,1.507,1.507,0,0,0,.256-.742,1.1,1.1,0,0,0-.962-1.212,1.015,1.015,0,0,0-.125-.01.644.644,0,0,0-.1.01c-.653,0-1.082.434-1.176,1.2A.14.14,0,0,1,4.8,9.56h-2a.131.131,0,0,1-.094-.042.146.146,0,0,1-.042-.1,3.132,3.132,0,0,1,3.444-3.1,3.824,3.824,0,0,1,2.263.538,1.369,1.369,0,0,1-.2.078.944.944,0,0,0-.606.611.914.914,0,0,0,.063.721.931.931,0,0,0,.549.465,2.6,2.6,0,0,1,1.029.627A2.161,2.161,0,0,1,9.526,9.754Z" transform="translate(-2.67 -6.31)" fill="#fff"/>
          </g>
        </g>
        <g id="Group_172311" data-name="Group 172311" transform="translate(1.986 8.941)">
          <path id="Path_172427" data-name="Path 172427" d="M9.057,24.716a1.293,1.293,0,1,1-1.291-1.3A1.294,1.294,0,0,1,9.057,24.716Z" transform="translate(-6.47 -23.42)" fill="#fff"/>
        </g>
      </g>
      <g id="Group_172315" data-name="Group 172315" transform="translate(5.636 2.416)">
        <g id="Group_172313" data-name="Group 172313" transform="translate(0 0.007)">
          <path id="Path_172428" data-name="Path 172428" d="M18.3,7.039a.143.143,0,0,1-.1.1,3.393,3.393,0,0,0-2.169,2.174.2.2,0,0,1-.063.084l-.037.016a.089.089,0,0,1-.037.005.129.129,0,0,1-.063-.005.165.165,0,0,1-.1-.1,3.356,3.356,0,0,0-.82-1.348,2.794,2.794,0,0,0-.261-.235,3.321,3.321,0,0,0-1.087-.585.156.156,0,0,1-.1-.2.153.153,0,0,1,.1-.1,3.159,3.159,0,0,0,.564-.24,3.3,3.3,0,0,0,.784-.585,3.337,3.337,0,0,0,.82-1.343.151.151,0,0,1,.167-.1.066.066,0,0,1,.031.005.125.125,0,0,1,.063.037.133.133,0,0,1,.042.063,3.292,3.292,0,0,0,.826,1.343,3.611,3.611,0,0,0,.3.267,3.256,3.256,0,0,0,.857.491c.063.026.125.047.188.068a.148.148,0,0,1,.078.057A.163.163,0,0,1,18.3,7.039Z" transform="translate(-13.455 -4.564)" fill="#2a61ae"/>
        </g>
        <g id="Group_172314" data-name="Group 172314" transform="translate(2.441)" opacity="0.2">
          <path id="Path_172429" data-name="Path 172429" d="M20.432,7.132A3.386,3.386,0,0,0,18.264,9.3a.157.157,0,0,1-.136.11c0-.01-.005-4.813,0-4.86a.151.151,0,0,1,.136.11A3.292,3.292,0,0,0,19.089,6a3.407,3.407,0,0,0,1.343.826.159.159,0,0,1,.1.2A.161.161,0,0,1,20.432,7.132Z" transform="translate(-18.126 -4.55)" fill="#fff"/>
        </g>
      </g>
      <g id="Group_172316" data-name="Group 172316" transform="translate(4.555)">
        <path id="Path_172430" data-name="Path 172430" d="M23.8,2.334a2,2,0,0,0-1.28,1.28.094.094,0,0,1-.11.068.1.1,0,0,1-.068-.068,2,2,0,0,0-1.28-1.28A.089.089,0,0,1,21,2.224a.1.1,0,0,1,.068-.068,2.042,2.042,0,0,0,.794-.486,2.018,2.018,0,0,0,.486-.794.094.094,0,0,1,.11-.068.1.1,0,0,1,.068.068,2.042,2.042,0,0,0,.486.794,1.96,1.96,0,0,0,.794.486.094.094,0,0,1,.068.11A.11.11,0,0,1,23.8,2.334Z" transform="translate(-20.992 -0.803)" fill="#acadad"/>
        <path id="Path_172431" data-name="Path 172431" d="M25.119,2.331a2,2,0,0,0-1.28,1.28.091.091,0,0,1-.089.063V.8a.091.091,0,0,1,.089.063,2.042,2.042,0,0,0,.486.794,1.96,1.96,0,0,0,.794.486.087.087,0,0,1,.063.11A.091.091,0,0,1,25.119,2.331Z" transform="translate(-22.309 -0.8)" fill="#fff"/>
      </g>
    </g>
  </g>
</svg>
