<svg xmlns="http://www.w3.org/2000/svg" xmlns:xlink="http://www.w3.org/1999/xlink" width="18" height="18" viewBox="0 0 18 18">
  <defs>
    <clipPath id="clip-path">
      <rect id="Rectangle_54363" data-name="Rectangle 54363" width="18" height="18" transform="translate(9 10)" fill="none"/>
    </clipPath>
  </defs>
  <g id="Group_172160" data-name="Group 172160" transform="translate(-684 -131)">
    <g id="Mask_Group_95689" data-name="Mask Group 95689" transform="translate(675 121)" clip-path="url(#clip-path)">
      <path id="link_FILL0_wght400_GRAD0_opsz24" d="M86.3-673H83.5a3.373,3.373,0,0,1-2.476-1.024A3.373,3.373,0,0,1,80-676.5a3.373,3.373,0,0,1,1.024-2.476A3.373,3.373,0,0,1,83.5-680h2.8v1.4H83.5a2.025,2.025,0,0,0-1.488.612A2.025,2.025,0,0,0,81.4-676.5a2.025,2.025,0,0,0,.612,1.488,2.025,2.025,0,0,0,1.488.612h2.8Zm-2.1-2.8v-1.4h5.6v1.4Zm3.5,2.8v-1.4h2.8a2.025,2.025,0,0,0,1.487-.612A2.025,2.025,0,0,0,92.6-676.5a2.025,2.025,0,0,0-.613-1.487A2.025,2.025,0,0,0,90.5-678.6H87.7V-680h2.8a3.373,3.373,0,0,1,2.476,1.024A3.373,3.373,0,0,1,94-676.5a3.373,3.373,0,0,1-1.024,2.476A3.373,3.373,0,0,1,90.5-673Z" transform="translate(-69 696)" fill="#fff"/>
    </g>
  </g>
</svg>
