<svg width="16" height="16" viewBox="0 0 16 16" fill="none" xmlns="http://www.w3.org/2000/svg">
<g id="Group 172746">
<g id="Mask Group 95689">
<mask id="mask0_3506_4292" style="mask-type:luminance" maskUnits="userSpaceOnUse" x="0" y="0" width="16" height="16">
<path id="Rectangle 54363" fill-rule="evenodd" clip-rule="evenodd" d="M0 0H16V16H0V0Z" fill="white"/>
</mask>
<g mask="url(#mask0_3506_4292)">
<path id="link_FILL0_wght400_GRAD0_opsz24" fill-rule="evenodd" clip-rule="evenodd" d="M7.37732 11.5563H4.88844C4.0277 11.5563 3.294 11.2529 2.68733 10.6463C2.08068 10.0396 1.77734 9.30592 1.77734 8.44524C1.77734 7.58448 2.08066 6.85068 2.68733 6.24414C3.29398 5.63753 4.02769 5.33398 4.88844 5.33398H7.37732V6.57845H4.88844C4.36992 6.57845 3.92918 6.75993 3.56622 7.12297C3.20326 7.48593 3.02178 7.92668 3.02178 8.44524C3.02178 8.9637 3.20326 9.4043 3.56622 9.76734C3.92918 10.1305 4.36993 10.3118 4.88844 10.3118H7.37732V11.5563ZM5.51042 9.1569V7.82357H10.4882V9.1569H5.51042ZM8.62174 11.5563V10.3118H11.1106C11.6291 10.3118 12.0699 10.1305 12.4328 9.76734C12.7958 9.4043 12.9773 8.96372 12.9773 8.44524C12.9773 7.92668 12.7958 7.48593 12.4328 7.12297C12.0699 6.75993 11.6291 6.57845 11.1106 6.57845H8.62174V5.33398H11.1106C11.9714 5.33398 12.7051 5.63753 13.3117 6.24414C13.9184 6.85068 14.2217 7.58448 14.2217 8.44524C14.2217 9.30592 13.9184 10.0396 13.3117 10.6463C12.7051 11.2529 11.9714 11.5563 11.1106 11.5563H8.62174Z" fill="black"/>
</g>
</g>
</g>
</svg>
