<svg xmlns="http://www.w3.org/2000/svg" xmlns:xlink="http://www.w3.org/1999/xlink" width="12" height="12" viewBox="0 0 12 12">
  <defs>
    <clipPath id="clip-path">
      <rect id="Rectangle_47807" data-name="Rectangle 47807" width="12" height="12" fill="#fff"/>
    </clipPath>
  </defs>
  <g id="Navigation_Icon" transform="translate(12) rotate(90)" clip-path="url(#clip-path)">
    <path id="Path_169381" data-name="Path 169381" d="M2.519,3.758.268,1.477A.873.873,0,0,1,.183.315.853.853,0,0,1,1.436.25L2.944,1.778a.255.255,0,0,0,.34,0L4.77.272A.844.844,0,0,1,5.916.186a.88.88,0,0,1,.064,1.27l-2.272,2.3A.851.851,0,0,1,2.519,3.758Z" transform="translate(8 2.867) rotate(90)" fill="#fff"/>
  </g>
</svg>
