<svg xmlns="http://www.w3.org/2000/svg" id="paperclip" width="18" height="18" viewBox="0 0 18 18">
  <path id="Path_171994" data-name="Path 171994" d="M5.743,13.081a2.755,2.755,0,0,1-2.018-.88,2.871,2.871,0,0,1-.755-2.193,3.328,3.328,0,0,1,.88-2.045L7.015,4.611a1.71,1.71,0,0,1,2.5,0,1.961,1.961,0,0,1,0,2.649L7,9.929l-.646-.679L8.875,6.58a.957.957,0,0,0,0-1.291.83.83,0,0,0-1.214,0L4.495,8.643a2.158,2.158,0,0,0-.124,2.88,1.847,1.847,0,0,0,1.372.6,2.266,2.266,0,0,0,1.627-.733L10.6,7.97a3.242,3.242,0,0,0,0-4.394,2.817,2.817,0,0,0-4.144,0L3.726,6.462l-.646-.679L5.805,2.9a3.7,3.7,0,0,1,5.437,0,4.243,4.243,0,0,1,0,5.751L8.016,12.064A3.161,3.161,0,0,1,5.743,13.081Z" transform="translate(1.349 1.608)" fill="#000000"/>
  <rect id="Rectangle_53668" data-name="Rectangle 53668" width="18" height="18" fill="none"/>
</svg>