<svg width="16" height="16" viewBox="0 0 16 16" fill="none" xmlns="http://www.w3.org/2000/svg">
<g id="Group 172691">
<g id="Mask Group 95689">
<mask id="mask0_3506_4339" style="mask-type:luminance" maskUnits="userSpaceOnUse" x="0" y="0" width="16" height="16">
<path id="Rectangle 54363" fill-rule="evenodd" clip-rule="evenodd" d="M0 16L0 0L16 0V16H0Z" fill="white"/>
</mask>
<g mask="url(#mask0_3506_4339)">
<g id="Group 172687">
<path id="Path 172487" fill-rule="evenodd" clip-rule="evenodd" d="M10.6967 8.59961C9.55749 8.59961 8.59814 9.55896 8.59814 10.6982C8.59814 11.8374 9.55749 12.7967 10.6967 12.7967C11.8359 12.7967 12.7953 11.8374 12.7953 10.6982C12.7953 9.55896 11.8359 8.59961 10.6967 8.59961ZM10.6967 11.5976C10.2171 11.5976 9.79736 11.1779 9.79736 10.6982C9.79736 10.2185 10.2171 9.79883 10.6967 9.79883C11.1764 9.79883 11.5961 10.2185 11.5961 10.6982C11.5961 11.1779 11.1764 11.5976 10.6967 11.5976Z" fill="black"/>
<path id="Path 172488" fill-rule="evenodd" clip-rule="evenodd" d="M12.0169 4.82302L6.14089 10.699L5.30146 11.5384L4.8218 12.0181C4.58196 12.2579 4.22221 12.2579 3.98237 12.0181C3.74253 11.7782 3.74253 11.4185 3.98237 11.1787L4.46204 10.699L5.30146 9.85956L11.1774 3.98359C11.4173 3.74375 11.777 3.74375 12.0169 3.98359C12.2567 4.22343 12.2567 4.58318 12.0169 4.82302Z" fill="black"/>
<path id="Path 172489" fill-rule="evenodd" clip-rule="evenodd" d="M5.30095 3.20312C4.16174 3.20312 3.20239 4.16247 3.20239 5.30169C3.20239 6.4409 4.16174 7.40025 5.30095 7.40025C6.44017 7.40025 7.39951 6.4409 7.39951 5.30169C7.39951 4.16247 6.44017 3.20312 5.30095 3.20312ZM5.30084 6.20112C4.82117 6.20112 4.40145 5.78141 4.40145 5.30173C4.40145 4.82206 4.82116 4.40234 5.30084 4.40234C5.7805 4.40234 6.20022 4.82205 6.20022 5.30173C6.20022 5.7814 5.78052 6.20112 5.30084 6.20112Z" fill="black"/>
</g>
</g>
</g>
</g>
</svg>
