<svg id="Up_align_Icon" data-name="Up align_Icon" xmlns="http://www.w3.org/2000/svg" xmlns:xlink="http://www.w3.org/1999/xlink" width="12" height="12" viewBox="0 0 12 12">
  <defs>
    <clipPath id="clip-path">
      <rect id="Rectangle_47765" data-name="Rectangle 47765" width="18" height="18" fill="#fff"/>
    </clipPath>
  </defs>
  <g id="Copy_Icon" clip-path="url(#clip-path)">
    <g id="Group_172573" data-name="Group 172573" transform="translate(9.333 2) rotate(90)">
      <path id="Path_171980" data-name="Path 171980" d="M4.359,4.128h0a.421.421,0,0,1-.233.234h0a.405.405,0,0,1-.167.029H1.911a.433.433,0,0,1,0-.865h1L.125.739a.436.436,0,0,1,0-.612A.44.44,0,0,1,.43,0,.429.429,0,0,1,.736.127l2.791,2.8v-1a.432.432,0,1,1,.864,0V3.972A.407.407,0,0,1,4.359,4.128Z" transform="translate(0 3.229) rotate(-45)" fill="#fff"/>
      <line id="Line_5393" data-name="Line 5393" y2="6.667" transform="translate(8 0)" fill="none" stroke="#fff" stroke-linecap="round" stroke-width="1"/>
    </g>
  </g>
</svg>
