<svg width="16" height="16" viewBox="0 0 16 16" fill="none" xmlns="http://www.w3.org/2000/svg">
<g id="Rght align_Icon">
<g id="Copy_Icon">
<mask id="mask0_3506_4270" style="mask-type:luminance" maskUnits="userSpaceOnUse" x="0" y="0" width="16" height="16">
<path id="Rectangle 47765" fill-rule="evenodd" clip-rule="evenodd" d="M16 0L16 16L-6.99382e-07 16L0 -6.99382e-07L16 0Z" fill="white"/>
</mask>
<g mask="url(#mask0_3506_4270)">
<g id="Group 172573">
<path id="Path 171980" fill-rule="evenodd" clip-rule="evenodd" d="M7.64116 10.6684C7.78183 10.7285 7.94083 10.7286 8.08138 10.6688C8.15144 10.6389 8.21436 10.5945 8.26604 10.5385L10.1963 8.60827C10.4212 8.38336 10.4209 8.01837 10.1955 7.79304C9.9702 7.56771 9.60521 7.56736 9.38031 7.79227L8.43553 8.73704L8.43743 3.48151C8.43485 3.16429 8.17801 2.90745 7.86079 2.90487C7.70821 2.90587 7.5621 2.96614 7.45334 3.07296C7.3451 3.18078 7.28457 3.3275 7.28524 3.48042L7.29151 8.74954L6.34496 7.80299C6.11963 7.57766 5.75464 7.57731 5.52973 7.80222C5.30482 8.02712 5.30517 8.39211 5.5305 8.61744L7.46441 10.5514C7.51508 10.6016 7.57514 10.6414 7.64115 10.6684L7.64116 10.6684Z" fill="black"/>
<path id="Line 5393" d="M3.51051 13.334L12.4438 13.334" stroke="black" stroke-linecap="round"/>
</g>
</g>
</g>
</g>
</svg>
