<svg width="16" height="16" viewBox="0 0 16 16" fill="none" xmlns="http://www.w3.org/2000/svg">
<g id="Recycle_Bin_Icon">
<g id="Group">
<g id="Layer_1">
<path id="Vector" d="M12.4877 4.44064H3.07851C2.6313 4.44064 2.26758 4.07691 2.26758 3.62971V3.2302C2.26758 2.783 2.6313 2.41927 3.07851 2.41927H5.53516C6.8887 1.41753 8.88621 1.41753 10.2398 2.41927H12.4817C12.9289 2.41927 13.2927 2.783 13.2927 3.2302V3.62971C13.2927 4.07691 12.9289 4.44064 12.4817 4.44064H12.4877ZM3.07851 3.19443C3.07851 3.19443 3.04273 3.21232 3.04273 3.2302V3.62971L12.4817 3.66548L12.5175 3.2302L9.97143 3.19443L9.8641 3.11095C8.73118 2.20461 7.04373 2.20461 5.90485 3.11095L5.79752 3.19443H3.07851Z" fill="#1F2124"/>
<g id="Group_2">
<path id="Vector_2" d="M9.81133 14.4407H5.80437C4.6953 14.4407 3.76512 13.5761 3.6876 12.467L3.1748 5.18652H12.4409L11.9281 12.467C11.8506 13.5761 10.9204 14.4407 9.81133 14.4407ZM4.00959 5.96168L4.46275 12.4134C4.51046 13.117 5.10077 13.6655 5.80437 13.6655H9.81133C10.5149 13.6655 11.1052 13.117 11.1529 12.4134L11.6061 5.96168H4.00959Z" fill="#1F2124"/>
</g>
</g>
</g>
</g>
</svg>
