<svg width="14" height="14" viewBox="0 0 14 14" fill="none" xmlns="http://www.w3.org/2000/svg">
<g id="Dashboard">
<path id="Union" fill-rule="evenodd" clip-rule="evenodd" d="M2.91122 6.30699C2.91122 4.43399 4.43927 2.91122 6.32969 2.91122C8.2201 2.91122 9.74815 4.43399 9.74815 6.30699C9.74815 8.17998 8.2201 9.70277 6.32969 9.70277C4.43928 9.70277 2.91122 8.17998 2.91122 6.30699ZM6.32969 2.0332C3.95925 2.0332 2.0332 3.9442 2.0332 6.30699C2.0332 8.66977 3.95925 10.5808 6.32969 10.5808C7.36876 10.5808 8.32245 10.2136 9.06595 9.6021L11.2089 11.8293L11.8416 11.2205L9.68394 8.97804C10.2734 8.2467 10.6262 7.31822 10.6262 6.30699C10.6262 3.9442 8.70012 2.0332 6.32969 2.0332Z" fill="black" fill-opacity="0.2"/>
</g>
</svg>
