<svg width="20" height="20" viewBox="0 0 20 20" fill="none" xmlns="http://www.w3.org/2000/svg">
<g id="Settings_Icon 1" clip-path="url(#clip0_3712_33421)">
<g id="Settings_Icon">
<g id="Clip path group">
<mask id="mask0_3712_33421" style="mask-type:luminance" maskUnits="userSpaceOnUse" x="-1" y="0" width="21" height="20">
<g id="clip-path">
<path id="Rectangle 47758" d="M-0.000486374 20L19.9995 20L19.9995 1.90735e-06L-0.000486374 1.90735e-06L-0.000486374 20Z" fill="white"/>
</g>
</mask>
<g mask="url(#mask0_3712_33421)">
<g id="Settings_Icon_2">
<g id="Group 93606">
<path id="Ellipse 12599" d="M9.99871 8.40269C9.12831 8.40269 8.42271 9.10829 8.42271 9.97869C8.42271 10.8491 9.12831 11.5547 9.99871 11.5547C10.8691 11.5547 11.5747 10.8491 11.5747 9.97869C11.5747 9.10829 10.8691 8.40269 9.99871 8.40269Z" fill="#BCBCBD"/>
<g id="Group 93605">
<path id="Ellipse 12600" d="M15.09 8.40269C14.2196 8.40269 13.514 9.10829 13.514 9.97869C13.514 10.8491 14.2196 11.5547 15.09 11.5547C15.9604 11.5547 16.666 10.8491 16.666 9.97869C16.666 9.10829 15.9604 8.40269 15.09 8.40269Z" fill="#BCBCBD"/>
<path id="Ellipse 12601" d="M4.90838 8.40269C4.03797 8.40269 3.33238 9.10829 3.33238 9.97869C3.33238 10.8491 4.03797 11.5547 4.90838 11.5547C5.77878 11.5547 6.48438 10.8491 6.48438 9.97869C6.48438 9.10829 5.77878 8.40269 4.90838 8.40269Z" fill="#BCBCBD"/>
</g>
</g>
</g>
</g>
</g>
</g>
</g>
<defs>
<clipPath id="clip0_3712_33421">
<rect width="20" height="20" fill="white"/>
</clipPath>
</defs>
</svg>
