<svg id="Close_Icon" xmlns="http://www.w3.org/2000/svg" xmlns:xlink="http://www.w3.org/1999/xlink" width="12" height="12" viewBox="0 0 12 12">
  <defs>
    <clipPath id="clip-path">
      <path id="Path_169840" data-name="Path 169840" d="M0,0H12V12H0Z" fill="none"/>
    </clipPath>
  </defs>
  <g id="Mask_Group_1282" data-name="Mask Group 1282" clip-path="url(#clip-path)">
    <path id="shapes_FILL0_wght400_GRAD0_opsz24" d="M85.2-874.8Zm-2.8,1.18q.1.01.2.015t.205,0q.11,0,.205,0t.2-.015v.82h4v-4h-.82q.01-.1.015-.2t0-.205q0-.11,0-.205t-.015-.2h.82a.771.771,0,0,1,.565.235A.771.771,0,0,1,88-876.8v4a.77.77,0,0,1-.235.565A.77.77,0,0,1,87.2-872h-4a.77.77,0,0,1-.565-.235.77.77,0,0,1-.235-.565Zm.4-.78a2.7,2.7,0,0,1-1.986-.815A2.7,2.7,0,0,1,80-877.2a2.7,2.7,0,0,1,.815-1.986A2.7,2.7,0,0,1,82.8-880a2.7,2.7,0,0,1,1.986.815A2.7,2.7,0,0,1,85.6-877.2a2.7,2.7,0,0,1-.815,1.986A2.7,2.7,0,0,1,82.8-874.4Zm0-.8a1.928,1.928,0,0,0,1.415-.585A1.928,1.928,0,0,0,84.8-877.2a1.928,1.928,0,0,0-.585-1.415A1.928,1.928,0,0,0,82.8-879.2a1.928,1.928,0,0,0-1.415.585A1.928,1.928,0,0,0,80.8-877.2a1.928,1.928,0,0,0,.585,1.415A1.928,1.928,0,0,0,82.8-875.2ZM82.8-877.2Z" transform="translate(-78.002 881.998)" fill="#fff"/>
  </g>
</svg>
