<svg width="12" height="12" viewBox="0 0 12 12" fill="none" xmlns="http://www.w3.org/2000/svg">
<path fill-rule="evenodd" clip-rule="evenodd" d="M3.86458 9.1727C3.95349 9.18165 4.0402 9.18825 4.12465 9.19272C4.20912 9.19702 4.30026 9.1993 4.39806 9.1993C4.49588 9.1993 4.58701 9.19702 4.67148 9.19272C4.75594 9.18824 4.84262 9.18165 4.93154 9.1727V10.2664H10.2663V4.93165H9.17265C9.18153 4.8427 9.18821 4.75604 9.19265 4.67156C9.19709 4.58709 9.19932 4.49586 9.19932 4.39812C9.19932 4.3003 9.1971 4.20916 9.19265 4.12468C9.18821 4.04021 9.18153 3.95353 9.17265 3.86458H10.2663C10.5597 3.86458 10.8108 3.96916 11.0198 4.17806C11.2287 4.38705 11.3332 4.63818 11.3332 4.93165V10.2664C11.3332 10.5597 11.2287 10.811 11.0198 11.0198C10.8108 11.2288 10.5597 11.3333 10.2663 11.3333H4.93154C4.63813 11.3333 4.38694 11.2288 4.17801 11.0198C3.96906 10.811 3.8646 10.5597 3.8646 10.2664L3.86458 9.1727ZM4.39836 8.13265C3.35809 8.13265 2.47564 7.77034 1.751 7.04573C1.02638 6.32096 0.664062 5.43864 0.664062 4.39836C0.664062 3.35808 1.02638 2.47566 1.751 1.75098C2.47564 1.02637 3.35809 0.664062 4.39836 0.664062C5.43862 0.664062 6.32108 1.02637 7.04572 1.75098C7.77034 2.47568 8.13265 3.35808 8.13265 4.39836C8.13265 5.43864 7.77034 6.32097 7.04572 7.04573C6.32108 7.77034 5.43864 8.13265 4.39836 8.13265ZM4.39848 7.06518C5.13645 7.06518 5.76552 6.80516 6.28564 6.28499C6.80577 5.76498 7.06583 5.1359 7.06583 4.39787C7.06583 3.65983 6.80576 3.03076 6.28564 2.51075C5.76551 1.99056 5.13645 1.73047 4.39848 1.73047C3.66052 1.73047 3.03147 1.99056 2.51133 2.51075C1.99119 3.03076 1.73112 3.65984 1.73112 4.39787C1.73112 5.13591 1.99119 5.76498 2.51133 6.28499C3.03147 6.80518 3.66052 7.06518 4.39848 7.06518Z" fill="black"/>
</svg>
