<svg xmlns="http://www.w3.org/2000/svg" width="16" height="16" viewBox="0 0 16 16">
  <g id="Custom_prompt" data-name="Custom prompt" opacity="0.5">
    <rect id="Rectangle_54181" data-name="Rectangle 54181" width="16" height="16" fill="none"/>
    <path id="videocam_FILL1_wght400_GRAD0_opsz24" d="M81.167-790.667a1.124,1.124,0,0,1-.824-.343,1.124,1.124,0,0,1-.343-.824v-7a1.124,1.124,0,0,1,.343-.824,1.124,1.124,0,0,1,.824-.343h7a1.124,1.124,0,0,1,.824.343,1.124,1.124,0,0,1,.343.824v2.625l2.333-2.333v6.417l-2.333-2.333v2.625a1.124,1.124,0,0,1-.343.824,1.124,1.124,0,0,1-.824.343Z" transform="translate(-77.833 803.333)" fill="#fff"/>
  </g>
</svg>
