<svg id="Copy_Icon" xmlns="http://www.w3.org/2000/svg" xmlns:xlink="http://www.w3.org/1999/xlink" width="18" height="18" viewBox="0 0 18 18">
  <defs>
    <clipPath id="clip-path">
      <rect id="Rectangle_47765" data-name="Rectangle 47765" width="18" height="18" fill="#fff"/>
    </clipPath>
  </defs>
  <g id="Copy_Icon-2" data-name="Copy_Icon" clip-path="url(#clip-path)">
    <path id="videocam_FILL1_wght400_GRAD0_opsz24" d="M81.3-789.6a1.252,1.252,0,0,1-.918-.382A1.252,1.252,0,0,1,80-790.9v-7.8a1.252,1.252,0,0,1,.382-.918A1.252,1.252,0,0,1,81.3-800h7.8a1.252,1.252,0,0,1,.918.382,1.252,1.252,0,0,1,.382.918v2.925l2.6-2.6v7.15l-2.6-2.6v2.925a1.252,1.252,0,0,1-.382.918,1.252,1.252,0,0,1-.918.382Z" transform="translate(-77.5 804)" fill="#fff"/>
  </g>
</svg>
