<svg width="8" height="8" viewBox="0 0 8 8" fill="none" xmlns="http://www.w3.org/2000/svg">
<g id="Layer 2" opacity="0.2">
<g id="Layer 1">
<path id="Vector" d="M7.45826 0.963882C7.3863 0.792087 7.24971 0.655468 7.07795 0.583499C6.99395 0.535948 6.90054 0.507442 6.80431 0.5H3.51136C3.32685 0.5 3.1499 0.57331 3.01943 0.703802C2.88896 0.834294 2.81567 1.01128 2.81567 1.19582C2.81567 1.38037 2.88896 1.55735 3.01943 1.68784C3.1499 1.81834 3.32685 1.89165 3.51136 1.89165H5.13928L0.705397 6.31244C0.640331 6.37673 0.588672 6.4533 0.553413 6.5377C0.518155 6.62211 0.5 6.71268 0.5 6.80416C0.5 6.89564 0.518155 6.9862 0.553413 7.07061C0.588672 7.15502 0.640331 7.23158 0.705397 7.29587C0.769469 7.36113 0.846011 7.41283 0.93047 7.4479C1.01493 7.48296 1.10558 7.50067 1.19702 7.49998C1.28846 7.50067 1.37911 7.48296 1.46357 7.4479C1.54803 7.41283 1.62457 7.36113 1.68864 7.29587L6.10861 2.87508V4.48939C6.10861 4.67393 6.18191 4.85091 6.31238 4.98141C6.44284 5.1119 6.6198 5.18521 6.80431 5.18521C6.98882 5.18521 7.16577 5.1119 7.29624 4.98141C7.4267 4.85091 7.5 4.67393 7.5 4.48939V1.19582C7.49792 1.11684 7.48385 1.03863 7.45826 0.963882Z" fill="black"/>
</g>
</g>
</svg>
