<svg width="26" height="26" viewBox="0 0 26 26" fill="none" xmlns="http://www.w3.org/2000/svg">
<g clip-path="url(#clip0_1254_468)">
<path d="M22.6587 11.8973C19.6832 10.6536 17.1014 8.46531 15.3696 5.71027L14.4408 7.45775C15.8262 9.39415 17.6209 11.0629 19.6518 12.3066C19.9509 12.4955 19.9509 12.9049 19.6518 13.0938C17.0699 14.6681 14.9288 16.8879 13.449 19.5484C13.2601 19.879 12.8193 19.879 12.6461 19.5484C11.1662 16.9036 9.02519 14.6681 6.44332 13.0938C6.14421 12.9049 6.14421 12.4955 6.44332 12.3066C8.8835 10.7953 10.8671 8.65423 12.4099 6.26128C13.3073 4.86014 13.9528 2.7978 13.9528 2.7978C13.8583 2.60889 13.9213 2.75057 13.8583 2.56166L13.0397 0.200195L12.221 2.56166C10.7569 6.76506 7.54534 10.1813 3.42065 11.8973L1.5 12.7002L3.42065 13.5031C7.54534 15.2191 10.7569 18.6353 12.221 22.8387L13.0397 25.2002L13.8583 22.8387C15.3224 18.6353 18.534 15.2191 22.6587 13.5031L24.5793 12.7002L22.6587 11.8973Z" fill="white"/>
</g>
<defs>
<clipPath id="clip0_1254_468">
<rect width="26" height="26" rx="8" fill="white"/>
</clipPath>
</defs>
</svg>
