<svg xmlns="http://www.w3.org/2000/svg" width="12" height="11.997" viewBox="0 0 12 11.997">
  <g id="Layer_2" data-name="Layer 2" transform="translate(-0.017 0.084)">
    <g id="Layer_1" data-name="Layer 1" transform="translate(0.017 -0.084)">
      <g id="Group_106532" data-name="Group 106532" transform="translate(6.934 0)">
        <path id="Path_2" data-name="Path 2" d="M86.268,2.606A3.521,3.521,0,0,1,88.522,4.86a.161.161,0,0,0,.312,0,3.529,3.529,0,0,1,2.254-2.254.161.161,0,0,0,0-.312,3.492,3.492,0,0,1-1.4-.858,3.506,3.506,0,0,1-.853-1.4.161.161,0,0,0-.312,0,3.522,3.522,0,0,1-.858,1.4,3.5,3.5,0,0,1-1.4.858.161.161,0,0,0,0,.312Z" transform="translate(-86.144 0.084)" fill="#fff" opacity="0.5"/>
        <path id="Path_4" data-name="Path 4" d="M117.724,2.683a3.521,3.521,0,0,1,2.254,2.254.161.161,0,0,0,.155.114V0a.161.161,0,0,0-.155.114,3.521,3.521,0,0,1-.858,1.4,3.5,3.5,0,0,1-1.4.858.161.161,0,0,0,0,.312Z" transform="translate(-117.6 0.007)" fill="#fff"/>
      </g>
      <g id="Group_172059" data-name="Group 172059" transform="translate(0 3.453)">
        <path id="Path_1" data-name="Path 1" d="M8.353,4.009A5.958,5.958,0,0,1,4.536.192a.278.278,0,0,0-.528,0A5.921,5.921,0,0,1,2.559,2.558,5.93,5.93,0,0,1,.193,4.007a.277.277,0,0,0,0,.528A5.923,5.923,0,0,1,2.559,5.984,5.909,5.909,0,0,1,4.008,8.35a.278.278,0,0,0,.528,0A5.938,5.938,0,0,1,8.351,4.535a.278.278,0,0,0,0-.527Z" transform="translate(0.006 0.002)" fill="#fff" opacity="0.5"/>
        <path id="Path_3" data-name="Path 3" d="M53.519,47.336a5.958,5.958,0,0,1,3.817,3.817.272.272,0,0,0,.242.191c0-.021.006-8.461,0-8.544a.272.272,0,0,0-.242.19,5.938,5.938,0,0,1-3.815,3.815.278.278,0,0,0,0,.531Z" transform="translate(-53.324 -42.8)" fill="#fff"/>
      </g>
    </g>
  </g>
</svg>
