<svg xmlns="http://www.w3.org/2000/svg" viewBox="0 0 33.59 31.23"><defs><style>.cls-1{fill:#6e7881;}</style></defs><g id="Layer_2" data-name="Layer 2"><g id="Layer_1-2" data-name="Layer 1"><path class="cls-1" d="M28.44,24H11.22a3.51,3.51,0,0,1-3.5-2.88,3.43,3.43,0,0,1,1.6-3.45L6.07,3H1.51a1.51,1.51,0,1,1,0-3H7.28A1.51,1.51,0,0,1,8.75,1.18l.58,2.63H32.08a1.5,1.5,0,0,1,1.45,1.92l-3.7,12.69a2.41,2.41,0,0,1-2.29,1.72H11.08a.4.4,0,0,0,0,.79H28.44a1.51,1.51,0,0,1,0,3ZM1.51,1.11a.4.4,0,0,0-.4.4.39.39,0,0,0,.4.39h5a.57.57,0,0,1,.55.44L10.49,17.8a.55.55,0,0,1-.32.63A2.3,2.3,0,0,0,8.81,20.9a2.4,2.4,0,0,0,2.41,1.94H28.44a.4.4,0,0,0,0-.8H11.08a1.51,1.51,0,0,1,0-3H27.54a1.27,1.27,0,0,0,1.22-.92l3.7-12.69a.38.38,0,0,0-.38-.5H8.89a.55.55,0,0,1-.54-.44L7.67,1.42a.4.4,0,0,0-.39-.31Z"/><path class="cls-1" d="M14.3,31.23a3.34,3.34,0,1,1,3.34-3.34A3.34,3.34,0,0,1,14.3,31.23Zm0-5.56a2.23,2.23,0,1,0,2.23,2.22A2.22,2.22,0,0,0,14.3,25.67Z"/><path class="cls-1" d="M25.08,31.23a3.34,3.34,0,1,1,3.34-3.34A3.35,3.35,0,0,1,25.08,31.23Zm0-5.56a2.23,2.23,0,1,0,2.23,2.22A2.22,2.22,0,0,0,25.08,25.67Z"/></g></g></svg>