<svg xmlns="http://www.w3.org/2000/svg" viewBox="0 0 42.33 31.6"><defs><style>.cls-1{fill:#6e7881;}</style></defs><g id="Layer_2" data-name="Layer 2"><g id="Layer_1-2" data-name="Layer 1"><path class="cls-1" d="M14.31,24.57a3.34,3.34,0,1,0,3.34,3.34A3.34,3.34,0,0,0,14.31,24.57Zm0,5.57a2.23,2.23,0,1,1,2.23-2.23A2.23,2.23,0,0,1,14.31,30.14Z"/><path class="cls-1" d="M33.05,13a9.69,9.69,0,0,0-1.63.15l2.13-7.46A1.51,1.51,0,0,0,32.1,3.81H9.34L8.76,1.18A1.51,1.51,0,0,0,7.28,0H1.51a1.51,1.51,0,0,0,0,3H6.07L9.32,17.64A3.41,3.41,0,0,0,11.09,24H23.92c0,.26.11.52.18.77a3.33,3.33,0,1,0,3.61,5.17A9.28,9.28,0,1,0,33.05,13Zm-22,9.81a2.3,2.3,0,0,1-.91-4.41.56.56,0,0,0,.32-.63L7.06,2.34a.57.57,0,0,0-.54-.44h-5a.39.39,0,0,1-.4-.39.4.4,0,0,1,.4-.4H7.28a.4.4,0,0,1,.39.31l.68,3.06a.55.55,0,0,0,.54.44H32.1a.42.42,0,0,1,.32.16.38.38,0,0,1,.06.34L30.17,13.5A9.3,9.3,0,0,0,24.38,19H11.09a1.51,1.51,0,0,0,0,3H23.78c0,.08,0,.17,0,.26s0,.35,0,.53ZM23.88,21H11.09a.4.4,0,0,1,0-.8H24C24,20.41,23.92,20.68,23.88,21Zm1.19,9.19a2.22,2.22,0,0,1-.63-4.36,9.45,9.45,0,0,0,2.41,3.43A2.19,2.19,0,0,1,25.07,30.14Zm8,.35a8.17,8.17,0,1,1,8.17-8.17A8.17,8.17,0,0,1,33.05,30.49Z"/><path class="cls-1" d="M36.6,19.38,31.89,24l-2.38-2.34a.59.59,0,0,0-.84,0,.6.6,0,0,0,0,.84l2.8,2.75a.6.6,0,0,0,.84,0l5.12-5a.59.59,0,1,0-.83-.85Z"/></g></g></svg>