<svg xmlns="http://www.w3.org/2000/svg" viewBox="0 0 40 40"><defs><style>.cls-1,.cls-2,.cls-3{fill:none;}.cls-2,.cls-3{stroke:#6e7883;stroke-linecap:round;stroke-linejoin:round;stroke-width:0.92px;}.cls-2{fill-rule:evenodd;}</style></defs><g id="Layer_2" data-name="Layer 2"><g id="Layer_1-2" data-name="Layer 1"><rect class="cls-1" width="40" height="40"/><path class="cls-2" d="M5.21,20.6h7.4"/><path class="cls-2" d="M5.21,18.51H19.08"/><path class="cls-2" d="M5.21,16.43h7.4"/><path class="cls-2" d="M5.21,22.68H19.08"/><path class="cls-2" d="M5.21,26.85H19.08"/><path class="cls-2" d="M5.21,24.77h7.4"/><path class="cls-2" d="M2.25,12.17H31.67"/><path class="cls-2" d="M3.8,10.75h0"/><path class="cls-2" d="M5.21,10.75h0"/><path class="cls-2" d="M6.62,10.75h0"/><path class="cls-2" d="M31.67,20.21v-9.5a1.5,1.5,0,0,0-1.5-1.5h-27a1.5,1.5,0,0,0-1.5,1.5V29.56a1.51,1.51,0,0,0,1.5,1.5H24.66"/><circle class="cls-3" cx="31.03" cy="27.49" r="7.31"/><polyline class="cls-3" points="29.4 29.35 27.61 27.56 29.4 25.77"/><polyline class="cls-3" points="32.65 29.35 34.44 27.56 32.65 25.77"/><line class="cls-3" x1="31.83" y1="24.57" x2="30.22" y2="30.4"/></g></g></svg>