<?xml version="1.0" encoding="UTF-8"?>
<svg xmlns="http://www.w3.org/2000/svg" version="1.1" viewBox="0 0 40 40">
  <defs>
    <style>
      .cls-1 {
        fill: #6c7881;
      }
    </style>
  </defs>
  <!-- Generator: Adobe Illustrator 28.7.2, SVG Export Plug-In . SVG Version: 1.2.0 Build 154)  -->
  <g>
    <g id="Layer_1">
      <g id="Layer_1-2" data-name="Layer_1">
        <g>
          <g>
            <path class="cls-1" d="M12.1,28.4h19.1c.3,0,.6-.3.6-.6s-.3-.6-.6-.6H12.1c-.3,0-.6.3-.6.6s.3.6.6.6Z"/>
            <path class="cls-1" d="M35.5,31.1H12.1c-.3,0-.6.3-.6.6s.3.6.6.6h23.4c.3,0,.6-.3.6-.6s-.3-.6-.6-.6Z"/>
            <path class="cls-1" d="M12.1,8.9h19.1c.3,0,.6-.3.6-.6s-.3-.6-.6-.6H12.1c-.3,0-.6.3-.6.6s.3.6.6.6Z"/>
            <path class="cls-1" d="M12.1,12.8h23.4c.3,0,.6-.3.6-.6s-.3-.6-.6-.6H12.1c-.3,0-.6.3-.6.6s.3.6.6.6Z"/>
          </g>
          <g>
            <path class="cls-1" d="M6.2,12.8c-1,0-1.7.8-1.7,1.7v11c0,1,.8,1.7,1.7,1.7s1.7-.8,1.7-1.7v-11c0-.9-.8-1.7-1.7-1.7ZM7.1,25.5c0,.5-.4.9-.9.9s-.9-.4-.9-.9v-5.8c.3.2.6.3.9.3s.6-.1.9-.3v5.8Z"/>
            <path class="cls-1" d="M12.1,18.7h19.1c.3,0,.6-.3.6-.6s-.3-.6-.6-.6H12.1c-.3,0-.6.3-.6.6s.3.6.6.6Z"/>
            <path class="cls-1" d="M35.5,21.3H12.1c-.3,0-.6.3-.6.6s.3.6.6.6h23.4c.3,0,.6-.3.6-.6s-.3-.6-.6-.6Z"/>
          </g>
        </g>
      </g>
    </g>
  </g>
</svg>