<?xml version="1.0" encoding="utf-8"?>
<!-- Generator: Adobe Illustrator 23.0.1, SVG Export Plug-In . SVG Version: 6.00 Build 0)  -->
<svg version="1.1" id="Layer_1" xmlns="http://www.w3.org/2000/svg" xmlns:xlink="http://www.w3.org/1999/xlink" x="0px" y="0px"
	 viewBox="0 0 32.05 31.23" style="enable-background:new 0 0 32.05 31.23;" xml:space="preserve">
<g>
	<path style="fill:#6E7883;" d="M30.51,1.46c0.03,0,0.06,0,0.07,0.04c0.01,0.04,0,0.07-0.01,0.09L19.23,15.29
		c-0.44,0.54-0.68,1.21-0.68,1.91v12.48c0,0.06-0.04,0.07-0.09,0.07c-0.01,0-0.03,0-0.03,0l-4.88-2.48
		c-0.03-0.01-0.04-0.04-0.04-0.07V17.2c0-0.7-0.25-1.37-0.68-1.91L1.49,1.59C1.48,1.56,1.46,1.54,1.48,1.5
		c0.01-0.04,0.04-0.04,0.07-0.04L30.51,1.46 M30.51,0H1.55C0.24,0-0.47,1.51,0.36,2.52l11.33,13.71c0.23,0.28,0.35,0.63,0.35,0.98
		v10.01c0,0.58,0.32,1.11,0.84,1.37l4.88,2.48c0.23,0.12,0.47,0.17,0.7,0.17c0.8,0,1.54-0.66,1.54-1.54V17.2
		c0-0.36,0.13-0.7,0.35-0.98L31.69,2.52C32.53,1.51,31.82,0,30.51,0L30.51,0z"/>
</g>
</svg>
