<?xml version="1.0" encoding="UTF-8"?>
<svg xmlns="http://www.w3.org/2000/svg" version="1.1" viewBox="0 0 40 40">
  <defs>
    <style>
      .cls-1 {
        fill: none;
      }

      .cls-2 {
        fill: #6c7881;
      }
    </style>
  </defs>
  <!-- Generator: Adobe Illustrator 28.6.0, SVG Export Plug-In . SVG Version: 1.2.0 Build 709)  -->
  <g>
    <g id="Layer_1">
      <g>
        <path class="cls-1" d="M0,0v40h40V0H0ZM21.18,28.09h-2.36v-9.84h2.36v9.84ZM20,15.88c-1.1,0-1.99-.89-1.99-1.99s.89-1.98,1.99-1.98,1.99.89,1.99,1.98-.89,1.99-1.99,1.99Z"/>
        <path class="cls-2" d="M20,5c-8.27,0-15,6.73-15,15s6.73,15,15,15,15-6.73,15-15-6.73-15-15-15ZM21.18,28.09h-2.36v-9.84h2.36v9.84ZM20,15.88c-1.1,0-1.99-.89-1.99-1.99s.89-1.98,1.99-1.98,1.99.89,1.99,1.98-.89,1.99-1.99,1.99Z"/>
      </g>
    </g>
  </g>
</svg>