<?xml version="1.0" encoding="UTF-8"?>
<svg xmlns="http://www.w3.org/2000/svg" version="1.1" viewBox="0 0 40 40">
  <defs>
    <style>
      .cls-1 {
        fill: none;
      }

      .cls-2 {
        fill: #6c7881;
      }
    </style>
  </defs>
  <!-- Generator: Adobe Illustrator 28.6.0, SVG Export Plug-In . SVG Version: 1.2.0 Build 709)  -->
  <g>
    <g id="Layer_1">
      <g>
        <rect class="cls-1" width="40" height="40"/>
        <g>
          <g>
            <path class="cls-2" d="M25.97,7c2.46,0,4.46,2,4.46,4.46s-2,4.46-4.46,4.46-4.46-2-4.46-4.46,2-4.46,4.46-4.46M25.97,6.09c-2.97,0-5.38,2.41-5.38,5.38s2.41,5.38,5.38,5.38,5.38-2.41,5.38-5.38-2.41-5.38-5.38-5.38h0Z"/>
            <path class="cls-2" d="M18.13,7v8.92h-8.92V7h8.92M19.05,6.09h-10.75v10.75h10.75V6.09h0Z"/>
            <path class="cls-2" d="M13.64,19.28c2.46,0,4.46,2,4.46,4.46s-2,4.46-4.46,4.46-4.46-2-4.46-4.46,2-4.46,4.46-4.46M13.64,18.37c-2.97,0-5.38,2.41-5.38,5.38s2.41,5.38,5.38,5.38,5.38-2.41,5.38-5.38-2.41-5.38-5.38-5.38h0Z"/>
            <path class="cls-2" d="M25.38,20.17l4.76,8.04h-9.51l4.76-8.04M25.38,18.37l-6.36,10.76h12.72l-6.36-10.76h0Z"/>
          </g>
          <g>
            <path class="cls-2" d="M8.87,33.13h.5v2.29h1.17v.44h-1.67v-2.73Z"/>
            <path class="cls-2" d="M11.41,35.73c-.22-.12-.39-.29-.51-.51-.12-.22-.19-.45-.19-.72s.06-.5.19-.72c.12-.22.3-.38.51-.51.22-.12.46-.18.73-.18s.51.06.73.18c.22.12.39.29.52.51.13.22.19.45.19.72s-.06.5-.19.72c-.13.22-.3.38-.52.51-.22.12-.46.19-.73.19s-.51-.06-.73-.19ZM11.33,34.99c.08.15.19.26.33.34.14.08.3.12.47.12s.33-.04.47-.12c.14-.08.25-.2.33-.34.08-.15.12-.31.12-.49s-.04-.34-.12-.49c-.08-.15-.19-.26-.33-.34-.14-.08-.3-.12-.47-.12s-.33.04-.47.12c-.14.08-.25.2-.33.34-.08.15-.12.31-.12.49s.04.34.12.49Z"/>
            <path class="cls-2" d="M14.6,35.73c-.21-.12-.38-.29-.5-.51s-.18-.46-.18-.72.06-.51.18-.72c.12-.22.28-.38.49-.5.21-.12.44-.18.7-.18.19,0,.36.03.52.1.16.06.29.15.4.26.11.11.19.23.24.36l-.44.21c-.05-.14-.14-.26-.27-.35-.12-.09-.27-.13-.44-.13s-.32.04-.45.12c-.13.08-.23.19-.31.34s-.11.31-.11.5.04.36.11.5c.07.15.18.26.31.34.13.08.28.12.45.12.14,0,.27-.03.39-.08s.21-.14.28-.24c.07-.1.1-.22.1-.36h0s-.78-.01-.78-.01v-.42h1.28v.28c0,.27-.06.5-.18.7-.12.19-.28.34-.47.44-.19.1-.4.15-.63.15-.26,0-.49-.06-.7-.18Z"/>
            <path class="cls-2" d="M17.59,35.73c-.22-.12-.39-.29-.51-.51-.12-.22-.19-.45-.19-.72s.06-.5.19-.72c.12-.22.3-.38.51-.51.22-.12.46-.18.73-.18s.51.06.73.18c.22.12.39.29.52.51.13.22.19.45.19.72s-.06.5-.19.72c-.13.22-.3.38-.52.51-.22.12-.46.19-.73.19s-.51-.06-.73-.19ZM17.51,34.99c.08.15.19.26.33.34.14.08.3.12.47.12s.33-.04.47-.12c.14-.08.25-.2.33-.34.08-.15.12-.31.12-.49s-.04-.34-.12-.49c-.08-.15-.19-.26-.33-.34-.14-.08-.3-.12-.47-.12s-.33.04-.47.12c-.14.08-.25.2-.33.34-.08.15-.12.31-.12.49s.04.34.12.49Z"/>
            <path class="cls-2" d="M20.19,33.13h.5v2.73h-.5v-2.73Z"/>
            <path class="cls-2" d="M21.21,33.13h1.02c.19,0,.35.03.5.1.14.07.26.17.34.3.08.13.12.28.12.47s-.04.33-.12.46c-.08.13-.19.23-.34.3-.14.07-.31.1-.49.1h-.52v1.01h-.5v-2.73ZM22.24,34.42c.13,0,.24-.04.32-.12.08-.08.12-.18.12-.31s-.04-.23-.12-.31c-.08-.08-.19-.12-.32-.12h-.53v.84h.53Z"/>
            <path class="cls-2" d="M24.01,35.79c-.16-.08-.28-.18-.37-.31-.09-.12-.14-.25-.17-.39l.47-.12c.04.15.11.27.22.35s.25.12.41.12c.13,0,.23-.03.31-.1s.12-.14.12-.23c0-.08-.03-.15-.09-.21-.06-.06-.14-.1-.23-.12l-.41-.08c-.22-.04-.39-.14-.51-.28-.12-.15-.19-.33-.19-.54,0-.15.04-.28.13-.41s.2-.22.34-.29.29-.11.45-.11c.2,0,.38.03.52.1.14.07.25.15.33.26.08.1.13.21.16.33l-.47.15c-.05-.13-.12-.23-.21-.28-.09-.06-.2-.09-.33-.09-.08,0-.14.02-.2.05-.06.03-.11.07-.14.12-.03.05-.05.1-.05.15,0,.08.03.15.08.21.05.06.13.1.22.12l.39.08c.24.05.42.15.55.29.13.14.19.31.19.51,0,.14-.04.28-.12.4-.08.12-.19.23-.34.3-.15.08-.32.12-.51.12-.22,0-.4-.04-.56-.12Z"/>
            <path class="cls-2" d="M26.46,35.78c-.16-.09-.29-.21-.39-.36-.09-.16-.14-.33-.14-.52v-1.76h.5v1.73c0,.17.05.32.16.43.11.11.25.17.42.17s.31-.06.42-.17c.11-.11.16-.25.16-.43v-1.73h.5v1.76c0,.19-.05.37-.14.52-.09.16-.22.28-.39.36-.16.09-.35.13-.56.13s-.39-.04-.56-.13Z"/>
            <path class="cls-2" d="M28.6,33.13h.48l.91,1.23.89-1.23h.48v2.73h-.5v-1.86l-.84,1.12h-.06l-.85-1.16v1.89h-.5v-2.73Z"/>
          </g>
        </g>
      </g>
    </g>
  </g>
</svg>