<svg xmlns="http://www.w3.org/2000/svg" viewBox="0 0 40 40"><defs><style>.cls-1,.cls-2,.cls-3{fill:none;}.cls-2,.cls-3{stroke:#6e7883;stroke-linecap:round;stroke-linejoin:round;stroke-width:0.92px;}.cls-3{fill-rule:evenodd;}</style></defs><g id="Layer_2" data-name="Layer 2"><g id="Layer_1-2" data-name="Layer 1"><rect class="cls-1" width="40" height="40"/><path class="cls-2" d="M33.05,30.53V8.77A1.81,1.81,0,0,0,31.24,7H8.76A1.81,1.81,0,0,0,7,8.77V31.24a1.82,1.82,0,0,0,1.81,1.82H30.39"/><path class="cls-3" d="M32.88,33.45l1.19,1.43"/><path class="cls-3" d="M35,31.53,32.77,33l-1.85,1.81L29,28.36Z"/><path class="cls-2" d="M14.15,27.38A4.61,4.61,0,0,0,17.34,26a22.42,22.42,0,0,0,2.38-3c.89-1.38,1.61-2.88,2.48-4.28a22.17,22.17,0,0,1,1.86-2.55,2.88,2.88,0,0,1,2.06-1,1.22,1.22,0,0,0,1.26-1.28,1.25,1.25,0,0,0-1.44-1.16,4.62,4.62,0,0,0-3.3,1.44,21.59,21.59,0,0,0-2.37,3c-.89,1.37-1.59,2.85-2.45,4.24a23,23,0,0,1-1.9,2.59,2.87,2.87,0,0,1-2.07,1,1.21,1.21,0,0,0-1.22,1.31C12.68,26.94,13.24,27.39,14.15,27.38Z"/></g></g></svg>