<svg xmlns="http://www.w3.org/2000/svg" viewBox="0 0 42.33 35.13"><defs><style>.cls-1{fill:#6e7881;}</style></defs><g id="Layer_2" data-name="Layer 2"><g id="Layer_1-2" data-name="Layer 1"><path class="cls-1" d="M39.67,0h-37A2.66,2.66,0,0,0,0,2.66V32.47a2.66,2.66,0,0,0,2.66,2.66h37a2.67,2.67,0,0,0,2.66-2.66V2.66A2.67,2.67,0,0,0,39.67,0Zm-37,1.21h37a1.45,1.45,0,0,1,1.44,1.45v2H1.21v-2A1.45,1.45,0,0,1,2.66,1.21Zm37,32.71h-37a1.45,1.45,0,0,1-1.45-1.45V5.85h39.9V32.47A1.45,1.45,0,0,1,39.67,33.92Z"/><path class="cls-1" d="M12.62,12a7.09,7.09,0,1,0,7.08,7.09A7.1,7.1,0,0,0,12.62,12ZM16.36,23.6c-.17-2.68-.86-3.82-2.06-3.82H10.92c-1.2,0-1.91,1.13-2.08,3.79a5.87,5.87,0,1,1,7.52,0Z"/><path class="cls-1" d="M12.61,14.93a2,2,0,1,0,2,2A2,2,0,0,0,12.61,14.93Z"/><path class="cls-1" d="M36.19,21.41H24.5a.53.53,0,1,0,0,1.06H36.19a.53.53,0,1,0,0-1.06Z"/><path class="cls-1" d="M24.5,19.62h9a.54.54,0,0,0,0-1.07h-9a.54.54,0,0,0,0,1.07Z"/><path class="cls-1" d="M24.5,16.76h6.24a.54.54,0,0,0,0-1.07H24.5a.54.54,0,0,0,0,1.07Z"/><path class="cls-1" d="M3.2,3.56a.79.79,0,0,0,.22,0,.63.63,0,0,0,.44-.18A.61.61,0,0,0,4,3a.64.64,0,0,0-.17-.44.62.62,0,0,0-.66-.13.77.77,0,0,0-.2.13A.6.6,0,0,0,2.83,3,.57.57,0,0,0,3,3.43.46.46,0,0,0,3.2,3.56Z"/><path class="cls-1" d="M5.62,3.61a.93.93,0,0,0,.24,0,.63.63,0,0,0,.2-.13A.64.64,0,0,0,6.24,3a.67.67,0,0,0-.18-.44,1.37,1.37,0,0,0-.2-.13.64.64,0,0,0-.66.13,1,1,0,0,0-.13.2A.71.71,0,0,0,5,3a.59.59,0,0,0,.19.43A.62.62,0,0,0,5.62,3.61Z"/><path class="cls-1" d="M7.4,3.43a.59.59,0,0,0,.43.18.58.58,0,0,0,.42-.18.37.37,0,0,0,.13-.2A.46.46,0,0,0,8.44,3a.63.63,0,0,0-.19-.44.77.77,0,0,0-.2-.13.62.62,0,0,0-.65.13A.6.6,0,0,0,7.22,3a.46.46,0,0,0,0,.23A.53.53,0,0,0,7.4,3.43Z"/></g></g></svg>