<svg xmlns="http://www.w3.org/2000/svg" viewBox="0 0 40 40"><defs><style>.cls-1,.cls-2,.cls-3,.cls-4{fill:none;}.cls-2,.cls-3,.cls-4{stroke:#6e7883;stroke-linecap:round;stroke-linejoin:round;}.cls-2,.cls-3{stroke-width:0.92px;}.cls-3{fill-rule:evenodd;}.cls-4{stroke-width:0.91px;}</style></defs><g id="Layer_2" data-name="Layer 2"><g id="Layer_1-2" data-name="Layer 1"><rect class="cls-1" width="40" height="40"/><path class="cls-2" d="M33.05,30.53V8.77A1.81,1.81,0,0,0,31.24,7H8.76A1.81,1.81,0,0,0,7,8.77V31.24a1.82,1.82,0,0,0,1.81,1.82H30.39"/><path class="cls-3" d="M32.88,33.45l1.19,1.43"/><path class="cls-3" d="M35,31.53,32.77,33l-1.85,1.81L29,28.36Z"/><g id="r89P3C"><path class="cls-2" d="M25.76,17.43a3.64,3.64,0,0,1,1.43,3.42A3.78,3.78,0,0,1,24.3,24a5.67,5.67,0,0,1-1.16.09h-2c-.12,0-.17,0-.19.16-.12.84-.25,1.68-.37,2.51-.05.35-.09.7-.14,1a.33.33,0,0,1-.35.31q-1.46,0-2.91,0c-.28,0-.39-.19-.33-.48L17,26.39"/></g><path class="cls-2" d="M14.24,26.38c-.39,0-.5-.11-.45-.49.19-1.39.39-2.78.59-4.17l.63-4.5c.2-1.47.41-2.95.62-4.42,0-.24.15-.33.42-.33h3.24c.88,0,1.76,0,2.65,0a4.3,4.3,0,0,1,3.77,3.67,4.69,4.69,0,0,1,.05,1.24l-.14.73a4.52,4.52,0,0,1-4.28,3.31H18.56c-.16,0-.22,0-.23.2s-.47,3.3-.67,4.68a0,0,0,0,1,0,0Z"/><path class="cls-4" d="M18,24.41c.17-1.24.34-2.47.52-3.71s.33-2.43.5-3.64c0-.2.12-.27.35-.27H22c.73,0,1.45,0,2.17,0a3.24,3.24,0,0,1,1.69.67"/></g></g></svg>