<svg xmlns="http://www.w3.org/2000/svg" viewBox="0 0 40 40"><defs><style>.cls-1,.cls-2,.cls-3{fill:none;}.cls-2,.cls-3{stroke:#6e7883;stroke-linecap:round;stroke-linejoin:round;stroke-width:0.92px;}.cls-2{fill-rule:evenodd;}</style></defs><g id="Layer_2" data-name="Layer 2"><g id="Layer_1-2" data-name="Layer 1"><rect class="cls-1" width="40" height="40"/><path class="cls-2" d="M6.05,9.87H34a1.55,1.55,0,0,1,1.55,1.55V30.89A1.55,1.55,0,0,1,34,32.44H6.05A1.54,1.54,0,0,1,4.5,30.89V11.42A1.54,1.54,0,0,1,6.05,9.87Z"/><line class="cls-3" x1="35.5" y1="17.1" x2="21.2" y2="20.38"/><line class="cls-3" x1="18.79" y1="20.38" x2="4.5" y2="17.1"/><path class="cls-2" d="M24.3,9.87h0a4.3,4.3,0,1,0-8.6,0h0"/><rect class="cls-3" x="18.8" y="18.87" width="2.4" height="3.29" rx="1.2"/></g></g></svg>