<svg xmlns="http://www.w3.org/2000/svg" viewBox="0 0 40 40"><defs><style>.cls-1,.cls-2{fill:none;}.cls-2{stroke:#6e7883;stroke-linecap:round;stroke-linejoin:round;stroke-width:0.92px;}.cls-3{fill:#6e7883;}</style></defs><g id="Layer_2" data-name="Layer 2"><g id="Layer_1-2" data-name="Layer 1"><rect class="cls-1" width="40" height="40"/><rect class="cls-2" x="8.01" y="10.84" width="23.98" height="4.24" rx="2.12"/><rect class="cls-2" x="8.01" y="17.88" width="23.98" height="4.24" rx="2.12"/><rect class="cls-2" x="8.01" y="24.92" width="23.98" height="4.24" rx="2.12"/><path class="cls-3" d="M26.65,10.84v4.24H10.13a2.12,2.12,0,0,1-1.5-3.62,2.07,2.07,0,0,1,1.5-.62Z"/><path class="cls-3" d="M20,17.88v4.24H10.13A2.12,2.12,0,0,1,8,20a2.15,2.15,0,0,1,.62-1.5,2.12,2.12,0,0,1,1.5-.62Z"/><path class="cls-3" d="M13.35,24.92v4.24H10.13a2.12,2.12,0,1,1,0-4.24Z"/></g></g></svg>