<svg xmlns="http://www.w3.org/2000/svg" viewBox="0 0 42.33 35.13"><defs><style>.cls-1{fill:#6e7881;}</style></defs><g id="Layer_2" data-name="Layer 2"><g id="Layer_1-2" data-name="Layer 1"><path class="cls-1" d="M30.15,30h-18a.61.61,0,0,1,0-1.21h18a.61.61,0,0,1,0,1.21Z"/><path class="cls-1" d="M32.8,25.66H9.53a.61.61,0,0,1-.61-.61.61.61,0,0,1,.61-.61H32.8a.61.61,0,0,1,.61.61A.61.61,0,0,1,32.8,25.66Z"/><path class="cls-1" d="M35.45,21.55H6.88a.61.61,0,0,1-.61-.61.61.61,0,0,1,.61-.61H35.45a.61.61,0,0,1,.61.61A.61.61,0,0,1,35.45,21.55Z"/><path class="cls-1" d="M42.3,7.94a.59.59,0,0,0-.16-.58L34.53.17A.58.58,0,0,0,34,0l-.09,0H2.66A2.67,2.67,0,0,0,0,2.66V32.47a2.67,2.67,0,0,0,2.66,2.66h37a2.66,2.66,0,0,0,2.66-2.66V8.06A.53.53,0,0,0,42.3,7.94Zm-1.8-.46-6,.11V1.83Zm.61,25a1.44,1.44,0,0,1-1.44,1.45h-37a1.46,1.46,0,0,1-1.45-1.45V2.66A1.46,1.46,0,0,1,2.66,1.21H33.31v7a.61.61,0,0,0,.19.44.59.59,0,0,0,.43.17l7.19-.14Z"/><path class="cls-1" d="M19,12.6h6.43a.38.38,0,0,0,.35-.26l1.42-5a.36.36,0,0,0-.34-.45H18.21L18,5.76a.35.35,0,0,0-.35-.28H15.44a.36.36,0,0,0,0,.71h1.88L18.6,12A1.06,1.06,0,0,0,19,14h6.43a.36.36,0,1,0,0-.71H19a.36.36,0,1,1,0-.71Z"/><path class="cls-1" d="M19.19,15.71a1,1,0,1,0,1-1A1,1,0,0,0,19.19,15.71Z"/><path class="cls-1" d="M23.22,15.71a1,1,0,1,0,1-1A1,1,0,0,0,23.22,15.71Z"/></g></g></svg>