<svg xmlns="http://www.w3.org/2000/svg" viewBox="0 0 40 40"><defs><style>.cls-1,.cls-2{fill:none;}.cls-2{stroke:#6e7883;stroke-linecap:round;stroke-linejoin:round;stroke-width:0.92px;}</style></defs><g id="Layer_2" data-name="Layer 2"><g id="Layer_1-2" data-name="Layer 1"><rect class="cls-1" width="40" height="40"/><path class="cls-2" d="M26.94,17.14l1.72-3.46a.46.46,0,0,1,.83,0l1.78,3.58a.47.47,0,0,0,.34.26l4,.57a.47.47,0,0,1,.26.8L33,21.69a.43.43,0,0,0-.12.41L33.51,26a.46.46,0,0,1-.67.48l-3.55-1.86a.47.47,0,0,0-.43,0L25.7,26.33"/><path class="cls-2" d="M13.05,17.14l-1.7-3.46a.47.47,0,0,0-.84,0L8.74,17.26a.51.51,0,0,1-.36.26l-4,.57a.47.47,0,0,0-.24.8L7,21.69a.44.44,0,0,1,.14.41L6.5,26a.46.46,0,0,0,.67.48l3.53-1.86a.49.49,0,0,1,.44,0l3.17,1.67"/><path class="cls-2" d="M20.57,11.42,23,16.29a.63.63,0,0,0,.47.35l5.38.78a.63.63,0,0,1,.35,1.07l-3.89,3.79a.62.62,0,0,0-.18.56L26,28.19a.64.64,0,0,1-.92.67l-4.81-2.53a.6.6,0,0,0-.58,0L14.9,28.86a.63.63,0,0,1-.91-.67l.92-5.35a.67.67,0,0,0-.18-.56l-3.89-3.79a.62.62,0,0,1,.34-1.07l5.38-.78a.63.63,0,0,0,.47-.35l2.41-4.87A.63.63,0,0,1,20.57,11.42Z"/></g></g></svg>