<?xml version="1.0" encoding="UTF-8"?>
<svg id="Layer_1" data-name="Layer 1" xmlns="http://www.w3.org/2000/svg" version="1.1" viewBox="0 0 40 40">
  <defs>
    <style>
      .cls-1 {
        fill: none;
      }

      .cls-1, .cls-2 {
        stroke-width: 0px;
      }

      .cls-2 {
        fill: #6c7881;
      }
    </style>
  </defs>
  <rect class="cls-1" x="0" y="0" width="40" height="40"/>
  <g>
    <path class="cls-2" d="M36,10.53s-.01-.06-.02-.09v-1.65c0-1.27-1.04-2.31-2.31-2.31H6.32c-1.27,0-2.31,1.04-2.31,2.31v22.43c0,1.27,1.04,2.31,2.31,2.31h27.36c1.27,0,2.31-1.04,2.31-2.31V10.62s.02-.06.02-.09ZM6.32,7.53h27.36c.69,0,1.26.56,1.26,1.26v1.2H5.16s-.07.01-.1.02v-1.22c0-.69.56-1.26,1.26-1.26ZM33.67,32.47H6.32c-.69,0-1.26-.56-1.26-1.26V11.06s.07.02.1.02h29.77v20.13c0,.69-.56,1.26-1.26,1.26Z"/>
    <path class="cls-2" d="M7,9.4c.14,0,.29-.06.39-.17.1-.11.15-.24.15-.38,0-.15-.06-.29-.15-.39-.21-.2-.57-.2-.78,0-.11.11-.17.24-.17.39,0,.14.06.27.17.38s.24.17.38.17Z"/>
    <path class="cls-2" d="M8.69,9.39c.14,0,.27-.05.38-.16.11-.11.15-.24.15-.38,0-.15-.05-.29-.15-.39-.2-.2-.57-.2-.78,0-.11.11-.15.24-.15.39,0,.14.05.27.15.38.11.11.24.16.39.16Z"/>
    <path class="cls-2" d="M10.37,9.39c.14,0,.27-.05.38-.16.11-.11.15-.24.15-.38,0-.15-.05-.29-.15-.39-.2-.2-.56-.2-.78,0-.11.11-.15.24-.15.39,0,.14.05.27.15.38.11.11.24.16.39.16Z"/>
    <path class="cls-2" d="M18.64,21.12l-3.82-4.51c-.06-.07-.14-.11-.23-.11h-4.58c-.17,0-.31.14-.31.31v9.02c0,.17.14.31.31.31h4.58c.09,0,.18-.04.23-.11l3.82-4.51c.1-.11.1-.28,0-.4ZM14.24,25.08h-3.49v-7.53h3.49l3.19,3.76-3.19,3.76Z"/>
    <path class="cls-2" d="M25.05,21.12l-3.83-4.51c-.06-.07-.14-.11-.23-.11h-3.26c-.26,0-.4.31-.24.51l3.48,4.11c.1.11.1.28,0,.4l-3.48,4.11c-.17.2-.03.51.24.51h3.26c.09,0,.18-.04.23-.11l3.83-4.51c.1-.11.1-.28,0-.4Z"/>
    <path class="cls-2" d="M27.64,16.61c-.06-.07-.14-.11-.23-.11h-3.26c-.26,0-.4.31-.23.51l3.48,4.11c.1.11.1.28,0,.4l-3.48,4.11c-.17.2-.03.51.23.51h3.26c.09,0,.18-.04.23-.11l3.82-4.51c.1-.11.1-.28,0-.4l-3.82-4.51Z"/>
  </g>
</svg>