<svg xmlns="http://www.w3.org/2000/svg" viewBox="0 0 40 40"><defs><style>.cls-1,.cls-2{fill:none;}.cls-2{stroke:#6e7883;stroke-linecap:round;stroke-linejoin:round;stroke-width:0.92px;}</style></defs><g id="Layer_2" data-name="Layer 2"><g id="Layer_1-2" data-name="Layer 1"><rect class="cls-1" width="40" height="40"/><path class="cls-2" d="M24.36,22.68,17.78,26.9a.51.51,0,0,1-.78-.43V18a.51.51,0,0,1,.78-.43l6.58,4.22A.51.51,0,0,1,24.36,22.68Z"/><rect class="cls-2" x="5.9" y="12.53" width="28.19" height="19.44" rx="5.85"/><path class="cls-2" d="M32.22,14a5.17,5.17,0,0,0-5-3.78H12.75a5,5,0,0,0-3.42,1.3A5.1,5.1,0,0,0,7.77,14"/><path class="cls-2" d="M9.33,11.49A4.48,4.48,0,0,1,13.69,8H26.31a4.47,4.47,0,0,1,4.36,3.46"/></g></g></svg>