<?xml version="1.0" encoding="UTF-8"?>
<svg id="Layer_1" data-name="Layer 1" xmlns="http://www.w3.org/2000/svg" version="1.1" viewBox="0 0 40 40">
  <defs>
    <style>
      .cls-1 {
        fill: none;
      }

      .cls-1, .cls-2 {
        stroke-width: 0px;
      }

      .cls-2 {
        fill: #6c7881;
      }
    </style>
  </defs>
  <rect class="cls-1" width="40" height="40"/>
  <g>
    <path class="cls-2" d="M35.98,12.72c.04-.15,0-.32-.12-.44l-5.75-5.44c-.11-.1-.25-.13-.39-.11-.02,0-.05-.01-.07-.01H6.01c-1.11,0-2.01.9-2.01,2.01v22.53c0,1.11.9,2.01,2.01,2.01h27.97c1.11,0,2.01-.9,2.01-2.01V12.82s-.01-.06-.02-.1ZM34.61,12.37l-4.52.09v-4.36s4.52,4.27,4.52,4.27ZM35.08,31.27c0,.6-.49,1.09-1.09,1.09H6.01c-.6,0-1.09-.49-1.09-1.09V8.73c0-.6.49-1.09,1.09-1.09h23.17v5.29c0,.12.05.24.13.33.09.09.23.14.33.13l5.44-.1v17.98Z"/>
    <path class="cls-2" d="M17.31,19.87c1.87,0,3.4-1.52,3.4-3.4s-1.52-3.4-3.4-3.4-3.4,1.52-3.4,3.4,1.52,3.4,3.4,3.4ZM17.31,14c1.37,0,2.48,1.11,2.48,2.48s-1.11,2.48-2.48,2.48-2.48-1.11-2.48-2.48,1.11-2.48,2.48-2.48Z"/>
    <path class="cls-2" d="M19.09,20.32l-.19-.04-.17.1c-.43.25-.93.38-1.43.38s-1-.13-1.43-.38l-.17-.1-.19.04c-2.28.54-4.17,2.05-5.19,4.16l-.13.28.19.24c1.7,2.1,4.22,3.3,6.92,3.3s5.22-1.2,6.92-3.3l.19-.24-.13-.28c-1.02-2.11-2.92-3.63-5.2-4.16ZM17.31,27.38c-2.33,0-4.51-1-6.02-2.75.9-1.68,2.44-2.9,4.29-3.38.52.27,1.12.41,1.73.41s1.21-.14,1.73-.41c1.85.48,3.39,1.7,4.29,3.38-1.52,1.75-3.7,2.75-6.02,2.75Z"/>
    <path class="cls-2" d="M28.99,21.14c-.64-1.36-1.86-2.33-3.33-2.67l-.11-.02c-.11-.03-.23,0-.33.05l-.09.05c-.37.2-.89.18-1.2.01l-.09-.06c-.1-.06-.23-.08-.35-.06l-.1.02c-.74.17-1.4.49-1.98.96-.2.16-.23.45-.07.65.16.2.45.23.65.07.45-.36.97-.62,1.54-.76.6.31,1.36.32,2,0,1.13.28,2.06,1.02,2.6,2.06-.72.84-1.71,1.4-2.8,1.59-.25.04-.42.28-.37.53.04.22.23.38.45.38.03,0,.05,0,.08,0,1.34-.23,2.56-.94,3.43-2l.11-.14c.12-.14.14-.35.05-.51l-.08-.14Z"/>
    <path class="cls-2" d="M24.58,18.1c1.28,0,2.32-1.05,2.32-2.33s-1.04-2.32-2.32-2.32-2.32,1.04-2.32,2.32,1.04,2.33,2.32,2.33ZM24.58,14.36c.77,0,1.41.63,1.41,1.4s-.63,1.41-1.41,1.41-1.41-.63-1.41-1.41.63-1.4,1.41-1.4Z"/>
  </g>
</svg>