<svg xmlns="http://www.w3.org/2000/svg" viewBox="0 0 50.58 40"><defs><style>.cls-1{fill:#6e7881;}</style></defs><g id="Layer_2" data-name="Layer 2"><g id="Layer_1-2" data-name="Layer 1"><path class="cls-1" d="M42.29,19.89V2.66A2.66,2.66,0,0,0,39.63,0h-37A2.66,2.66,0,0,0,0,2.66V32.44A2.66,2.66,0,0,0,2.66,35.1H31.77A10.14,10.14,0,1,0,42.29,19.89ZM2.66,1.21h37a1.45,1.45,0,0,1,1.45,1.45v2H1.21v-2A1.45,1.45,0,0,1,2.66,1.21Zm0,32.68a1.45,1.45,0,0,1-1.45-1.45V5.84H41.08v13.9c-.21,0-.43,0-.65,0a10,10,0,0,0-5.31,1.52.6.6,0,0,0-.59-.53H25.07a.61.61,0,0,0-.61.61.61.61,0,0,0,.61.61h9.07A10.13,10.13,0,0,0,32,24.3H25.07a.61.61,0,0,0-.61.61.61.61,0,0,0,.61.61h6.21a10,10,0,0,0-.15,8.37Zm37.77,4.9a8.94,8.94,0,1,1,8.94-8.93A8.95,8.95,0,0,1,40.43,38.79Z"/><path class="cls-1" d="M3.19,3.56a.64.64,0,0,0,.24,0,.59.59,0,0,0,.23,0,1,1,0,0,0,.2-.13A.59.59,0,0,0,4,3a.64.64,0,0,0,0-.24.64.64,0,0,0-.13-.19.56.56,0,0,0-.2-.14.76.76,0,0,0-.47,0,.56.56,0,0,0-.2.14.91.91,0,0,0-.13.19.86.86,0,0,0,0,.24A.68.68,0,0,0,3,3.43,1,1,0,0,0,3.19,3.56Z"/><path class="cls-1" d="M5.39,3.56a.59.59,0,0,0,.23,0,.67.67,0,0,0,.24,0l.2-.13A.69.69,0,0,0,6.23,3a.59.59,0,0,0,0-.23.91.91,0,0,0-.13-.19.62.62,0,0,0-.67-.14.56.56,0,0,0-.2.14.64.64,0,0,0-.13.19A.86.86,0,0,0,5,3a.65.65,0,0,0,.18.44A1,1,0,0,0,5.39,3.56Z"/><path class="cls-1" d="M7.59,3.56a.59.59,0,0,0,.23,0,.67.67,0,0,0,.24,0,.75.75,0,0,0,.18-.13A.61.61,0,0,0,8.43,3a.63.63,0,0,0-.84-.56.72.72,0,0,0-.2.14A.62.62,0,0,0,7.21,3a.65.65,0,0,0,.18.44A.69.69,0,0,0,7.59,3.56Z"/><path class="cls-1" d="M46.74,27.46a1.18,1.18,0,0,0-1-.92H35.3a1.17,1.17,0,0,0-1.17.89,1.55,1.55,0,0,0,0,.31c0,1.29,0,2.59,0,3.88A1.19,1.19,0,0,0,35,32.78a1.65,1.65,0,0,0,.32,0h4.8a.32.32,0,0,1,.14,0L42.32,34l.06,0-.5-1.23h3.7a1.15,1.15,0,0,0,1.08-.69.9.9,0,0,0,.1-.39.14.14,0,0,1,0-.07v-4A1.55,1.55,0,0,0,46.74,27.46Zm-7.29,2.62c0,.26-.06.51-.08.76s0,.54,0,.81a.85.85,0,0,1,0,.32.36.36,0,0,1-.52.21,1.12,1.12,0,0,1-.22-.16,4,4,0,0,1-.8-1.27c-.11-.28-.2-.56-.3-.84l0-.05,0,.06c-.22.46-.45.92-.68,1.38a3.54,3.54,0,0,1-.48.73.9.9,0,0,1-.19.15.25.25,0,0,1-.35-.07,1,1,0,0,1-.15-.27,7.68,7.68,0,0,1-.35-1.22c-.1-.45-.19-.89-.27-1.34s-.12-.69-.18-1c0-.14,0-.27-.05-.41a.4.4,0,0,1,.37-.4.81.81,0,0,1,.22,0,.35.35,0,0,1,.27.32l.12.72c.06.35.12.69.19,1s.14.67.21,1l0-.05,1.1-2.09a.64.64,0,0,1,.23-.26.35.35,0,0,1,.51.15,2.59,2.59,0,0,1,.11.37,10,10,0,0,0,.43,1.54l0,0a2.54,2.54,0,0,1,0-.29c0-.29.08-.58.13-.87A6,6,0,0,1,39,28a5.05,5.05,0,0,1,.24-.53.4.4,0,0,1,.44-.22.46.46,0,0,1,.38.35.42.42,0,0,1,0,.27,4.86,4.86,0,0,0-.42,1.34C39.54,29.48,39.49,29.78,39.45,30.08Zm3.17.63a2,2,0,0,1-.52.67,1.31,1.31,0,0,1-1.79-.17,1.61,1.61,0,0,1-.32-.73c0-.16,0-.32-.06-.48a2.83,2.83,0,0,1,.59-1.7,1.33,1.33,0,0,1,.81-.51,1.29,1.29,0,0,1,1.32.57,1.84,1.84,0,0,1,.26.86A2.74,2.74,0,0,1,42.62,30.71ZM45.7,31a1.43,1.43,0,0,1-.73.64,1.27,1.27,0,0,1-1.62-.7,1.81,1.81,0,0,1-.17-.72,2.71,2.71,0,0,1,.21-1.26,2.27,2.27,0,0,1,.42-.68,1.23,1.23,0,0,1,1-.45,1.18,1.18,0,0,1,1,.48,1.46,1.46,0,0,1,.31.72c0,.15,0,.29,0,.44A2.83,2.83,0,0,1,45.7,31Z"/><path class="cls-1" d="M44.74,28.66a.56.56,0,0,0-.31.21,1.68,1.68,0,0,0-.38,1,1.25,1.25,0,0,0,.17.68.33.33,0,0,0,.48.11.88.88,0,0,0,.36-.38,1.66,1.66,0,0,0,.2-1,1,1,0,0,0-.18-.48A.3.3,0,0,0,44.74,28.66Z"/><path class="cls-1" d="M41.85,28.8a.31.31,0,0,0-.44-.1.74.74,0,0,0-.2.16,1.62,1.62,0,0,0-.38,1.29,1,1,0,0,0,.18.47.29.29,0,0,0,.39.11.72.72,0,0,0,.32-.25,1.6,1.6,0,0,0,.32-1,.78.78,0,0,0,0-.22A1,1,0,0,0,41.85,28.8Z"/><path class="cls-1" d="M14,19a.61.61,0,0,0-.81,0l-1.56,1.56-.55-.45a.61.61,0,0,0-.82,0l-2,2a.6.6,0,0,0,0,.86.61.61,0,0,0,.43.18.6.6,0,0,0,.43-.18l1.61-1.61,1.3,1.09a.61.61,0,0,0,.78-.94l-.25-.2,1.1-1.1,3.5,2.8a.64.64,0,0,0,.38.14.62.62,0,0,0,.48-.23.61.61,0,0,0-.1-.85Z"/><path class="cls-1" d="M19.43,9.93H6.71A1.69,1.69,0,0,0,5,11.62V27.2a1.69,1.69,0,0,0,1.69,1.69H19.44a1.69,1.69,0,0,0,1.69-1.69V11.62A1.7,1.7,0,0,0,19.43,9.93Zm.48,17.27a.47.47,0,0,1-.47.47H6.71a.47.47,0,0,1-.48-.47V11.62a.49.49,0,0,1,.48-.48H19.43a.47.47,0,0,1,.48.48Z"/><path class="cls-1" d="M9.31,17.63a1,1,0,1,0-1-1A1,1,0,0,0,9.31,17.63Z"/><path class="cls-1" d="M25.07,14.71H37.38a.61.61,0,1,0,0-1.21H25.07a.61.61,0,1,0,0,1.21Z"/><path class="cls-1" d="M25.07,18.32h11.2a.61.61,0,0,0,.61-.61.61.61,0,0,0-.61-.61H25.07a.61.61,0,0,0-.61.61A.61.61,0,0,0,25.07,18.32Z"/></g></g></svg>