<svg xmlns="http://www.w3.org/2000/svg" viewBox="0 0 29.8 35.13"><defs><style>.cls-1{fill:#6e7881;}</style></defs><g id="Layer_2" data-name="Layer 2"><g id="Layer_1-2" data-name="Layer 1"><path class="cls-1" d="M27,25.57a10.29,10.29,0,0,1-1.87-3.3.61.61,0,0,0-1.16.4,11.74,11.74,0,0,0,2.09,3.69l1.47,1.74a.85.85,0,0,1-.66,1.39H19.08a.44.44,0,0,0-.32,0H10.19l-.16,0a1,1,0,0,0-.17,0H2.08a.85.85,0,0,1-.65-1.39l1.46-1.74a11.57,11.57,0,0,0,2.72-7.44V14.58A8.88,8.88,0,0,1,17.4,6.21a.61.61,0,0,0,.78-.38.6.6,0,0,0-.37-.78c-.16,0-.32-.07-.48-.12V2.86a2.86,2.86,0,1,0-5.72,0V4.91a10.1,10.1,0,0,0-7.23,9.67v4.34A10.36,10.36,0,0,1,2,25.57L.49,27.31a2.08,2.08,0,0,0,1.59,3.41h7.4a5,5,0,0,0,10,0h7.39a2.07,2.07,0,0,0,1.59-3.41ZM12.84,2.86a1.63,1.63,0,1,1,3.26,0V4.62a11,11,0,0,0-1.63-.13,11,11,0,0,0-1.63.14Zm1.63,31.05a3.82,3.82,0,0,1-3.76-3.19h7.53A3.83,3.83,0,0,1,14.47,33.91Z"/><path class="cls-1" d="M14.65,13.49a7.58,7.58,0,1,0,7.57-7.57A7.58,7.58,0,0,0,14.65,13.49ZM22.22,7a6.53,6.53,0,1,1-6.52,6.53A6.54,6.54,0,0,1,22.22,7Z"/><path class="cls-1" d="M18.37,10.66h1.17l.81,3.62a.67.67,0,0,0,.26,1.29h4a.23.23,0,1,0,0-.45h-4a.22.22,0,1,1,0-.44h4a.23.23,0,0,0,.22-.17l.89-3.12a.21.21,0,0,0,0-.19.23.23,0,0,0-.18-.09H20.1l-.16-.72a.23.23,0,0,0-.22-.18H18.37a.22.22,0,0,0-.22.23A.22.22,0,0,0,18.37,10.66Z"/><path class="cls-1" d="M21.37,16a.65.65,0,1,0,.65.65A.65.65,0,0,0,21.37,16Z"/><path class="cls-1" d="M23.89,16a.65.65,0,1,0,.65.65A.65.65,0,0,0,23.89,16Z"/></g></g></svg>