<svg width="14" height="14" viewBox="0 0 14 14" fill="none" xmlns="http://www.w3.org/2000/svg">
<path d="M9.42827 9.07058C8.50462 9.3718 7.66515 9.88686 6.97818 10.5738C6.29121 11.2608 5.77616 12.1003 5.47493 13.0239C5.45587 13.0813 5.41921 13.1313 5.37014 13.1667C5.32108 13.2021 5.26211 13.2212 5.2016 13.2212C5.14109 13.2212 5.08212 13.2021 5.03306 13.1667C4.984 13.1313 4.94733 13.0813 4.92827 13.0239C4.62743 12.0991 4.11101 11.2591 3.4216 10.5732C2.73686 9.8869 1.89935 9.37243 0.977601 9.07191C0.919506 9.05354 0.868774 9.01715 0.832765 8.968C0.796756 8.91885 0.777344 8.8595 0.777344 8.79857C0.777344 8.73765 0.796756 8.6783 0.832765 8.62916C0.868774 8.58001 0.919506 8.54361 0.977601 8.52524C1.89948 8.225 2.73705 7.71049 3.4216 7.02391C4.11141 6.33834 4.6279 5.49824 4.92827 4.57324C4.94733 4.51582 4.984 4.46585 5.03306 4.43045C5.08212 4.39504 5.14109 4.37598 5.2016 4.37598C5.26211 4.37598 5.32108 4.39504 5.37014 4.43045C5.41921 4.46585 5.45587 4.51582 5.47493 4.57324C5.77415 5.49674 6.28774 6.33627 6.97371 7.02316C7.65967 7.71005 8.49851 8.22478 9.4216 8.52524C9.47855 8.54461 9.528 8.58132 9.56302 8.63022C9.59805 8.67912 9.61688 8.73776 9.61688 8.79791C9.61688 8.85806 9.59805 8.9167 9.56302 8.9656C9.528 9.0145 9.47855 9.05121 9.4216 9.07058H9.42827Z" fill="#3339F1"/>
<path d="M13.0941 3.56352C12.5487 3.74159 12.0531 4.04582 11.6474 4.45149C11.2418 4.85716 10.9375 5.35282 10.7595 5.89819C10.7502 5.93393 10.7293 5.96558 10.7001 5.98817C10.6709 6.01077 10.635 6.02303 10.5981 6.02303C10.5612 6.02303 10.5253 6.01077 10.4961 5.98817C10.4669 5.96558 10.446 5.93393 10.4368 5.89819C10.2581 5.35313 9.95371 4.85777 9.54813 4.45218C9.14254 4.04659 8.64717 3.74216 8.10211 3.56352C8.06577 3.55473 8.03344 3.53398 8.01031 3.5046C7.98719 3.47522 7.97461 3.43891 7.97461 3.40152C7.97461 3.36413 7.98719 3.32782 8.01031 3.29844C8.03344 3.26906 8.06577 3.24831 8.10211 3.23952C8.64742 3.064 9.14325 2.76148 9.54878 2.35685C9.95455 1.94887 10.2576 1.45028 10.4328 0.902185C10.442 0.866446 10.4629 0.834794 10.4921 0.812199C10.5213 0.789604 10.5572 0.777344 10.5941 0.777344C10.631 0.777344 10.6669 0.789604 10.6961 0.812199C10.7253 0.834794 10.7462 0.866446 10.7555 0.902185C10.9336 1.45077 11.2393 1.9493 11.6475 2.35685C12.0531 2.76417 12.5499 3.06902 13.0968 3.24619C13.1331 3.25497 13.1655 3.27572 13.1886 3.30511C13.2117 3.33449 13.2243 3.37079 13.2243 3.40819C13.2243 3.44558 13.2117 3.48188 13.1886 3.51126C13.1655 3.54065 13.1331 3.5614 13.0968 3.57019L13.0941 3.56352Z" fill="#3339F1"/>
<path opacity="0.5" d="M9.40813 9.07038C8.48449 9.37161 7.64502 9.88666 6.95805 10.5736C6.27108 11.2606 5.75602 12.1001 5.4548 13.0237C5.43791 13.0781 5.4049 13.1261 5.36014 13.1613C5.31538 13.1966 5.26098 13.2174 5.20413 13.221C5.20413 13.1997 5.19747 4.45838 5.20413 4.37305C5.26098 4.37669 5.31538 4.39751 5.36014 4.43275C5.4049 4.46799 5.43791 4.51598 5.4548 4.57038C5.75441 5.49431 6.26861 6.33413 6.9553 7.02105C7.642 7.70797 8.48164 8.22246 9.40547 8.52238C9.46388 8.5408 9.5149 8.57736 9.55111 8.62675C9.58733 8.67615 9.60685 8.7358 9.60685 8.79705C9.60685 8.85829 9.58733 8.91795 9.55111 8.96734C9.5149 9.01673 9.46388 9.0533 9.40547 9.07172L9.40813 9.07038Z" fill="white"/>
<path opacity="0.5" d="M13.0937 3.56384C12.5483 3.74191 12.0526 4.04614 11.647 4.45181C11.2413 4.85748 10.9371 5.35314 10.759 5.8985C10.7484 5.93285 10.7269 5.96283 10.6978 5.98397C10.6687 6.00512 10.6336 6.0163 10.5977 6.01584V0.78517C10.6336 0.78471 10.6687 0.795887 10.6978 0.817034C10.7269 0.83818 10.7484 0.868161 10.759 0.902503C10.9371 1.44895 11.2418 1.94556 11.6483 2.35184C12.054 2.75915 12.5508 3.06401 13.0977 3.24117C13.134 3.24996 13.1663 3.27071 13.1895 3.30009C13.2126 3.32947 13.2252 3.36578 13.2252 3.40317C13.2252 3.44056 13.2126 3.47687 13.1895 3.50625C13.1663 3.53563 13.134 3.55638 13.0977 3.56517L13.0937 3.56384Z" fill="white"/>
</svg>
