<svg width="30" height="30" viewBox="0 0 30 30" fill="none" xmlns="http://www.w3.org/2000/svg">
<g clip-path="url(#clip0_98_9904)">
<mask id="mask0_98_9904" style="mask-type:luminance" maskUnits="userSpaceOnUse" x="0" y="0" width="78" height="30">
<path d="M78 0H0V30H78V0Z" fill="white"/>
</mask>
<g mask="url(#mask0_98_9904)">
<path d="M14.7544 24.6256L5.37489 15.1929C5.29487 15.1119 5.25 15.0026 5.25 14.8887C5.25 14.7749 5.29487 14.6656 5.37489 14.5846C5.55838 14.4007 5.77635 14.2548 6.0163 14.1553C6.25625 14.0558 6.51348 14.0045 6.77326 14.0045C7.03304 14.0045 7.29027 14.0558 7.53022 14.1553C7.77017 14.2548 7.98814 14.4007 8.17164 14.5846L14.7019 21.1486C14.7826 21.2281 14.8913 21.2726 15.0045 21.2726C15.1178 21.2726 15.2265 21.2281 15.3071 21.1486L18.9821 17.4556C19.1656 17.2717 19.3836 17.1258 19.6235 17.0263C19.8635 16.9268 20.1207 16.8755 20.3805 16.8755C20.6403 16.8755 20.8975 16.9268 21.1375 17.0263C21.3774 17.1258 21.5954 17.2717 21.7789 17.4556C21.827 17.4943 21.8667 17.5423 21.8957 17.5968C21.9247 17.6513 21.9423 17.7111 21.9475 17.7726C21.9527 17.8341 21.9453 17.896 21.9259 17.9546C21.9064 18.0132 21.8753 18.0672 21.8344 18.1134L15.3581 24.6249C15.3189 24.6645 15.2722 24.6959 15.2207 24.7173C15.1691 24.7387 15.1139 24.7496 15.0581 24.7494C14.9445 24.7498 14.8353 24.7053 14.7544 24.6256ZM14.2594 18.5581C14.1424 18.4485 14.0491 18.316 13.9854 18.1689C13.9216 18.0217 13.8887 17.8631 13.8887 17.7027C13.8887 17.5424 13.9216 17.3837 13.9854 17.2366C14.0491 17.0895 14.1424 16.957 14.2594 16.8474L15.7391 15.3586C15.7968 15.2752 15.8232 15.1741 15.8137 15.0732C15.8043 14.9722 15.7595 14.8779 15.6874 14.8066L14.0944 13.2061C13.8842 12.9708 13.768 12.6663 13.768 12.3507C13.768 12.0352 13.8842 11.7307 14.0944 11.4954L14.1499 11.4414C14.2581 11.3236 14.3895 11.2296 14.5359 11.1653C14.6823 11.101 14.8405 11.0678 15.0004 11.0678C15.1603 11.0678 15.3184 11.101 15.4648 11.1653C15.6112 11.2296 15.7427 11.3236 15.8509 11.4414L19.1419 14.7534C19.2219 14.8338 19.2668 14.9426 19.2668 15.056C19.2668 15.1694 19.2219 15.2782 19.1419 15.3586L15.9611 18.5581C15.8529 18.6759 15.7215 18.7699 15.5751 18.8342C15.4287 18.8985 15.2705 18.9317 15.1106 18.9317C14.9507 18.9317 14.7926 18.8985 14.6462 18.8342C14.4998 18.7699 14.3676 18.6759 14.2594 18.5581ZM11.4634 15.8019C11.2513 15.5674 11.1339 15.2626 11.1339 14.9465C11.1339 14.6304 11.2513 14.3255 11.4634 14.0911C11.5716 13.9734 11.703 13.8794 11.8494 13.8151C11.9958 13.7508 12.154 13.7176 12.3139 13.7176C12.4738 13.7176 12.6319 13.7508 12.7783 13.8151C12.9247 13.8794 13.0562 13.9734 13.1644 14.0911L13.7141 14.6416C13.7922 14.723 13.8358 14.8314 13.8358 14.9442C13.8358 15.057 13.7922 15.1655 13.7141 15.2469L13.1644 15.8019C13.0557 15.9188 12.9241 16.0121 12.7778 16.0759C12.6314 16.1396 12.4735 16.1726 12.3139 16.1726C12.1543 16.1726 11.9963 16.1396 11.85 16.0759C11.7037 16.0121 11.572 15.9188 11.4634 15.8019ZM21.7766 15.4681L15.1939 8.84861C15.1543 8.80854 15.1072 8.77673 15.0553 8.75501C15.0033 8.7333 14.9476 8.72212 14.8913 8.72212C14.835 8.72212 14.7792 8.7333 14.7273 8.75501C14.6753 8.77673 14.6282 8.80854 14.5886 8.84861L10.9136 12.5431C10.7301 12.727 10.5122 12.8729 10.2722 12.9724C10.0323 13.072 9.77504 13.1232 9.51526 13.1232C9.25548 13.1232 8.99825 13.072 8.7583 12.9724C8.51835 12.8729 8.30038 12.727 8.11689 12.5431C8.07852 12.4323 8.06857 12.3135 8.08797 12.1978C8.10736 12.0821 8.15547 11.9732 8.22789 11.8809L14.7019 5.37311C14.7828 5.29418 14.8914 5.25 15.0045 5.25C15.1176 5.25 15.2262 5.29418 15.3071 5.37311L24.6289 14.8059C24.7071 14.8872 24.7508 14.9956 24.7508 15.1085C24.7508 15.2213 24.7071 15.3298 24.6289 15.4111L24.5734 15.4681C24.3899 15.652 24.1719 15.7979 23.932 15.8974C23.692 15.997 23.4348 16.0482 23.175 16.0482C22.9152 16.0482 22.658 15.997 22.418 15.8974C22.1781 15.7979 21.9601 15.652 21.7766 15.4681Z" fill="white"/>
</g>
</g>
<defs>
<clipPath id="clip0_98_9904">
<rect width="30" height="30" fill="white"/>
</clipPath>
</defs>
</svg>
