<svg width="20" height="20" viewBox="0 0 20 20" fill="none" xmlns="http://www.w3.org/2000/svg">
<path d="M10 1C8.21997 1 6.47991 1.52784 4.99987 2.51677C3.51983 3.50571 2.36628 4.91131 1.68509 6.55585C1.0039 8.20038 0.82567 10.01 1.17294 11.7558C1.5202 13.5016 2.37737 15.1053 3.63604 16.364C4.89471 17.6226 6.49836 18.4798 8.24419 18.8271C9.99002 19.1743 11.7996 18.9961 13.4442 18.3149C15.0887 17.6337 16.4943 16.4802 17.4832 15.0001C18.4722 13.5201 19 11.78 19 10C19 7.61305 18.0518 5.32387 16.364 3.63604C14.6761 1.94821 12.3869 1 10 1ZM13.341 12.512C13.4481 12.6232 13.5079 12.7716 13.5079 12.926C13.5079 13.0804 13.4481 13.2288 13.341 13.34C13.2867 13.3944 13.2221 13.4374 13.1511 13.4668C13.08 13.4962 13.0039 13.5113 12.927 13.5112C12.8499 13.5128 12.7733 13.4984 12.7021 13.469C12.6308 13.4395 12.5664 13.3956 12.513 13.34L10 10.833L7.489 13.34C7.43555 13.3956 7.37117 13.4395 7.29991 13.469C7.22865 13.4984 7.15207 13.5128 7.07498 13.5112C6.99811 13.5113 6.92198 13.4962 6.85094 13.4668C6.7799 13.4374 6.71534 13.3944 6.66096 13.34C6.55392 13.2288 6.49412 13.0804 6.49412 12.926C6.49412 12.7716 6.55392 12.6232 6.66096 12.512L9.17196 10.001L6.66096 7.49795C6.55392 7.3867 6.49412 7.23832 6.49412 7.08393C6.49412 6.92955 6.55392 6.78116 6.66096 6.66991C6.71468 6.61441 6.77902 6.57028 6.85015 6.54014C6.92127 6.51 6.99773 6.49447 7.07498 6.49447C7.15222 6.49447 7.22868 6.51 7.29981 6.54014C7.37093 6.57028 7.43527 6.61441 7.489 6.66991L10 9.17195L12.511 6.66991C12.5647 6.61441 12.6291 6.57028 12.7002 6.54014C12.7713 6.51 12.8478 6.49447 12.925 6.49447C13.0023 6.49447 13.0787 6.51 13.1499 6.54014C13.221 6.57028 13.2853 6.61441 13.339 6.66991C13.4461 6.78116 13.5059 6.92955 13.5059 7.08393C13.5059 7.23832 13.4461 7.3867 13.339 7.49795L10.828 10L13.341 12.512Z" fill="black" fill-opacity="0.2"/>
</svg>
