<svg width="18" height="18" viewBox="0 0 18 18" fill="none" xmlns="http://www.w3.org/2000/svg">
<g opacity="0.2" clip-path="url(#clip0_216_2072)">
<path d="M9.00039 0.899902C7.39836 0.899902 5.83231 1.37496 4.50028 2.265C3.16824 3.15504 2.13004 4.42008 1.51697 5.90017C0.9039 7.38025 0.743493 9.00889 1.05603 10.5801C1.36857 12.1514 2.14002 13.5947 3.27283 14.7275C4.40563 15.8603 5.84892 16.6317 7.42016 16.9443C8.99141 17.2568 10.62 17.0964 12.1001 16.4833C13.5802 15.8703 14.8453 14.8321 15.7353 13.5C16.6253 12.168 17.1004 10.6019 17.1004 8.9999C17.1004 6.85165 16.247 4.79138 14.728 3.27234C13.2089 1.75329 11.1486 0.899902 9.00039 0.899902ZM12.0073 11.2607C12.1037 11.3608 12.1575 11.4944 12.1575 11.6333C12.1575 11.7723 12.1037 11.9058 12.0073 12.0059C11.9584 12.0548 11.9003 12.0936 11.8363 12.12C11.7724 12.1465 11.7039 12.1601 11.6347 12.16C11.5653 12.1614 11.4964 12.1485 11.4323 12.122C11.3681 12.0955 11.3102 12.056 11.2621 12.0059L9.00039 9.74962L6.74049 12.0059C6.69239 12.056 6.63444 12.0955 6.57031 12.122C6.50618 12.1485 6.43725 12.1614 6.36787 12.16C6.29869 12.1601 6.23017 12.1465 6.16623 12.12C6.1023 12.0936 6.0442 12.0548 5.99525 12.0059C5.89892 11.9058 5.8451 11.7723 5.8451 11.6333C5.8451 11.4944 5.89892 11.3608 5.99525 11.2607L8.25515 9.0008L5.99525 6.74806C5.89892 6.64793 5.8451 6.51439 5.8451 6.37544C5.8451 6.23649 5.89892 6.10295 5.99525 6.00282C6.04361 5.95287 6.10151 5.91315 6.16552 5.88603C6.22954 5.8589 6.29835 5.84492 6.36787 5.84492C6.43739 5.84492 6.50621 5.8589 6.57022 5.88603C6.63423 5.91315 6.69214 5.95287 6.74049 6.00282L9.00039 8.25466L11.2603 6.00282C11.3087 5.95287 11.3666 5.91315 11.4306 5.88603C11.4946 5.8589 11.5634 5.84492 11.6329 5.84492C11.7024 5.84492 11.7712 5.8589 11.8353 5.88603C11.8993 5.91315 11.9572 5.95287 12.0055 6.00282C12.1019 6.10295 12.1557 6.23649 12.1557 6.37544C12.1557 6.51439 12.1019 6.64793 12.0055 6.74806L9.74563 8.9999L12.0073 11.2607Z" fill="white"/>
</g>
<defs>
<clipPath id="clip0_216_2072">
<rect width="18" height="18" fill="white"/>
</clipPath>
</defs>
</svg>
