<svg width="24" height="24" viewBox="0 0 24 24" fill="none" xmlns="http://www.w3.org/2000/svg">
<path d="M12 2.9751C10.2115 2.9751 8.46313 3.50546 6.97601 4.49912C5.4889 5.49278 4.32984 6.9051 3.64539 8.55749C2.96095 10.2099 2.78187 12.0281 3.13079 13.7823C3.47972 15.5365 4.34098 17.1478 5.60567 18.4125C6.87036 19.6772 8.48166 20.5384 10.2358 20.8873C11.99 21.2363 13.8082 21.0572 15.4606 20.3727C17.113 19.6883 18.5254 18.5292 19.519 17.0421C20.5127 15.555 21.043 13.8066 21.043 12.0181C21.043 9.61974 20.0903 7.31962 18.3944 5.62373C16.6985 3.92784 14.3984 2.9751 12 2.9751ZM15.357 14.5421C15.4646 14.6539 15.5247 14.803 15.5247 14.9581C15.5247 15.1132 15.4646 15.2623 15.357 15.3741C15.3024 15.4287 15.2375 15.472 15.1661 15.5015C15.0948 15.531 15.0183 15.5462 14.941 15.5461C14.8636 15.5477 14.7866 15.5333 14.715 15.5037C14.6434 15.474 14.5787 15.4299 14.525 15.3741L12 12.8551L9.47704 15.3741C9.42333 15.4299 9.35864 15.474 9.28704 15.5037C9.21545 15.5333 9.13849 15.5477 9.06104 15.5461C8.9838 15.5462 8.9073 15.531 8.83592 15.5015C8.76455 15.472 8.69968 15.4287 8.64504 15.3741C8.53748 15.2623 8.47741 15.1132 8.47741 14.9581C8.47741 14.803 8.53748 14.6539 8.64504 14.5421L11.168 12.0191L8.64504 9.5041C8.53748 9.39231 8.47741 9.24322 8.47741 9.0881C8.47741 8.93298 8.53748 8.78388 8.64504 8.6721C8.69902 8.61633 8.76367 8.57199 8.83513 8.54171C8.9066 8.51143 8.98342 8.49582 9.06104 8.49582C9.13865 8.49582 9.21547 8.51143 9.28694 8.54171C9.3584 8.57199 9.42305 8.61633 9.47704 8.6721L12 11.1861L14.523 8.6721C14.577 8.61633 14.6417 8.57199 14.7131 8.54171C14.7846 8.51143 14.8614 8.49582 14.939 8.49582C15.0167 8.49582 15.0935 8.51143 15.1649 8.54171C15.2364 8.57199 15.301 8.61633 15.355 8.6721C15.4626 8.78388 15.5227 8.93298 15.5227 9.0881C15.5227 9.24322 15.4626 9.39231 15.355 9.5041L12.832 12.0181L15.357 14.5421Z" fill="white"/>
</svg>
