<svg width="10" height="10" viewBox="0 0 10 10" fill="none" xmlns="http://www.w3.org/2000/svg">
<path d="M9.77042 4.69868C9.83672 4.71824 9.89482 4.7587 9.9362 4.81402C9.97759 4.86934 10 4.93655 10 5.00561C10 5.07468 9.97759 5.14189 9.9362 5.19721C9.89482 5.25253 9.83672 5.29299 9.77042 5.31255C8.72738 5.65403 7.77942 6.23604 7.00329 7.01148C6.22716 7.78693 5.64464 8.73403 5.30286 9.77616C5.28109 9.84135 5.23931 9.89804 5.1835 9.93822C5.12769 9.97839 5.06066 10 4.99188 10C4.9231 10 4.85607 9.97839 4.80027 9.93822C4.74446 9.89804 4.70268 9.84135 4.6809 9.77616C4.34154 8.73274 3.75992 7.78438 2.98344 7.00859C2.20697 6.2328 1.25779 5.65162 0.213454 5.31255C0.150797 5.28924 0.0966839 5.24734 0.058537 5.19248C0.0203902 5.13762 0 5.07241 0 5.00561C0 4.93881 0.0203902 4.87361 0.058537 4.81875C0.0966839 4.76389 0.150797 4.72199 0.213454 4.69868C1.26419 4.35805 2.21927 3.7738 3.00071 2.99371C3.77479 2.21723 4.35273 1.26775 4.68662 0.223833C4.7084 0.158646 4.75006 0.101956 4.80587 0.0617839C4.86167 0.0216121 4.9287 0 4.99748 0C5.06627 0 5.1333 0.0216121 5.1891 0.0617839C5.24491 0.101956 5.28669 0.158646 5.30846 0.223833C5.64896 1.26728 6.23093 2.21579 7.00718 2.99234C7.78343 3.76888 8.73209 4.35156 9.77603 4.69307L9.77042 4.69868Z" fill="#3339F1"/>
</svg>
