<svg width="12" height="13" viewBox="0 0 12 13" fill="none" xmlns="http://www.w3.org/2000/svg">
<g opacity="0.5">
<path d="M1.48385 12.3333C1.30849 12.3357 1.13449 12.3022 0.972594 12.2348C0.810697 12.1674 0.664337 12.0675 0.54252 11.9413C0.416358 11.8195 0.316482 11.6731 0.249063 11.5112C0.181644 11.3493 0.148102 11.1754 0.150512 11V9H1.48385V11H10.4838V9H11.8172V11C11.8196 11.1754 11.786 11.3493 11.7186 11.5112C11.6512 11.6731 11.5513 11.8195 11.4252 11.9413C11.3034 12.0675 11.157 12.1674 10.9951 12.2348C10.8332 12.3022 10.6592 12.3357 10.4838 12.3333H1.48385Z" fill="white"/>
<path d="M5.5847 8.99926C5.70377 9.10439 5.85685 9.15695 6.00142 9.15695C6.146 9.15695 6.29908 9.10439 6.41815 8.99926L9.02903 6.66908C9.29267 6.43255 9.32669 6.02083 9.09707 5.7405C8.86745 5.46894 8.45923 5.4339 8.19559 5.67042L6.63926 7.06328V1.45681C6.63926 1.09765 6.35011 0.799805 6.00142 0.799805C5.65274 0.799805 5.36358 1.09765 5.36358 1.45681V7.06328L3.80726 5.67042C3.54362 5.4339 3.1354 5.46018 2.90578 5.7405C2.67616 6.01207 2.70167 6.43255 2.97381 6.66908L5.5847 8.99926Z" fill="white"/>
</g>
</svg>
