<svg width="20" height="20" viewBox="0 0 20 20" fill="none" xmlns="http://www.w3.org/2000/svg">
<g opacity="0.5">
<path d="M17.0433 16.0272H7.86186L8.38839 15.8627L16.7361 7.51495C17.8989 6.35219 17.9428 4.50932 16.8349 3.30268C16.7691 3.23686 16.7032 3.16008 16.6374 3.09426L16.429 2.89681C15.2224 1.79987 13.3795 1.84375 12.2167 2.99554L3.87995 11.3433L2.2455 16.4989C2.2455 16.5099 2.2455 16.5099 2.2455 16.5209C2.20163 16.6196 2.17969 16.7293 2.17969 16.8499C2.17969 17.2997 2.55265 17.6727 3.0024 17.6727H17.0433C17.493 17.6727 17.866 17.2997 17.866 16.8499C17.866 16.4002 17.493 16.0272 17.0433 16.0272ZM7.20369 12.6706C6.72104 12.1879 6.18354 11.804 5.59119 11.5078L11.9973 5.10167L14.6519 7.75628L8.26773 14.1405C7.97156 13.603 7.6315 13.0984 7.20369 12.6706ZM6.27129 13.603C6.64425 13.976 6.92946 14.4038 7.15982 14.8645L5.05368 15.5226L4.20904 14.678L4.85623 12.6487C5.3718 12.879 5.85445 13.1862 6.27129 13.603ZM15.5405 3.86212L15.8696 4.19121C16.4948 4.87131 16.4619 5.92438 15.8037 6.58255L15.5734 6.8129L12.9188 4.1583L13.1491 3.92794C13.8183 3.26977 14.8604 3.24783 15.5405 3.86212Z" fill="white"/>
</g>
</svg>
