<svg width="12" height="12" viewBox="0 0 12 12" fill="none" xmlns="http://www.w3.org/2000/svg">
<path d="M5.99997 -1.71661e-05C6.79014 0.00178051 7.5722 0.159283 8.30147 0.463485C9.03073 0.767687 9.6929 1.21263 10.2501 1.77287C10.8073 2.33311 11.2487 2.99768 11.5489 3.72858C11.8492 4.45948 12.0025 5.24239 12 6.03255C12.002 6.81631 11.8483 7.59266 11.5476 8.31648C11.247 9.0403 10.8055 9.69714 10.2488 10.2488C9.70353 10.805 9.05245 11.2465 8.33394 11.5472C7.61544 11.848 6.84402 12.0019 6.06511 12C4.47262 11.9843 2.94881 11.3491 1.81663 10.2291C0.684449 9.10907 0.0328674 7.59221 -2.95639e-05 5.99998C-0.00635719 5.21577 0.142357 4.43803 0.437567 3.71147C0.732776 2.98491 1.16866 2.32385 1.72017 1.76629C2.27168 1.20873 2.92793 0.765657 3.65123 0.462535C4.37452 0.159412 5.15059 0.00221634 5.93483 -1.71661e-05H5.99997ZM5.99997 9.27513C6.1539 9.27513 6.30437 9.22948 6.43236 9.14396C6.56035 9.05844 6.66011 8.93689 6.71901 8.79468C6.77792 8.65246 6.79333 8.49598 6.7633 8.345C6.73327 8.19403 6.65915 8.05535 6.5503 7.94651C6.44146 7.83766 6.30278 7.76354 6.15181 7.73351C6.00083 7.70348 5.84435 7.71889 5.70213 7.7778C5.55992 7.8367 5.43837 7.93646 5.35285 8.06445C5.26733 8.19244 5.22168 8.34291 5.22168 8.49684C5.22971 8.70077 5.31425 8.89419 5.45849 9.03858C5.60272 9.18298 5.79605 9.26688 5.99997 9.27513ZM5.99997 6.87512C6.20549 6.87224 6.40178 6.78932 6.54712 6.64398C6.69245 6.49865 6.77538 6.30236 6.77826 6.09684V3.53484C6.77538 3.32932 6.69245 3.13303 6.54712 2.98769C6.40178 2.84236 6.20549 2.75943 5.99997 2.75655C5.79445 2.75943 5.59816 2.84236 5.45283 2.98769C5.30749 3.13303 5.22457 3.32932 5.22168 3.53484V6.0977C5.22457 6.30321 5.30749 6.49951 5.45283 6.64484C5.59816 6.79018 5.79445 6.87224 5.99997 6.87512Z" fill="#D41125"/>
</svg>
