<svg width="12" height="12" viewBox="0 0 12 12" fill="none" xmlns="http://www.w3.org/2000/svg">
<path d="M0 6.00049C0 4.8138 0.351894 3.65376 1.01118 2.66707C1.67047 1.68037 2.60754 0.91134 3.7039 0.457214C4.80026 0.003088 6.00666 -0.115732 7.17054 0.115779C8.33443 0.347291 9.40353 0.918735 10.2426 1.75785C11.0818 2.59697 11.6532 3.66606 11.8847 4.82995C12.1162 5.99384 11.9974 7.20024 11.5433 8.29659C11.0892 9.39295 10.3201 10.33 9.33342 10.9893C8.34673 11.6486 7.18669 12.0005 6 12.0005C4.40929 11.9986 2.88427 11.3658 1.75946 10.241C0.634658 9.11622 0.00190543 7.59121 0 6.00049ZM1.0904 6.00049C1.0904 6.97152 1.37834 7.92074 1.91782 8.72812C2.45729 9.5355 3.22407 10.1648 4.12118 10.5364C5.01829 10.908 6.00545 11.0052 6.95782 10.8158C7.91018 10.6263 8.78499 10.1587 9.47161 9.4721C10.1582 8.78548 10.6258 7.91068 10.8153 6.95831C11.0047 6.00594 10.9075 5.01878 10.5359 4.12167C10.1643 3.22456 9.53501 2.45778 8.72763 1.91831C7.92025 1.37883 6.97103 1.09089 6 1.09089C4.69828 1.09216 3.45025 1.60983 2.52979 2.53028C1.60934 3.45074 1.09167 4.69877 1.0904 6.00049ZM5.2208 8.48049V5.92049C5.2208 5.71405 5.30281 5.51606 5.44879 5.37008C5.59477 5.2241 5.79276 5.14209 5.9992 5.14209C6.20564 5.14209 6.40363 5.2241 6.54961 5.37008C6.69559 5.51606 6.7776 5.71405 6.7776 5.92049V8.48049C6.7776 8.68694 6.69559 8.88493 6.54961 9.0309C6.40363 9.17688 6.20564 9.25889 5.9992 9.25889C5.79276 9.25889 5.59477 9.17688 5.44879 9.0309C5.30281 8.88493 5.2208 8.68694 5.2208 8.48049ZM5.2208 3.52049C5.22329 3.31453 5.30615 3.1177 5.45172 2.97198C5.5973 2.82626 5.79404 2.74319 6 2.74049C6.20387 2.74896 6.39709 2.8338 6.5413 2.97815C6.6855 3.1225 6.77014 3.31582 6.7784 3.51969C6.7784 3.62191 6.75827 3.72313 6.71915 3.81757C6.68003 3.91201 6.62269 3.99782 6.55041 4.0701C6.47813 4.14238 6.39232 4.19972 6.29788 4.23884C6.20344 4.27796 6.10222 4.29809 6 4.29809C5.89778 4.29809 5.79656 4.27796 5.70212 4.23884C5.60768 4.19972 5.52187 4.14238 5.44959 4.0701C5.37731 3.99782 5.31997 3.91201 5.28085 3.81757C5.24173 3.72313 5.2216 3.62191 5.2216 3.51969L5.2208 3.52049Z" fill="white"/>
</svg>
