<svg width="20" height="20" viewBox="0 0 20 20" fill="none" xmlns="http://www.w3.org/2000/svg">
<g opacity="0.5">
<path d="M9.55298 7.53662H5.10179C3.46102 7.53662 2.12891 8.86873 2.12891 10.5095V17.7793H9.55298C11.1938 17.7793 12.5259 16.4471 12.5259 14.8064V10.5095C12.5259 8.87685 11.1938 7.53662 9.55298 7.53662ZM11.3075 14.8064C11.3075 15.773 10.5196 16.5609 9.55298 16.5609H3.3473V10.5095C3.3473 9.54291 4.13519 8.75501 5.10179 8.75501H9.55298C10.5196 8.75501 11.3075 9.54291 11.3075 10.5095V14.8064Z" fill="white"/>
<path d="M15.5303 2.2002H9.81197C8.52047 2.2002 7.47266 3.24801 7.47266 4.53951V5.31116C7.47266 5.64419 7.74883 5.92036 8.08185 5.92036C8.41488 5.92036 8.69105 5.64419 8.69105 5.31116V4.53139C8.69105 3.91407 9.19465 3.41047 9.81197 3.41047H15.5303C16.1476 3.41047 16.6512 3.91407 16.6512 4.53139V10.1035C16.6512 10.7208 16.1476 11.2244 15.5303 11.2244H14.7586C14.4256 11.2244 14.1495 11.5006 14.1495 11.8336C14.1495 12.1667 14.4256 12.4428 14.7586 12.4428H15.5303C16.8218 12.4428 17.8696 11.395 17.8696 10.1035V4.53139C17.8696 3.24801 16.8218 2.2002 15.5303 2.2002Z" fill="white"/>
</g>
</svg>
