<svg width="20" height="20" viewBox="0 0 20 20" fill="none" xmlns="http://www.w3.org/2000/svg">
<g opacity="0.5">
<path d="M16.6957 8.69565H11.3043V3.30435C11.3043 2.60869 10.6957 2 10 2C9.30435 2 8.69565 2.60869 8.69565 3.30435V8.69565H3.30435C2.6087 8.69565 2 9.30435 2 10C2 10.6957 2.6087 11.3043 3.30435 11.3043H8.69565V16.6957C8.69565 17.3913 9.30435 18 10 18C10.6957 18 11.3043 17.3913 11.3043 16.6957V11.3043H16.6957C17.3913 11.3043 18 10.6957 18 10C18 9.30435 17.4783 8.69565 16.6957 8.69565Z" fill="white"/>
</g>
</svg>
