<svg width="16" height="14" viewBox="0 0 16 14" fill="none" xmlns="http://www.w3.org/2000/svg">
<path d="M6.99932 13.8602H6.92332C6.04302 13.8503 5.17331 13.667 4.36389 13.3208C3.55448 12.9745 2.82123 12.4722 2.20605 11.8424C1.59088 11.2127 1.10585 10.4679 0.778682 9.65057C0.451514 8.83327 0.288624 7.9595 0.299323 7.07921C0.307187 5.30348 1.01519 3.60253 2.26962 2.34568C3.52404 1.08882 5.22361 0.377517 6.99932 0.366211C8.76398 0.374993 10.4535 1.08137 11.6993 2.33121C12.9291 3.61051 13.629 5.30792 13.6583 7.08221L13.6653 7.37521H15.2063C15.3084 7.40084 15.4038 7.44788 15.4863 7.51321L15.5093 7.53621C15.5682 7.58836 15.6156 7.65218 15.6485 7.72362C15.6814 7.79507 15.699 7.87257 15.7003 7.95121C15.7036 8.01736 15.693 8.08348 15.6693 8.1453C15.6455 8.20713 15.6091 8.2633 15.5623 8.31021L13.5083 10.6482C13.4531 10.7078 13.3859 10.755 13.311 10.7867C13.2362 10.8184 13.1556 10.8339 13.0743 10.8322C13.0003 10.8353 12.9265 10.8216 12.8586 10.7919C12.7907 10.7623 12.7304 10.7176 12.6823 10.6612L10.6663 8.39921C10.5658 8.29885 10.5023 8.16738 10.4861 8.02626C10.4699 7.88513 10.5021 7.7427 10.5773 7.62221C10.632 7.55209 10.7005 7.49398 10.7786 7.45149C10.8567 7.409 10.9428 7.38303 11.0313 7.37521H12.4803V7.07521C12.4792 5.63434 11.9112 4.25178 10.8991 3.22621C9.88698 2.20065 8.51205 1.61443 7.07132 1.59421C5.61007 1.60915 4.21175 2.19107 3.17132 3.21721C2.12647 4.24523 1.5317 5.64549 1.51732 7.11121C1.51982 8.56371 2.07673 9.96047 3.07432 11.0162C3.57602 11.5269 4.17441 11.9326 4.83457 12.2095C5.49472 12.4864 6.20343 12.6291 6.91932 12.6292H6.99932C7.90238 12.6217 8.79101 12.4018 9.59332 11.9872C9.68575 11.9384 9.78883 11.9134 9.89332 11.9142C10 11.9133 10.1047 11.943 10.1951 11.9997C10.2855 12.0564 10.3577 12.1378 10.4033 12.2342C10.4425 12.3085 10.4664 12.3898 10.4738 12.4734C10.4812 12.557 10.4719 12.6412 10.4463 12.7212C10.4222 12.7925 10.3841 12.8583 10.3344 12.9148C10.2846 12.9713 10.2241 13.0173 10.1563 13.0502C9.18394 13.5689 8.1013 13.8467 6.99932 13.8602Z" fill="white"/>
</svg>
