<svg width="12" height="12" viewBox="0 0 12 12" fill="none" xmlns="http://www.w3.org/2000/svg">
<path d="M12 6C12 7.18669 11.6481 8.34673 10.9888 9.33342C10.3295 10.3201 9.39246 11.0892 8.2961 11.5433C7.19975 11.9974 5.99335 12.1162 4.82946 11.8847C3.66557 11.6532 2.59648 11.0818 1.75736 10.2426C0.918247 9.40353 0.346802 8.33443 0.115291 7.17054C-0.11622 6.00666 0.0025997 4.80026 0.456725 3.7039C0.910851 2.60754 1.67989 1.67047 2.66658 1.01118C3.65328 0.351894 4.81331 0 6 0C7.59074 0.00181488 9.11581 0.634539 10.2406 1.75936C11.3655 2.88419 11.9982 4.40926 12 6ZM9.21086 4.11857C9.15888 4.05748 9.09424 4.00841 9.02143 3.97476C8.94862 3.94111 8.86936 3.92368 8.78915 3.92368C8.70893 3.92368 8.62968 3.94111 8.55686 3.97476C8.48405 4.00841 8.41941 4.05748 8.36743 4.11857L5.51314 6.97286C5.43321 7.0479 5.33015 7.09353 5.22086 7.10229C5.16539 7.10529 5.10999 7.09513 5.05919 7.07263C5.00839 7.05014 4.96364 7.01595 4.92857 6.97286L3.63086 5.67514C3.57831 5.61681 3.51272 5.57173 3.43943 5.54357C3.36614 5.51542 3.28723 5.50499 3.20915 5.51314C3.05314 5.51182 2.90243 5.56971 2.78743 5.67514C2.67808 5.7883 2.61696 5.9395 2.61696 6.09686C2.61696 6.25421 2.67808 6.40542 2.78743 6.51857L4.8 8.52943C4.91824 8.62951 5.06688 8.68661 5.22172 8.69143C5.37773 8.69275 5.52843 8.63486 5.64343 8.52943L9.21086 4.962C9.27195 4.91002 9.32102 4.84539 9.35467 4.77257C9.38832 4.69976 9.40575 4.6205 9.40575 4.54029C9.40575 4.46007 9.38832 4.38082 9.35467 4.308C9.32102 4.23519 9.27195 4.17055 9.21086 4.11857Z" fill="#22B339"/>
</svg>
