<svg width="16" height="14" viewBox="0 0 16 14" fill="none" xmlns="http://www.w3.org/2000/svg">
<path d="M9.07621 13.8598H8.99921C7.89994 13.8495 6.81926 13.5751 5.84821 13.0598C5.77838 13.0256 5.71639 12.9772 5.66614 12.9179C5.61589 12.8585 5.57846 12.7894 5.55621 12.7148C5.51219 12.5576 5.52972 12.3896 5.60521 12.2448C5.65031 12.1486 5.72203 12.0673 5.81188 12.0106C5.90173 11.9539 6.00596 11.9241 6.11221 11.9248C6.21663 11.9246 6.31956 11.9496 6.41221 11.9978C7.21325 12.4129 8.10103 12.6329 9.00321 12.6398H9.07921C9.79509 12.6396 10.5038 12.4969 11.1639 12.2199C11.824 11.943 12.4224 11.5374 12.9242 11.0268C13.9234 9.97056 14.4817 8.57277 14.4852 7.11882C14.4789 6.39169 14.3294 5.67293 14.0453 5.00358C13.7611 4.33424 13.3479 3.72743 12.8292 3.21782C11.7893 2.19087 10.3907 1.60882 8.92921 1.59482C8.21936 1.5999 7.51748 1.74489 6.86372 2.0215C6.20996 2.2981 5.61715 2.70089 5.11921 3.20682C4.61107 3.71452 4.20816 4.31755 3.93359 4.98131C3.65902 5.64507 3.5182 6.35651 3.51921 7.07482V7.37482H4.97021C5.05819 7.38333 5.14352 7.4096 5.22104 7.45206C5.29857 7.49452 5.36666 7.55227 5.42121 7.62182C5.49717 7.74187 5.53003 7.88419 5.5144 8.0254C5.49878 8.1666 5.43558 8.29829 5.33521 8.39882L3.33521 10.6468L3.32521 10.6598C3.27572 10.7166 3.21404 10.7615 3.14478 10.7911C3.07552 10.8207 3.00046 10.8343 2.92521 10.8308C2.84436 10.833 2.764 10.8176 2.68961 10.7859C2.61523 10.7541 2.54858 10.7067 2.49421 10.6468L0.450209 8.32282L0.440209 8.30882C0.393135 8.26221 0.356287 8.20631 0.332011 8.14467C0.307734 8.08303 0.296563 8.01701 0.299209 7.95082C0.300522 7.87218 0.318181 7.79468 0.351063 7.72323C0.383945 7.65179 0.431331 7.58797 0.490209 7.53582L0.516209 7.51282C0.598839 7.44593 0.69562 7.39873 0.799209 7.37482H2.33721V7.08182C2.37069 5.30782 3.0712 3.61153 4.29921 2.33082C5.23724 1.40288 6.42862 0.772894 7.72363 0.520042C9.01864 0.26719 10.3595 0.402752 11.5777 0.909691C12.7959 1.41663 13.8371 2.27233 14.5704 3.36925C15.3037 4.46617 15.6964 5.75536 15.6992 7.07482C15.7104 7.95544 15.5479 8.82964 15.221 9.64741C14.8941 10.4652 14.4091 11.2105 13.7939 11.8406C13.1787 12.4708 12.4453 12.9735 11.6356 13.32C10.8259 13.6665 9.95585 13.8499 9.07521 13.8598H9.07621Z" fill="white"/>
</svg>
