<svg width="8" height="6" viewBox="0 0 8 6" fill="none" xmlns="http://www.w3.org/2000/svg">
<path d="M3.29579 0.952913L0.669031 3.61468C0.488431 3.78882 0.378441 4.02349 0.360138 4.2737C0.341835 4.52391 0.416506 4.77208 0.569841 4.97065C0.657694 5.07653 0.76654 5.16304 0.88951 5.22474C1.01248 5.28643 1.1469 5.32196 1.2843 5.32909C1.42169 5.33622 1.55907 5.31478 1.68776 5.26615C1.81646 5.21751 1.93367 5.14272 2.03201 5.0465L3.79174 3.26343C3.84629 3.21464 3.91692 3.18766 3.99011 3.18766C4.06331 3.18766 4.13394 3.21464 4.18849 3.26343L5.92255 5.02083C6.09163 5.20369 6.3237 5.3157 6.57204 5.33432C6.82039 5.35294 7.06657 5.27678 7.26102 5.12119C7.3659 5.03049 7.45133 4.91948 7.51215 4.79487C7.57297 4.67026 7.60792 4.53462 7.6149 4.39614C7.62188 4.25765 7.60074 4.11919 7.55275 3.98909C7.50477 3.859 7.43094 3.73997 7.3357 3.63919L4.68327 0.952913C4.49777 0.771798 4.24879 0.67041 3.98953 0.67041C3.73027 0.67041 3.4813 0.771798 3.29579 0.952913Z" fill="white"/>
</svg>
