<svg xmlns="http://www.w3.org/2000/svg" xmlns:xlink="http://www.w3.org/1999/xlink" width="264" height="61" viewBox="0 0 264 61">
  <defs>
    <clipPath id="clip-path">
      <rect id="Rectangle_49533" data-name="Rectangle 49533" width="264" height="61" rx="12" fill="none"/>
    </clipPath>
    <linearGradient id="linear-gradient" x1="0.39" y1="0.55" x2="0.76" y2="0.557" gradientUnits="objectBoundingBox">
      <stop offset="0" stop-color="#fff"/>
      <stop offset="1" stop-color="#fff" stop-opacity="0"/>
    </linearGradient>
  </defs>
  <g id="Mask_Group_1380" data-name="Mask Group 1380" clip-path="url(#clip-path)">
    <g id="Group_97434" data-name="Group 97434" transform="translate(36 0.859)">
      <ellipse id="Ellipse_1" data-name="Ellipse 1" cx="1" cy="0.5" rx="1" ry="0.5" transform="translate(222 51.141)" fill="rgba(50,58,69,0.13)"/>
      <ellipse id="Ellipse_2" data-name="Ellipse 2" cx="1" cy="0.5" rx="1" ry="0.5" transform="translate(224 39.141)" fill="rgba(50,58,69,0.13)"/>
      <circle id="Ellipse_3" data-name="Ellipse 3" cx="1" cy="1" r="1" transform="translate(212 21.141)" fill="rgba(50,58,69,0.13)"/>
      <circle id="Ellipse_17" data-name="Ellipse 17" cx="1" cy="1" r="1" transform="translate(217 10.141)" fill="rgba(50,58,69,0.13)"/>
      <circle id="Ellipse_18" data-name="Ellipse 18" cx="1" cy="1" r="1" transform="translate(177 9.141)" fill="rgba(50,58,69,0.13)"/>
      <ellipse id="Ellipse_19" data-name="Ellipse 19" cx="1" cy="0.5" rx="1" ry="0.5" transform="translate(166 2.141)" fill="rgba(50,58,69,0.13)"/>
      <circle id="Ellipse_20" data-name="Ellipse 20" cx="1" cy="1" r="1" transform="translate(161 11.141)" fill="rgba(50,58,69,0.13)"/>
      <circle id="Ellipse_30" data-name="Ellipse 30" cx="1" cy="1" r="1" transform="translate(149 8.141)" fill="rgba(50,58,69,0.13)"/>
      <circle id="Ellipse_31" data-name="Ellipse 31" cx="1" cy="1" r="1" transform="translate(151 2.141)" fill="rgba(50,58,69,0.13)"/>
      <ellipse id="Ellipse_21" data-name="Ellipse 21" cx="1" cy="0.5" rx="1" ry="0.5" transform="translate(145 56.141)" fill="rgba(50,58,69,0.13)"/>
      <circle id="Ellipse_29" data-name="Ellipse 29" cx="1" cy="1" r="1" transform="translate(134 6.141)" fill="rgba(50,58,69,0.13)"/>
      <ellipse id="Ellipse_22" data-name="Ellipse 22" cx="1" cy="0.5" rx="1" ry="0.5" transform="translate(100 50.141)" fill="rgba(50,58,69,0.13)"/>
      <ellipse id="Ellipse_33" data-name="Ellipse 33" cx="1" cy="0.5" rx="1" ry="0.5" transform="translate(60 51.141)" fill="rgba(50,58,69,0.13)"/>
      <circle id="Ellipse_28" data-name="Ellipse 28" cx="1" cy="1" r="1" transform="translate(119 10.141)" fill="rgba(50,58,69,0.13)"/>
      <circle id="Ellipse_39" data-name="Ellipse 39" cx="1" cy="1" r="1" transform="translate(119 0.141)" fill="rgba(50,58,69,0.13)"/>
      <circle id="Ellipse_23" data-name="Ellipse 23" cx="1" cy="1" r="1" transform="translate(126 55.141)" fill="rgba(50,58,69,0.13)"/>
      <circle id="Ellipse_24" data-name="Ellipse 24" cx="1" cy="1" r="1" transform="translate(48 57.141)" fill="rgba(50,58,69,0.13)"/>
      <ellipse id="Ellipse_35" data-name="Ellipse 35" cx="1" cy="0.5" rx="1" ry="0.5" transform="translate(49 1.141)" fill="rgba(50,58,69,0.13)"/>
      <circle id="Ellipse_38" data-name="Ellipse 38" cx="1" cy="1" r="1" transform="translate(32 8.141)" fill="rgba(50,58,69,0.13)"/>
      <ellipse id="Ellipse_26" data-name="Ellipse 26" cx="1" cy="0.5" rx="1" ry="0.5" transform="translate(101 8.141)" fill="rgba(50,58,69,0.13)"/>
      <circle id="Ellipse_36" data-name="Ellipse 36" cx="1" cy="1" r="1" transform="translate(70 4.141)" fill="rgba(50,58,69,0.13)"/>
      <circle id="Ellipse_37" data-name="Ellipse 37" cx="1" cy="1" r="1" transform="translate(15 4.141)" fill="rgba(50,58,69,0.13)"/>
      <ellipse id="Ellipse_43" data-name="Ellipse 43" cx="1" cy="0.5" rx="1" ry="0.5" transform="translate(9 26.141)" fill="rgba(50,58,69,0.13)"/>
      <circle id="Ellipse_41" data-name="Ellipse 41" cx="1" cy="1" r="1" transform="translate(1 11.141)" fill="rgba(50,58,69,0.13)"/>
      <ellipse id="Ellipse_25" data-name="Ellipse 25" cx="1" cy="0.5" rx="1" ry="0.5" transform="translate(83 57.141)" fill="rgba(50,58,69,0.13)"/>
      <ellipse id="Ellipse_34" data-name="Ellipse 34" cx="1" cy="0.5" rx="1" ry="0.5" transform="translate(21 56.141)" fill="rgba(50,58,69,0.13)"/>
      <ellipse id="Ellipse_42" data-name="Ellipse 42" cx="1" cy="0.5" rx="1" ry="0.5" transform="translate(15 44.141)" fill="rgba(50,58,69,0.13)"/>
      <circle id="Ellipse_40" data-name="Ellipse 40" cx="1" cy="1" r="1" transform="translate(0 51.141)" fill="rgba(50,58,69,0.13)"/>
      <circle id="Ellipse_27" data-name="Ellipse 27" cx="1" cy="1" r="1" transform="translate(87 2.141)" fill="rgba(50,58,69,0.13)"/>
      <circle id="Ellipse_4" data-name="Ellipse 4" cx="1" cy="1" r="1" transform="translate(222 4.141)" fill="rgba(50,58,69,0.13)"/>
      <circle id="Ellipse_5" data-name="Ellipse 5" cx="1" cy="1" r="1" transform="translate(206 10.141)" fill="rgba(50,58,69,0.13)"/>
      <ellipse id="Ellipse_6" data-name="Ellipse 6" cx="1" cy="0.5" rx="1" ry="0.5" transform="translate(187 2.141)" fill="rgba(50,58,69,0.13)"/>
      <circle id="Ellipse_7" data-name="Ellipse 7" cx="1" cy="1" r="1" transform="translate(198 4.141)" fill="rgba(50,58,69,0.13)"/>
      <circle id="Ellipse_8" data-name="Ellipse 8" cx="1" cy="1" r="1" transform="translate(211 45.141)" fill="rgba(50,58,69,0.13)"/>
      <ellipse id="Ellipse_9" data-name="Ellipse 9" cx="1" cy="0.5" rx="1" ry="0.5" transform="translate(198 57.141)" fill="rgba(50,58,69,0.13)"/>
      <circle id="Ellipse_10" data-name="Ellipse 10" cx="1" cy="1" r="1" transform="translate(188 49.141)" fill="rgba(50,58,69,0.13)"/>
      <ellipse id="Ellipse_11" data-name="Ellipse 11" cx="1" cy="0.5" rx="1" ry="0.5" transform="translate(172 57.141)" fill="rgba(50,58,69,0.13)"/>
      <circle id="Ellipse_32" data-name="Ellipse 32" cx="1" cy="1" r="1" transform="translate(183 54.141)" fill="rgba(50,58,69,0.13)"/>
      <circle id="Ellipse_12" data-name="Ellipse 12" cx="1" cy="1" r="1" transform="translate(161 52.141)" fill="rgba(50,58,69,0.13)"/>
      <circle id="Ellipse_13" data-name="Ellipse 13" cx="1" cy="1" r="1" transform="translate(216 58.141)" fill="rgba(50,58,69,0.13)"/>
      <ellipse id="Ellipse_14" data-name="Ellipse 14" cx="1" cy="0.5" rx="1" ry="0.5" transform="translate(217 33.141)" fill="rgba(50,58,69,0.13)"/>
      <circle id="Ellipse_15" data-name="Ellipse 15" cx="1" cy="1" r="1" transform="translate(224 16.141)" fill="rgba(50,58,69,0.13)"/>
      <ellipse id="Ellipse_16" data-name="Ellipse 16" cx="1" cy="0.5" rx="1" ry="0.5" transform="translate(211 1.141)" fill="rgba(50,58,69,0.13)"/>
    </g>
    <rect id="Rectangle_49534" data-name="Rectangle 49534" width="566" height="63" rx="12" transform="translate(-301 -1)" fill="url(#linear-gradient)"/>
  </g>
</svg>
