<svg width="14" height="14" viewBox="0 0 14 14" fill="none" xmlns="http://www.w3.org/2000/svg">
<g opacity="0.2" clip-path="url(#clip0_2334_18611)">
<path d="M11.4548 10.0021L8.45264 7L11.4548 3.99787C11.8421 3.6105 11.8421 2.9326 11.4548 2.54523C11.0674 2.15786 10.3895 2.15785 10.0021 2.54523L7 5.54736L3.99787 2.54523C3.6105 2.15786 2.9326 2.15786 2.54523 2.54523C2.15786 2.9326 2.15786 3.6105 2.54523 3.99787L5.54736 7L2.54523 10.0021C2.15786 10.3895 2.15786 11.0674 2.54523 11.4548C2.9326 11.8421 3.6105 11.8421 3.99787 11.4548L7 8.45264L10.0021 11.4548C10.3895 11.8421 11.0674 11.8421 11.4548 11.4548C11.8421 11.0674 11.8906 10.4379 11.4548 10.0021Z" fill="white"/>
</g>
<defs>
<clipPath id="clip0_2334_18611">
<rect width="14" height="14" fill="white"/>
</clipPath>
</defs>
</svg>
