<svg xmlns="http://www.w3.org/2000/svg" width="14" height="14" viewBox="0 0 14 14">
  <g id="Group_93996" data-name="Group 93996" transform="translate(0)">
    <path id="Subtraction_1" data-name="Subtraction 1" d="M7,14a7,7,0,1,1,7-7A7.008,7.008,0,0,1,7,14ZM7,1.556A5.444,5.444,0,1,0,12.445,7,5.45,5.45,0,0,0,7,1.556Z" transform="translate(0)" fill="rgba(42,47,48,0.1)"/>
    <path id="Intersection_2" data-name="Intersection 2" d="M6.1,7h0A5.45,5.45,0,0,0,.65,1.556V1.534A.737.737,0,0,1,0,.809.814.814,0,0,1,.65,0a7.008,7.008,0,0,1,7,7H7.639a.764.764,0,0,1-.754.732H6.853A.784.784,0,0,1,6.1,7Z" transform="translate(6.351 0)" fill="rgba(42,47,48,0.5)"/>
  </g>
</svg>
