<svg xmlns="http://www.w3.org/2000/svg" xmlns:xlink="http://www.w3.org/1999/xlink" width="20" height="20" viewBox="0 0 20 20">
  <defs>
    <clipPath id="clip-path">
      <rect id="Rectangle_54352" data-name="Rectangle 54352" width="20" height="20" transform="translate(142 9411)" fill="#0b0d0d"/>
    </clipPath>
  </defs>
  <g id="Mask_Group_95702" data-name="Mask Group 95702" transform="translate(-142 -9411)" clip-path="url(#clip-path)">
    <g id="_6_publish_websites" data-name="6_publish websites" transform="translate(143.25 9412)">
      <g id="Group_172362" data-name="Group 172362" transform="translate(0 2.454)">
        <path id="Path_172380" data-name="Path 172380" d="M14.894,11.1A4.2,4.2,0,0,1,10.7,6.913a3.348,3.348,0,0,1,.058-.663H2.747A2.245,2.245,0,0,0,.5,8.488v7.07A2.247,2.247,0,0,0,2.747,17.8h11.3a2.247,2.247,0,0,0,2.247-2.245v-4.7A4.075,4.075,0,0,1,14.894,11.1ZM3.7,8.247a.47.47,0,0,1-.46.372.485.485,0,0,1-.474-.4.157.157,0,0,1-.015-.08.481.481,0,0,1,.963,0A.283.283,0,0,1,3.7,8.247Zm1.663,0a.48.48,0,0,1-.941-.029v-.08a.481.481,0,0,1,.963,0A.2.2,0,0,1,5.366,8.247Zm1.671,0A.48.48,0,0,1,6.1,8.218a.157.157,0,0,1-.015-.08.481.481,0,0,1,.963,0A.551.551,0,0,1,7.037,8.247Z" transform="translate(-0.5 -6.25)" fill="#0b0d0d"/>
      </g>
      <g id="Group_172364" data-name="Group 172364" transform="translate(11.298)">
        <g id="Group_172363" data-name="Group 172363" opacity="0.3">
          <path id="Path_172381" data-name="Path 172381" d="M22.182,6a3.087,3.087,0,0,1-1.705,2.762,3.027,3.027,0,0,1-1.4.335A3.1,3.1,0,0,1,15.98,6a2.847,2.847,0,0,1,.073-.663A3.1,3.1,0,0,1,22.182,6Z" transform="translate(-15.98 -2.9)" fill="#0b0d0d"/>
        </g>
        <circle id="Ellipse_12708" data-name="Ellipse 12708" cx="1.931" cy="1.931" r="1.931" transform="translate(1.173 1.173)" fill="#0b0d0d"/>
      </g>
    </g>
  </g>
</svg>
