<svg xmlns="http://www.w3.org/2000/svg" xmlns:xlink="http://www.w3.org/1999/xlink" width="20" height="20" viewBox="0 0 20 20">
  <defs>
    <clipPath id="clip-path">
      <rect id="Rectangle_54343" data-name="Rectangle 54343" width="20" height="20" transform="translate(19 9411)" fill="#0b0d0d"/>
    </clipPath>
  </defs>
  <g id="Mask_Group_95693" data-name="Mask Group 95693" transform="translate(-19 -9411)" clip-path="url(#clip-path)">
    <g id="_1_quick_edit" data-name="1_quick edit" transform="translate(22.063 9411.5)">
      <path id="Path_172360" data-name="Path 172360" d="M16.357,6.112c-.11-.125-.235-.242-.352-.36a2.607,2.607,0,0,0-3.611.088L4.961,13.281,3.53,17.8a.612.612,0,0,0,.771.771l4.535-1.416,7.434-7.441a2.591,2.591,0,0,0,.088-3.6m-11.294,10,.6-1.9a4.55,4.55,0,0,1,2.3,2.224L6,17.046Zm10.3-9.65c.1.1.2.191.294.294a1.656,1.656,0,0,1-.059,2.29l-.286.286L12.783,6.8l.286-.286a1.656,1.656,0,0,1,2.29-.059" transform="translate(-3.17 -2.437)" fill="#0b0d0d"/>
      <g id="Group_172358" data-name="Group 172358" transform="translate(0 0)">
        <path id="Path_172361" data-name="Path 172361" d="M8.592,6.508a3.584,3.584,0,0,1,2.3-2.3.169.169,0,0,0,0-.323,3.473,3.473,0,0,1-1.424-.866A3.571,3.571,0,0,1,8.592,1.6a.165.165,0,0,0-.316,0A3.49,3.49,0,0,1,7.4,3.022,3.622,3.622,0,0,1,5.98,3.9a.165.165,0,0,0-.11.176.181.181,0,0,0,.117.147A3.5,3.5,0,0,1,7.4,5.084a3.571,3.571,0,0,1,.873,1.424.165.165,0,0,0,.316,0" transform="translate(-3.8 -1.482)" fill="#0b0d0d"/>
        <path id="Path_172362" data-name="Path 172362" d="M4.657,10.135a2.2,2.2,0,0,1,.514-.844,2.067,2.067,0,0,1,.844-.514.1.1,0,0,0,.066-.1.086.086,0,0,0-.066-.088,2.059,2.059,0,0,1-.837-.521,2.09,2.09,0,0,1-.514-.837.1.1,0,0,0-.191,0,2.123,2.123,0,0,1-.514.837,2.067,2.067,0,0,1-.844.514.111.111,0,0,0-.066.1.1.1,0,0,0,.066.1A2.2,2.2,0,0,1,3.96,9.3a2.067,2.067,0,0,1,.514.844.1.1,0,0,0,.183-.007" transform="translate(-3.05 -2.996)" fill="#0b0d0d"/>
      </g>
    </g>
  </g>
</svg>
