<svg width="20" height="20" viewBox="0 0 20 20" fill="none" xmlns="http://www.w3.org/2000/svg">
<mask id="mask0_1150_3674" style="mask-type:luminance" maskUnits="userSpaceOnUse" x="0" y="0" width="20" height="20">
<path d="M20 0H0V20H20V0Z" fill="white"/>
</mask>
<g mask="url(#mask0_1150_3674)">
<path d="M13.0361 12.588C11.8815 12.9645 10.8322 13.6083 9.97346 14.4671C9.11475 15.3258 8.47093 16.3751 8.0944 17.5297C8.07057 17.6014 8.02474 17.6639 7.96341 17.7082C7.90208 17.7524 7.82837 17.7762 7.75273 17.7762C7.6771 17.7762 7.60339 17.7524 7.54206 17.7082C7.48073 17.6639 7.4349 17.6014 7.41107 17.5297C7.03502 16.3737 6.38949 15.3237 5.52773 14.4663C4.6718 13.6084 3.62492 12.9653 2.47273 12.5897C2.40012 12.5667 2.3367 12.5212 2.29169 12.4598C2.24668 12.3983 2.22241 12.3242 2.22241 12.248C2.22241 12.1718 2.24668 12.0977 2.29169 12.0362C2.3367 11.9748 2.40012 11.9293 2.47273 11.9063C3.62508 11.531 4.67204 10.8879 5.52773 10.0297C6.38999 9.1727 7.03561 8.12258 7.41107 6.96633C7.4349 6.89455 7.48073 6.8321 7.54206 6.78784C7.60339 6.74357 7.6771 6.71975 7.75273 6.71975C7.82837 6.71975 7.90208 6.74357 7.96341 6.78784C8.02474 6.8321 8.07057 6.89455 8.0944 6.96633C8.46841 8.1207 9.11041 9.17012 9.96787 10.0287C10.8253 10.8873 11.8739 11.5308 13.0277 11.9063C13.0989 11.9305 13.1607 11.9764 13.2045 12.0376C13.2483 12.0987 13.2718 12.172 13.2718 12.2472C13.2718 12.3223 13.2483 12.3957 13.2045 12.4568C13.1607 12.5179 13.0989 12.5638 13.0277 12.588H13.0361Z" fill="black"/>
<path d="M17.6185 5.70409C16.9368 5.92668 16.3172 6.30697 15.8101 6.81406C15.303 7.32115 14.9228 7.94072 14.7002 8.62243C14.6886 8.6671 14.6625 8.70667 14.626 8.73491C14.5895 8.76315 14.5446 8.77848 14.4985 8.77848C14.4523 8.77848 14.4075 8.76315 14.371 8.73491C14.3345 8.70667 14.3084 8.6671 14.2968 8.62243C14.0735 7.9411 13.693 7.3219 13.186 6.81492C12.679 6.30793 12.0598 5.9274 11.3785 5.70409C11.3331 5.69311 11.2927 5.66717 11.2637 5.63044C11.2348 5.59371 11.2191 5.54833 11.2191 5.50159C11.2191 5.45485 11.2348 5.40947 11.2637 5.37275C11.2927 5.33602 11.3331 5.31008 11.3785 5.29909C12.0601 5.07969 12.6799 4.70154 13.1868 4.19576C13.694 3.68578 14.0728 3.06254 14.2918 2.37743C14.3034 2.33275 14.3295 2.29319 14.366 2.26494C14.4025 2.2367 14.4473 2.22137 14.4935 2.22137C14.5397 2.22137 14.5845 2.2367 14.621 2.26494C14.6575 2.29319 14.6836 2.33275 14.6952 2.37743C14.9179 3.06316 15.3 3.68632 15.8102 4.19576C16.3172 4.7049 16.9382 5.08597 17.6218 5.30743C17.6673 5.31841 17.7077 5.34435 17.7366 5.38108C17.7655 5.41781 17.7812 5.46319 17.7812 5.50993C17.7812 5.55667 17.7655 5.60205 17.7366 5.63878C17.7077 5.6755 17.6673 5.70144 17.6218 5.71243L17.6185 5.70409Z" fill="black"/>
<path opacity="0.5" d="M13.0104 12.5878C11.8559 12.9644 10.8065 13.6082 9.94781 14.4669C9.0891 15.3256 8.44528 16.3749 8.06875 17.5295C8.04763 17.5975 8.00637 17.6575 7.95042 17.7015C7.89447 17.7456 7.82647 17.7716 7.75541 17.7762C7.75541 17.7495 7.74708 6.82283 7.75541 6.71616C7.82647 6.72072 7.89447 6.74675 7.95042 6.79079C8.00637 6.83484 8.04763 6.89483 8.06875 6.96283C8.44325 8.11775 9.08601 9.16752 9.94437 10.0262C10.8027 10.8848 11.8523 11.5279 13.0071 11.9028C13.0801 11.9259 13.1439 11.9716 13.1891 12.0333C13.2344 12.095 13.2588 12.1696 13.2588 12.2462C13.2588 12.3227 13.2344 12.3973 13.1891 12.459C13.1439 12.5208 13.0801 12.5665 13.0071 12.5895L13.0104 12.5878Z" fill="white"/>
<path opacity="0.5" d="M17.6178 5.70416C16.9361 5.92675 16.3165 6.30704 15.8094 6.81413C15.3023 7.32121 14.9221 7.94079 14.6995 8.6225C14.6862 8.66542 14.6593 8.7029 14.623 8.72933C14.5867 8.75576 14.5427 8.76974 14.4978 8.76916V2.23083C14.5427 2.23025 14.5867 2.24423 14.623 2.27066C14.6593 2.29709 14.6862 2.33457 14.6995 2.3775C14.9221 3.06055 15.303 3.68131 15.8111 4.18916C16.3182 4.69831 16.9392 5.07937 17.6228 5.30083C17.6682 5.31181 17.7087 5.33775 17.7376 5.37448C17.7665 5.41121 17.7822 5.45659 17.7822 5.50333C17.7822 5.55007 17.7665 5.59545 17.7376 5.63218C17.7087 5.66891 17.6682 5.69485 17.6228 5.70583L17.6178 5.70416Z" fill="white"/>
</g>
</svg>
