<svg width="20" height="20" viewBox="0 0 20 20" fill="none" xmlns="http://www.w3.org/2000/svg">
<g clip-path="url(#clip0_8840_105102)">
<path d="M5.65459 9.17441C6.6439 9.17441 7.44589 8.37241 7.44589 7.3831C7.44589 6.39379 6.6439 5.5918 5.65459 5.5918C4.66528 5.5918 3.86328 6.39379 3.86328 7.3831C3.86328 8.37241 4.66528 9.17441 5.65459 9.17441Z" fill="black"/>
<path d="M19.1344 4.90504H16.7431V2.51374C16.7431 2.21809 16.4996 1.97461 16.2039 1.97461C15.9083 1.97461 15.6648 2.21809 15.6648 2.51374V4.90504H13.2735C12.9779 4.90504 12.7344 5.14852 12.7344 5.44418C12.7344 5.73983 12.9779 5.98331 13.2735 5.98331H15.6648V8.37461C15.6648 8.67026 15.9083 8.91374 16.2039 8.91374C16.4996 8.91374 16.7431 8.67026 16.7431 8.37461V5.98331H19.1344C19.43 5.98331 19.6735 5.73983 19.6735 5.44418C19.6735 5.14852 19.43 4.90504 19.1344 4.90504Z" fill="black"/>
<path d="M18.7929 9.60992C18.4973 9.60992 18.2538 9.8534 18.2538 10.149V12.4186L12.8538 9.09688L8.18421 13.6534L4.65377 11.2708L1.41029 14.1664V4.62731C1.41029 3.94035 1.97551 3.37514 2.66247 3.37514H10.6538C10.9494 3.37514 11.1929 3.13166 11.1929 2.83601C11.1929 2.54035 10.9494 2.29688 10.6538 2.29688H2.66247C1.37551 2.29688 0.332031 3.34035 0.332031 4.62731V15.6969C0.332031 16.9838 1.37551 18.0273 2.66247 18.0273H17.0016C18.2886 18.0273 19.332 16.9838 19.332 15.6969V10.149C19.332 9.8534 19.0973 9.60992 18.7929 9.60992ZM17.0016 16.9491H2.66247C1.97551 16.9491 1.41029 16.3838 1.41029 15.6969V15.6099L4.74942 12.636L8.31464 15.036L13.0103 10.4534L18.2625 13.6795V15.6882C18.2538 16.3925 17.6973 16.9491 17.0016 16.9491Z" fill="black"/>
</g>
<defs>
<clipPath id="clip0_8840_105102">
<rect width="20" height="20" fill="white"/>
</clipPath>
</defs>
</svg>
