<svg width="31" height="20" viewBox="0 0 31 20" fill="none" xmlns="http://www.w3.org/2000/svg">
<g clip-path="url(#clip0_6566_416442)">
<path d="M28.2238 0H2.77619C2.67021 0 2.56403 0 2.45824 0.000622847C2.36881 0.00126457 2.27958 0.0022649 2.19036 0.00471853C1.99577 0.0100222 1.79951 0.021592 1.60735 0.0563959C1.41212 0.0918038 1.23045 0.149559 1.05322 0.240494C0.878991 0.329788 0.719479 0.446581 0.581244 0.585948C0.442949 0.725314 0.327055 0.885801 0.238468 1.06158C0.148215 1.24018 0.0908673 1.42332 0.0559757 1.62021C0.0212545 1.81392 0.00969699 2.01166 0.00445294 2.20756C0.00205567 2.29747 0.00102746 2.38739 0.000444995 2.47729C-0.000173054 2.58413 3.29626e-05 2.6909 3.29626e-05 2.79794V17.2023C3.29626e-05 17.3093 -0.000173054 17.4159 0.000444995 17.5229C0.00102746 17.6128 0.00205567 17.7028 0.00445294 17.7927C0.00969699 17.9884 0.0212545 18.1861 0.0559757 18.3798C0.0908673 18.5768 0.148215 18.7598 0.238468 18.9384C0.327055 19.1142 0.442949 19.2749 0.581244 19.4141C0.719479 19.5537 0.878991 19.6704 1.05322 19.7595C1.23045 19.8507 1.41212 19.9085 1.60735 19.9438C1.79951 19.9784 1.99577 19.9902 2.19036 19.9955C2.27958 19.9975 2.36881 19.9988 2.45824 19.9992C2.56403 20 2.67021 20 2.77619 20H28.2238C28.3296 20 28.4358 20 28.5416 19.9992C28.6308 19.9988 28.72 19.9975 28.8097 19.9955C29.0039 19.9902 29.2001 19.9784 29.3927 19.9438C29.5877 19.9085 29.7694 19.8507 29.9466 19.7595C30.121 19.6704 30.2801 19.5537 30.4186 19.4141C30.5567 19.2749 30.6726 19.1142 30.7614 18.9384C30.8518 18.7598 30.9091 18.5768 30.9438 18.3798C30.9786 18.1861 30.9899 17.9884 30.9951 17.7927C30.9976 17.7028 30.9988 17.6128 30.9992 17.5229C31 17.4159 31 17.3093 31 17.2023V2.79794C31 2.6909 31 2.58413 30.9992 2.47729C30.9988 2.38739 30.9976 2.29747 30.9951 2.20756C30.9899 2.01166 30.9786 1.81392 30.9438 1.62021C30.9091 1.42332 30.8518 1.24018 30.7614 1.06158C30.6726 0.885801 30.5567 0.725314 30.4186 0.585948C30.2801 0.446581 30.121 0.329788 29.9466 0.240494C29.7694 0.149559 29.5877 0.0918038 29.3927 0.0563959C29.2001 0.021592 29.0039 0.0100222 28.8097 0.00471853C28.72 0.0022649 28.6308 0.00126457 28.5416 0.000622847C28.4358 0 28.3296 0 28.2238 0Z" fill="black"/>
<path d="M28.2244 0.666626L28.5375 0.66723C28.6223 0.667834 28.7071 0.668759 28.7924 0.671099C28.9407 0.675138 29.1142 0.683235 29.276 0.712452C29.4166 0.73797 29.5345 0.776775 29.6476 0.834832C29.7594 0.89204 29.8617 0.967008 29.9511 1.05694C30.0408 1.14748 30.1153 1.2508 30.1728 1.36463C30.2301 1.47778 30.2683 1.59605 30.2935 1.73877C30.3224 1.89999 30.3304 2.07533 30.3345 2.22574C30.3368 2.31064 30.3379 2.39553 30.3383 2.48245C30.3391 2.58756 30.3391 2.69261 30.3391 2.79793V17.2023C30.3391 17.3076 30.3391 17.4124 30.3383 17.5198C30.3379 17.6047 30.3368 17.6896 30.3345 17.7746C30.3304 17.9248 30.3224 18.1 30.2932 18.2632C30.2683 18.4039 30.2301 18.5222 30.1725 18.6359C30.1151 18.7495 30.0408 18.8527 29.9515 18.9427C29.8616 19.0333 29.7596 19.108 29.6465 19.1657C29.5342 19.2235 29.4165 19.2623 29.2773 19.2875C29.1123 19.3172 28.9315 19.3253 28.7953 19.329C28.7096 19.331 28.6244 19.3321 28.5371 19.3326C28.433 19.3334 28.3285 19.3334 28.2244 19.3334H2.77679C2.7754 19.3334 2.77406 19.3334 2.77265 19.3334C2.66975 19.3334 2.56665 19.3334 2.46188 19.3325C2.37646 19.3321 2.29123 19.331 2.20882 19.3291C2.06956 19.3253 1.88865 19.3172 1.72498 19.2877C1.58458 19.2623 1.46686 19.2235 1.35307 19.165C1.24109 19.1078 1.13915 19.0331 1.04923 18.9423C0.960009 18.8526 0.885862 18.7497 0.828533 18.636C0.771148 18.5224 0.732754 18.4037 0.70751 18.2613C0.678328 18.0985 0.670313 17.9239 0.666307 17.7747C0.66402 17.6893 0.663065 17.604 0.662521 17.5191L0.662109 17.2684L0.662128 17.2023V2.79793L0.662109 2.73176L0.662503 2.48166C0.663065 2.39625 0.66402 2.31087 0.666307 2.22554C0.670313 2.07622 0.678328 1.9016 0.707751 1.73743C0.732773 1.59627 0.771148 1.47763 0.828833 1.36346C0.885712 1.25061 0.95999 1.1476 1.04968 1.05723C1.13902 0.967159 1.2413 0.892285 1.35399 0.83453C1.46656 0.776757 1.5845 0.73797 1.72491 0.712509C1.88669 0.683216 2.06032 0.675138 2.20903 0.67108C2.29379 0.668759 2.37856 0.667834 2.46269 0.667249L2.77679 0.666626H28.2244Z" fill="white"/>
<path d="M8.4627 6.72685C8.72813 6.39228 8.90825 5.94304 8.86074 5.48398C8.47219 5.50345 7.99803 5.74231 7.72352 6.07715C7.47704 6.36388 7.25888 6.83193 7.31575 7.27175C7.75193 7.30988 8.18769 7.05204 8.4627 6.72685Z" fill="black"/>
<path d="M8.85519 7.35762C8.22177 7.3196 7.6832 7.71991 7.38071 7.71991C7.07805 7.71991 6.61483 7.37678 6.11382 7.38603C5.46173 7.39568 4.85667 7.76724 4.52576 8.35819C3.84514 9.5404 4.34614 11.294 5.00801 12.2568C5.32943 12.7332 5.7168 13.2577 6.22721 13.2388C6.70946 13.2198 6.89849 12.9242 7.48469 12.9242C8.07046 12.9242 8.24073 13.2388 8.75122 13.2293C9.28062 13.2198 9.61158 12.7527 9.933 12.2759C10.3017 11.7329 10.4527 11.2086 10.4622 11.1798C10.4527 11.1703 9.44134 10.7793 9.43196 9.60692C9.42241 8.62527 10.226 8.15834 10.2638 8.12939C9.81001 7.45304 9.101 7.37678 8.85519 7.35762Z" fill="black"/>
<path d="M14.3711 6.02912C15.7478 6.02912 16.7065 6.98548 16.7065 8.37788C16.7065 9.77525 15.7281 10.7366 14.3366 10.7366H12.8123V13.1795H11.7109V6.02911H14.3711V6.02912ZM12.8123 9.80498H14.0759C15.0348 9.80498 15.5805 9.28474 15.5805 8.38285C15.5805 7.48106 15.0348 6.9657 14.0809 6.9657H12.8123V9.80498Z" fill="black"/>
<path d="M16.9941 11.6979C16.9941 10.7861 17.6874 10.2262 18.9168 10.1568L20.3328 10.0726V9.67127C20.3328 9.09149 19.9443 8.74463 19.2954 8.74463C18.6806 8.74463 18.2971 9.04188 18.2038 9.50774H17.2007C17.2597 8.56618 18.0562 7.87247 19.3347 7.87247C20.5885 7.87247 21.3899 8.54143 21.3899 9.58697V13.1795H20.3721V12.3223H20.3476C20.0477 12.902 19.3937 13.2687 18.7152 13.2687C17.7022 13.2687 16.9941 12.6344 16.9941 11.6979ZM20.3328 11.2272V10.8159L19.0593 10.8952C18.4249 10.9398 18.0661 11.2222 18.0661 11.6682C18.0661 12.124 18.4397 12.4214 19.0101 12.4214C19.7526 12.4214 20.3328 11.906 20.3328 11.2272Z" fill="black"/>
<path d="M22.3512 15.0972V14.23C22.4298 14.2498 22.6067 14.2498 22.6953 14.2498C23.187 14.2498 23.4526 14.0417 23.6147 13.5066C23.6147 13.4966 23.7083 13.1894 23.7083 13.1845L21.8398 7.9666H22.9903L24.2984 12.2083H24.3179L25.626 7.9666H26.747L24.8096 13.452C24.3672 14.7157 23.8558 15.122 22.7839 15.122C22.6953 15.122 22.4298 15.112 22.3512 15.0972Z" fill="black"/>
</g>
<path d="M4 0.5H27C28.933 0.5 30.5 2.067 30.5 4V16C30.5 17.933 28.933 19.5 27 19.5H4C2.067 19.5 0.5 17.933 0.5 16V4C0.5 2.067 2.067 0.5 4 0.5Z" stroke="#EAEAEA"/>
<defs>
<clipPath id="clip0_6566_416442">
<path d="M0 4C0 1.79086 1.79086 0 4 0H27C29.2091 0 31 1.79086 31 4V16C31 18.2091 29.2091 20 27 20H4C1.79086 20 0 18.2091 0 16V4Z" fill="white"/>
</clipPath>
</defs>
</svg>
