<svg width="20" height="20" viewBox="0 0 20 20" fill="none" xmlns="http://www.w3.org/2000/svg">
<path d="M16.1485 18.1074C16.0255 18.1074 15.9128 18.0766 15.8 18.0151L12.3154 15.9141H5.28463C4.1265 15.9141 3.18359 14.9712 3.18359 13.8131V4.00484C3.18359 2.83646 4.1265 1.89355 5.29487 1.89355H14.7136C15.8718 1.89355 16.8147 2.83646 16.8147 3.99459V17.4412C16.8147 17.6769 16.6814 17.9024 16.4765 18.0254C16.374 18.0766 16.2612 18.1074 16.1485 18.1074ZM5.29487 3.02094C4.75168 3.02094 4.31098 3.46164 4.31098 4.00484V13.8028C4.31098 14.3358 4.75168 14.7765 5.28463 14.7765H12.6331L15.6873 16.6213V3.99459C15.6873 3.46164 15.2466 3.02094 14.7136 3.02094H5.29487Z" fill="black"/>
</svg>
