<svg width="18" height="18" viewBox="0 0 18 18" fill="none" xmlns="http://www.w3.org/2000/svg">
<g clip-path="url(#clip0_7588_94821)">
<path d="M14.1104 0.964844C15.9193 0.965038 17.3904 2.43181 17.3906 4.24121V10.3887C17.3905 12.1982 15.9194 13.6648 14.1104 13.665H11.6992L12.082 15.3643H13.9385V17.0342H4.41406V15.3643H6.36133L6.74414 13.665H4.24219C2.43293 13.665 0.961035 12.1983 0.960938 10.3887V4.24121C0.9612 2.43169 2.43305 0.964844 4.24219 0.964844H14.1104ZM8.07227 15.3643H10.3701L9.9873 13.667H8.45508L8.07227 15.3643ZM4.24219 2.63477C3.35274 2.63477 2.63112 3.35663 2.63086 4.24121V10.3887C2.63096 11.2734 3.35266 11.9951 4.24219 11.9951H14.1104C14.9997 11.9949 15.7206 11.2733 15.7207 10.3887V4.24121C15.7204 3.35675 14.9996 2.63496 14.1104 2.63477H4.24219Z" fill="black"/>
</g>
<defs>
<clipPath id="clip0_7588_94821">
<rect width="18" height="18" fill="white"/>
</clipPath>
</defs>
</svg>
