<svg width="14" height="14" viewBox="0 0 14 14" fill="none" xmlns="http://www.w3.org/2000/svg">
<path d="M3.66433 5.80352C3.72284 5.63007 3.89837 5.5145 4.07389 5.57231L4.776 5.74572L6.53128 2.4502H3.83986L1.14844 5.51444L6.29724 11.7009C6.29724 11.7587 6.35575 11.7009 6.35575 11.6431L4.65899 6.32389L3.89837 6.09261C3.72284 6.15042 3.60582 5.97697 3.66433 5.80352Z" fill="#C1C1C6"/>
<path d="M7.00154 11.8162L8.58128 6.49707H5.36328L7.00154 11.8162Z" fill="#C1C1C6"/>
<path d="M6.9978 3.0293L5.47656 5.86233H8.46053L6.9978 3.0293Z" fill="#C1C1C6"/>
<path d="M10.0978 2.51074H7.46484L9.22012 5.80627L9.92223 5.63286C10.0978 5.57504 10.2733 5.69069 10.3318 5.86414C10.3903 6.03759 10.2733 6.21101 10.0978 6.26883L9.33714 6.50011L7.64037 11.8192C7.64037 11.877 7.69888 11.877 7.69888 11.877L12.8477 5.69066L10.0978 2.51074Z" fill="#C1C1C6"/>
</svg>
