<svg width="31" height="20" viewBox="0 0 31 20" fill="none" xmlns="http://www.w3.org/2000/svg">
<g clip-path="url(#clip0_6566_416443)">
<path d="M28.2238 0H2.77619C2.67021 0 2.56403 0 2.45824 0.000622847C2.36881 0.00126457 2.27958 0.0022649 2.19036 0.00471853C1.99577 0.0100222 1.79951 0.021592 1.60735 0.0563959C1.41212 0.0918038 1.23045 0.149559 1.05322 0.240494C0.878991 0.329788 0.719479 0.446581 0.581244 0.585948C0.442949 0.725314 0.327055 0.885801 0.238468 1.06158C0.148215 1.24018 0.0908673 1.42332 0.0559757 1.62021C0.0212545 1.81392 0.00969699 2.01166 0.00445294 2.20756C0.00205567 2.29747 0.00102746 2.38739 0.000444995 2.47729C-0.000173054 2.58413 3.29626e-05 2.6909 3.29626e-05 2.79794V17.2023C3.29626e-05 17.3093 -0.000173054 17.4159 0.000444995 17.5229C0.00102746 17.6128 0.00205567 17.7028 0.00445294 17.7927C0.00969699 17.9884 0.0212545 18.1861 0.0559757 18.3798C0.0908673 18.5768 0.148215 18.7598 0.238468 18.9384C0.327055 19.1142 0.442949 19.2749 0.581244 19.4141C0.719479 19.5537 0.878991 19.6704 1.05322 19.7595C1.23045 19.8507 1.41212 19.9085 1.60735 19.9438C1.79951 19.9784 1.99577 19.9902 2.19036 19.9955C2.27958 19.9975 2.36881 19.9988 2.45824 19.9992C2.56403 20 2.67021 20 2.77619 20H28.2238C28.3296 20 28.4358 20 28.5416 19.9992C28.6308 19.9988 28.72 19.9975 28.8097 19.9955C29.0039 19.9902 29.2001 19.9784 29.3927 19.9438C29.5877 19.9085 29.7694 19.8507 29.9466 19.7595C30.121 19.6704 30.2801 19.5537 30.4186 19.4141C30.5567 19.2749 30.6726 19.1142 30.7614 18.9384C30.8518 18.7598 30.9091 18.5768 30.9438 18.3798C30.9786 18.1861 30.9899 17.9884 30.9951 17.7927C30.9976 17.7028 30.9988 17.6128 30.9992 17.5229C31 17.4159 31 17.3093 31 17.2023V2.79794C31 2.6909 31 2.58413 30.9992 2.47729C30.9988 2.38739 30.9976 2.29747 30.9951 2.20756C30.9899 2.01166 30.9786 1.81392 30.9438 1.62021C30.9091 1.42332 30.8518 1.24018 30.7614 1.06158C30.6726 0.885801 30.5567 0.725314 30.4186 0.585948C30.2801 0.446581 30.121 0.329788 29.9466 0.240494C29.7694 0.149559 29.5877 0.0918038 29.3927 0.0563959C29.2001 0.021592 29.0039 0.0100222 28.8097 0.00471853C28.72 0.0022649 28.6308 0.00126457 28.5416 0.000622847C28.4358 0 28.3296 0 28.2238 0Z" fill="black"/>
<path d="M28.2264 0.666992L28.5394 0.667596C28.6242 0.6682 28.7091 0.669125 28.7943 0.671465C28.9427 0.675504 29.1162 0.683601 29.2779 0.712819C29.4185 0.738336 29.5364 0.777142 29.6496 0.835199C29.7613 0.892406 29.8637 0.967374 29.953 1.05731C30.0427 1.14785 30.1172 1.25117 30.1747 1.365C30.232 1.47815 30.2703 1.59641 30.2955 1.73914C30.3244 1.90036 30.3324 2.0757 30.3364 2.22611C30.3387 2.311 30.3399 2.3959 30.3403 2.48282C30.3411 2.58793 30.3411 2.69298 30.3411 2.7983V17.2026C30.3411 17.3079 30.3411 17.4128 30.3402 17.5202C30.3399 17.605 30.3387 17.6899 30.3364 17.775C30.3324 17.9252 30.3244 18.1004 30.2951 18.2635C30.2703 18.4043 30.2321 18.5226 30.1744 18.6363C30.1171 18.7498 30.0427 18.8531 29.9534 18.943C29.8635 19.0336 29.7615 19.1084 29.6485 19.1661C29.5361 19.2239 29.4184 19.2626 29.2792 19.2879C29.1142 19.3175 28.9334 19.3257 28.7973 19.3294C28.7116 19.3313 28.6263 19.3325 28.539 19.3329C28.4349 19.3337 28.3305 19.3337 28.2264 19.3337H2.77874C2.77736 19.3337 2.77601 19.3337 2.7746 19.3337C2.67171 19.3337 2.56861 19.3337 2.46384 19.3329C2.37842 19.3325 2.29318 19.3314 2.21078 19.3295C2.07151 19.3257 1.89061 19.3175 1.72694 19.2881C1.58653 19.2626 1.46882 19.2239 1.35502 19.1653C1.24304 19.1081 1.1411 19.0335 1.05119 18.9427C0.961962 18.8529 0.887815 18.75 0.830486 18.6363C0.773101 18.5227 0.734707 18.4041 0.709463 18.2616C0.680282 18.0988 0.672266 17.9243 0.66826 17.7751C0.665973 17.6897 0.665018 17.6043 0.664475 17.5194L0.664062 17.2688L0.664081 17.2026V2.7983L0.664062 2.73212L0.664456 2.48202C0.665018 2.39662 0.665973 2.31123 0.66826 2.2259C0.672266 2.07659 0.680282 1.90196 0.709704 1.7378C0.734726 1.59664 0.773101 1.47799 0.830786 1.36383C0.887665 1.25098 0.961943 1.14796 1.05164 1.05759C1.14097 0.967525 1.24325 0.892651 1.35594 0.834896C1.46852 0.777123 1.58645 0.738336 1.72686 0.712875C1.88864 0.683583 2.06228 0.675504 2.21098 0.671446C2.29575 0.669125 2.38051 0.6682 2.46464 0.667615L2.77874 0.666992H28.2264Z" fill="white"/>
<path d="M14.7094 9.97787V12.6317H13.8672V6.07832H16.0999C16.6657 6.07832 17.1482 6.26694 17.543 6.64418C17.9466 7.02141 18.1484 7.48198 18.1484 8.0259C18.1484 8.58298 17.9466 9.04356 17.543 9.4164C17.1526 9.78925 16.6701 9.97348 16.0999 9.97348H14.7094V9.97787ZM14.7094 6.88543V9.17076H16.1174C16.4508 9.17076 16.7315 9.05672 16.9509 8.83301C17.1746 8.6093 17.2886 8.33734 17.2886 8.03029C17.2886 7.72762 17.1746 7.46005 16.9509 7.23634C16.7315 7.00386 16.4552 6.88981 16.1174 6.88981H14.7094V6.88543Z" fill="#3C4043"/>
<path d="M20.3509 7.99922C20.9738 7.99922 21.465 8.16591 21.8247 8.49928C22.1844 8.83264 22.3643 9.28883 22.3643 9.86784V12.6313H21.5615V12.0084H21.5264C21.1799 12.5216 20.715 12.7761 20.1359 12.7761C19.6403 12.7761 19.228 12.6313 18.8946 12.3374C18.5612 12.0435 18.3945 11.6794 18.3945 11.2408C18.3945 10.7758 18.57 10.4074 18.9209 10.1354C19.2718 9.85907 19.7412 9.72309 20.3246 9.72309C20.8246 9.72309 21.2369 9.81521 21.5572 9.99944V9.80643C21.5572 9.51254 21.4431 9.2669 21.2106 9.06074C20.9781 8.85458 20.7062 8.75369 20.3947 8.75369C19.9254 8.75369 19.5526 8.95108 19.2806 9.35024L18.5393 8.88528C18.9472 8.29311 19.5526 7.99922 20.3509 7.99922ZM19.263 11.254C19.263 11.4733 19.3552 11.6575 19.5438 11.8023C19.728 11.947 19.9473 12.0216 20.1974 12.0216C20.5527 12.0216 20.8685 11.89 21.1448 11.6268C21.4212 11.3636 21.5615 11.0566 21.5615 10.7013C21.2984 10.4951 20.9343 10.3898 20.4649 10.3898C20.1228 10.3898 19.8377 10.4732 19.6096 10.6355C19.3771 10.8065 19.263 11.0127 19.263 11.254Z" fill="#3C4043"/>
<path d="M26.9439 8.14473L24.1366 14.6016H23.268L24.312 12.3426L22.4609 8.14473H23.3777L24.7112 11.3644H24.7287L26.0271 8.14473H26.9439Z" fill="#3C4043"/>
<path d="M11.3582 9.44352C11.3582 9.16893 11.3336 8.90618 11.288 8.65352H7.75781V10.101L9.79093 10.1015C9.70846 10.5831 9.44308 10.9937 9.03646 11.2674V12.2065H10.2467C10.9533 11.5525 11.3582 10.5857 11.3582 9.44352Z" fill="#4285F4"/>
<path d="M9.0349 11.2663C8.69803 11.4935 8.26421 11.6264 7.7567 11.6264C6.77633 11.6264 5.94466 10.9658 5.64682 10.0754H4.39844V11.0439C5.01693 12.2712 6.28812 13.1134 7.7567 13.1134C8.77172 13.1134 9.62444 12.7796 10.2451 12.205L9.0349 11.2663Z" fill="#34A853"/>
<path d="M5.53043 9.35954C5.53043 9.10951 5.5721 8.86782 5.64798 8.6406V7.67207H4.3996C4.14387 8.17958 4 8.75245 4 9.35954C4 9.96662 4.14431 10.5395 4.3996 11.047L5.64798 10.0785C5.5721 9.85126 5.53043 9.60956 5.53043 9.35954Z" fill="#FABB05"/>
<path d="M7.75669 7.08779C8.3107 7.08779 8.80681 7.2786 9.19852 7.65144L10.271 6.57984C9.61962 5.97319 8.7704 5.60078 7.75669 5.60078C6.28855 5.60078 5.01693 6.44298 4.39844 7.67031L5.64682 8.63883C5.94466 7.74838 6.77633 7.08779 7.75669 7.08779Z" fill="#E94235"/>
</g>
<path d="M4 0.5H27C28.933 0.5 30.5 2.067 30.5 4V16C30.5 17.933 28.933 19.5 27 19.5H4C2.067 19.5 0.5 17.933 0.5 16V4C0.5 2.067 2.067 0.5 4 0.5Z" stroke="#EAEAEA"/>
<defs>
<clipPath id="clip0_6566_416443">
<path d="M0 4C0 1.79086 1.79086 0 4 0H27C29.2091 0 31 1.79086 31 4V16C31 18.2091 29.2091 20 27 20H4C1.79086 20 0 18.2091 0 16V4Z" fill="white"/>
</clipPath>
</defs>
</svg>
