<svg width="42" height="43" viewBox="0 0 42 43" fill="none" xmlns="http://www.w3.org/2000/svg">
<g filter="url(#filter0_dd_8832_99372)">
<rect x="2" y="1" width="38" height="38" rx="10" fill="white"/>
<g clip-path="url(#clip0_8832_99372)">
<path d="M15.3698 17.3049L20.771 11.6701C20.8039 11.636 20.8432 11.609 20.8864 11.5905C20.9296 11.572 20.976 11.5625 21.0229 11.5625C21.0697 11.5625 21.1161 11.572 21.1593 11.5905C21.2026 11.609 21.2418 11.636 21.2747 11.6701L29.0558 19.8361C29.122 19.9068 29.1589 20.0009 29.1589 20.0988C29.1589 20.1967 29.122 20.2908 29.0558 20.3615L29.0098 20.4091C28.8578 20.5681 28.6762 20.6944 28.4757 20.7807C28.2753 20.867 28.0601 20.9114 27.8426 20.9114C27.6252 20.9114 27.4099 20.867 27.2095 20.7807C27.0091 20.6944 26.8275 20.5681 26.6754 20.4091L21.1829 14.6787C21.1499 14.6446 21.1107 14.6175 21.0675 14.599C21.0242 14.5806 20.9778 14.5711 20.931 14.5711C20.8841 14.5711 20.8378 14.5806 20.7945 14.599C20.7513 14.6175 20.7121 14.6446 20.6791 14.6787L17.6123 17.8784C17.4603 18.0375 17.2787 18.1638 17.0782 18.2501C16.8778 18.3363 16.6626 18.3808 16.4451 18.3808C16.2277 18.3808 16.0125 18.3363 15.812 18.2501C15.6116 18.1638 15.43 18.0375 15.2779 17.8784C15.2462 17.7824 15.2381 17.6799 15.2541 17.58C15.2701 17.48 15.3098 17.3855 15.3698 17.3049Z" fill="black"/>
<path d="M26.6788 22.535L21.2776 28.1703C21.2447 28.2044 21.2054 28.2315 21.1622 28.25C21.119 28.2684 21.0726 28.2779 21.0257 28.2779C20.9789 28.2779 20.9325 28.2684 20.8893 28.25C20.846 28.2315 20.8068 28.2044 20.7739 28.1703L12.9469 20.0044C12.8807 19.9337 12.8438 19.8396 12.8438 19.7416C12.8438 19.6437 12.8807 19.5496 12.9469 19.4789C13.099 19.3199 13.2806 19.1935 13.481 19.1073C13.6814 19.021 13.8967 18.9766 14.1141 18.9766C14.3315 18.9766 14.5468 19.021 14.7472 19.1073C14.9476 19.1935 15.1292 19.3199 15.2813 19.4789L20.7284 25.1618C20.7614 25.1959 20.8006 25.2229 20.8438 25.2414C20.8871 25.2599 20.9335 25.2694 20.9803 25.2694C21.0272 25.2694 21.0735 25.2599 21.1168 25.2414C21.16 25.2229 21.1992 25.1959 21.2322 25.1618L24.299 21.962C24.451 21.803 24.6326 21.6766 24.8331 21.5904C25.0335 21.5041 25.2487 21.4597 25.4662 21.4597C25.6836 21.4597 25.8989 21.5041 26.0993 21.5904C26.2997 21.6766 26.4813 21.803 26.6334 21.962C26.6739 21.9961 26.7073 22.0381 26.7316 22.0856C26.756 22.1331 26.7707 22.1852 26.7749 22.2387C26.7792 22.2921 26.7728 22.3459 26.7563 22.3968C26.7398 22.4478 26.7134 22.4947 26.6788 22.535Z" fill="black"/>
<path d="M21.5574 19.7543L20.2055 18.3696C20.0255 18.1671 19.9258 17.9032 19.9258 17.6295C19.9258 17.3558 20.0255 17.0919 20.2055 16.8894L20.2519 16.8419C20.3442 16.7402 20.456 16.6591 20.5803 16.6036C20.7046 16.5482 20.8387 16.5195 20.9743 16.5195C21.1099 16.5195 21.2441 16.5482 21.3684 16.6036C21.4927 16.6591 21.6045 16.7402 21.6968 16.8419L24.4936 19.7073C24.5608 19.7774 24.5985 19.8718 24.5985 19.97C24.5985 20.0683 24.5608 20.1626 24.4936 20.2327L21.7886 23.001C21.6963 23.1027 21.5845 23.1838 21.4602 23.2393C21.3359 23.2947 21.2018 23.3234 21.0662 23.3234C20.9306 23.3234 20.7965 23.2947 20.6722 23.2393C20.5478 23.1838 20.4361 23.1027 20.3438 23.001C20.2445 22.9064 20.1654 22.7918 20.1112 22.6645C20.0571 22.5371 20.0292 22.3998 20.0292 22.2609C20.0292 22.1221 20.0571 21.9847 20.1112 21.8574C20.1654 21.73 20.2445 21.6155 20.3438 21.5208L21.6023 20.2312C21.6513 20.1591 21.6736 20.0716 21.6654 19.9843C21.6572 19.897 21.6189 19.8155 21.5574 19.7543Z" fill="black"/>
<path d="M19.9444 19.6083L19.4784 19.1309C19.3861 19.0292 19.2744 18.9481 19.1501 18.8927C19.0258 18.8372 18.8916 18.8086 18.756 18.8086C18.6204 18.8086 18.4863 18.8372 18.362 18.8927C18.2377 18.9481 18.1259 19.0292 18.0336 19.1309C17.8536 19.3334 17.7539 19.5973 17.7539 19.871C17.7539 20.1448 17.8536 20.4087 18.0336 20.6112C18.1259 20.7128 18.2377 20.7939 18.362 20.8494C18.4863 20.9049 18.6204 20.9335 18.756 20.9335C18.8916 20.9335 19.0258 20.9049 19.1501 20.8494C19.2744 20.7939 19.3861 20.7128 19.4784 20.6112L19.9444 20.1338C20.0117 20.0636 20.0494 19.9693 20.0494 19.871C20.0494 19.7728 20.0117 19.6784 19.9444 19.6083Z" fill="black"/>
</g>
</g>
<defs>
<filter id="filter0_dd_8832_99372" x="0" y="0" width="42" height="43" filterUnits="userSpaceOnUse" color-interpolation-filters="sRGB">
<feFlood flood-opacity="0" result="BackgroundImageFix"/>
<feColorMatrix in="SourceAlpha" type="matrix" values="0 0 0 0 0 0 0 0 0 0 0 0 0 0 0 0 0 0 127 0" result="hardAlpha"/>
<feOffset dy="3"/>
<feGaussianBlur stdDeviation="0.5"/>
<feColorMatrix type="matrix" values="0 0 0 0 0 0 0 0 0 0 0 0 0 0 0 0 0 0 0.04 0"/>
<feBlend mode="normal" in2="BackgroundImageFix" result="effect1_dropShadow_8832_99372"/>
<feColorMatrix in="SourceAlpha" type="matrix" values="0 0 0 0 0 0 0 0 0 0 0 0 0 0 0 0 0 0 127 0" result="hardAlpha"/>
<feOffset dy="1"/>
<feGaussianBlur stdDeviation="1"/>
<feColorMatrix type="matrix" values="0 0 0 0 0 0 0 0 0 0 0 0 0 0 0 0 0 0 0.12 0"/>
<feBlend mode="normal" in2="effect1_dropShadow_8832_99372" result="effect2_dropShadow_8832_99372"/>
<feBlend mode="normal" in="SourceGraphic" in2="effect2_dropShadow_8832_99372" result="shape"/>
</filter>
<clipPath id="clip0_8832_99372">
<rect width="18" height="18" fill="white" transform="translate(12 11)"/>
</clipPath>
</defs>
</svg>
