<svg width="31" height="20" viewBox="0 0 31 20" fill="none" xmlns="http://www.w3.org/2000/svg">
<rect x="0.5" y="0.5" width="30" height="19" rx="3.5" stroke="#EAEAEA"/>
<path d="M17.7313 6.00818H13.2695V13.9913H17.7313V6.00818Z" fill="#FF5F00"/>
<path d="M13.5527 10C13.552 9.23117 13.727 8.47225 14.0644 7.78071C14.4018 7.08917 14.8928 6.48311 15.5003 6.00844C14.748 5.41974 13.8446 5.05363 12.8933 4.95197C11.942 4.85031 10.9811 5.01719 10.1206 5.43354C9.25999 5.84989 8.53443 6.49891 8.02681 7.30643C7.51919 8.11394 7.25 9.04736 7.25 10C7.25 10.9526 7.51919 11.8861 8.02681 12.6936C8.53443 13.5011 9.25999 14.1501 10.1206 14.5665C10.9811 14.9828 11.942 15.1497 12.8933 15.048C13.8446 14.9464 14.748 14.5803 15.5003 13.9916C14.8928 13.5169 14.4018 12.9108 14.0644 12.2193C13.727 11.5277 13.552 10.7688 13.5527 10Z" fill="#EB001B"/>
<path d="M23.75 10C23.7501 10.9526 23.4809 11.8861 22.9733 12.6936C22.4657 13.5011 21.7402 14.1501 20.8796 14.5665C20.0191 14.9828 19.0582 15.1497 18.1069 15.048C17.1556 14.9464 16.2522 14.5803 15.5 13.9916C16.1069 13.5164 16.5975 12.9103 16.9349 12.2188C17.2723 11.5274 17.4476 10.7687 17.4476 10C17.4476 9.2313 17.2723 8.47263 16.9349 7.78119C16.5975 7.08976 16.1069 6.48361 15.5 6.00846C16.2522 5.41975 17.1556 5.05365 18.1069 4.95198C19.0582 4.85032 20.0191 5.01721 20.8796 5.43356C21.7402 5.84992 22.4657 6.49895 22.9733 7.30646C23.4809 8.11397 23.7501 9.04739 23.75 10Z" fill="#F79E1B"/>
<path d="M23.2625 13.1459V12.9824H23.3287V12.9491H23.1602V12.9824H23.2264V13.1459H23.2625ZM23.5898 13.1459V12.9488H23.5381L23.4787 13.0844L23.4193 12.9488H23.3676V13.1459H23.404V12.9972L23.4598 13.1254H23.4976L23.5533 12.9969V13.1459H23.5898Z" fill="#F79E1B"/>
</svg>
