<svg width="18" height="18" viewBox="0 0 18 18" fill="none" xmlns="http://www.w3.org/2000/svg">
<path d="M11.6611 0.0654297C13.4408 0.0654297 14.951 1.45718 14.9512 3.24902V14.751C14.9512 16.543 13.441 17.9355 11.6611 17.9355H6.3291C4.54928 17.9355 3.03906 16.543 3.03906 14.751V3.24902C3.03928 1.45718 4.54941 0.0654297 6.3291 0.0654297H11.6611ZM6.3291 1.73535C5.40209 1.73535 4.70921 2.44761 4.70898 3.24902V14.751C4.70898 15.5525 5.40195 16.2656 6.3291 16.2656H11.6611C12.5883 16.2656 13.2812 15.5525 13.2812 14.751V3.24902C13.281 2.44761 12.5881 1.73535 11.6611 1.73535H11.4902V1.87207C11.5746 2.43886 11.0663 2.84375 10.5586 2.84375H7.51172C7.00401 2.84369 6.49633 2.43882 6.49609 1.87207V1.73535H6.3291Z" fill="black"/>
</svg>
