<svg width="48" height="39" viewBox="0 0 48 39" fill="none" xmlns="http://www.w3.org/2000/svg">
<path d="M27.3134 27.043C27.3134 19.7414 29.0712 13.7919 32.5868 9.19462C36.1024 4.50716 41.2406 1.44229 48.0013 0V8.65376C44.9364 9.3749 42.4575 10.727 40.5645 12.7102C38.6715 14.6032 37.4996 16.9469 37.0489 19.7414L45.297 19.7414L45.297 38.6715L27.3134 38.6715V27.043ZM0 27.043C0 19.7414 1.75779 13.7919 5.27338 9.19462C8.78897 4.50716 13.8821 1.44229 20.5527 0V8.65376C17.5779 9.3749 15.099 10.727 13.1158 12.7102C11.2228 14.6934 10.051 17.0371 9.60026 19.7414L17.8484 19.7414V38.6715H0L0 27.043Z" fill="white" fill-opacity="0.3"/>
</svg>
