<svg width="20" height="20" viewBox="0 0 20 20" fill="none" xmlns="http://www.w3.org/2000/svg">
<g clip-path="url(#clip0_8840_105099)">
<path d="M17.3047 2.10547H2.69599C1.37425 2.10547 0.304688 3.17503 0.304688 4.49677V15.4968C0.304688 16.8185 1.37425 17.8881 2.69599 17.8881H17.3047C18.6264 17.8881 19.696 16.8185 19.696 15.4968V4.49677C19.696 3.18373 18.6264 2.10547 17.3047 2.10547ZM2.69599 3.2359H17.3047C18.0003 3.2359 18.5656 3.80112 18.5656 4.49677V6.48808H1.43512V4.49677C1.43512 3.80982 2.00034 3.2359 2.69599 3.2359ZM1.43512 15.5055V7.62721H7.00034V16.7663H2.69599C2.00034 16.7663 1.43512 16.1924 1.43512 15.5055ZM17.3047 16.7663H8.13077V7.62721H18.5656V15.5055C18.5656 16.1924 18.0003 16.7663 17.3047 16.7663Z" fill="black"/>
</g>
<defs>
<clipPath id="clip0_8840_105099">
<rect width="20" height="20" fill="white"/>
</clipPath>
</defs>
</svg>
