<svg width="107" height="20" viewBox="0 0 107 20" fill="none" xmlns="http://www.w3.org/2000/svg">
<g clip-path="url(#clip0_8840_105655)">
<path d="M20.6582 0.100586H0.859375V19.8995H20.6582V0.100586Z" fill="#219653"/>
<path d="M42.1075 0.100586H22.3086V19.8995H42.1075V0.100586Z" fill="#219653"/>
<path d="M63.5567 0.100586H43.7578V19.8995H63.5567V0.100586Z" fill="#219653"/>
<path d="M85.0059 0.100586H65.207V19.8995H85.0059V0.100586Z" fill="#219653"/>
<path d="M106.455 0.100586H86.6562V19.8995H106.455V0.100586Z" fill="#219653"/>
<path d="M10.7577 13.4449L13.7688 12.6819L15.0269 16.5591L10.7577 13.4449ZM17.6873 8.43335H12.387L10.7577 3.44238L9.12845 8.43335H3.82812L8.11788 11.5269L6.4886 16.5179L10.7784 13.4243L13.4182 11.5269L17.6873 8.43335Z" fill="white"/>
<path d="M32.2069 13.4449L35.218 12.6819L36.4761 16.5591L32.2069 13.4449ZM39.1365 8.43335H33.8362L32.2069 3.44238L30.5777 8.43335H25.2773L29.5671 11.5269L27.9378 16.5179L32.2276 13.4243L34.8674 11.5269L39.1365 8.43335Z" fill="white"/>
<path d="M53.6562 13.4449L56.6672 12.6819L57.9253 16.5591L53.6562 13.4449ZM60.5858 8.43335H55.2854L53.6562 3.44238L52.0269 8.43335H46.7266L51.0163 11.5269L49.387 16.5179L53.6768 13.4243L56.3166 11.5269L60.5858 8.43335Z" fill="white"/>
<path d="M75.1054 13.4449L78.1165 12.6819L79.3745 16.5591L75.1054 13.4449ZM82.035 8.43335H76.7347L75.1054 3.44238L73.4761 8.43335H68.1758L72.4655 11.5269L70.8363 16.5179L75.126 13.4243L77.7659 11.5269L82.035 8.43335Z" fill="white"/>
<path d="M96.5546 13.4449L99.5657 12.6819L100.824 16.5591L96.5546 13.4449ZM103.484 8.43335H98.1839L96.5546 3.44238L94.9253 8.43335H89.625L93.9148 11.5269L92.2855 16.5179L96.5752 13.4243L99.2151 11.5269L103.484 8.43335Z" fill="white"/>
</g>
<defs>
<clipPath id="clip0_8840_105655">
<rect width="105.594" height="19.7989" fill="white" transform="translate(0.859375 0.100586)"/>
</clipPath>
</defs>
</svg>
