<svg width="15" height="16" viewBox="0 0 15 16" fill="none" xmlns="http://www.w3.org/2000/svg">
<path d="M13.7371 7.42156C12.333 6.77399 11.0489 5.81355 10.0259 4.64939C9.66604 4.23465 9.33443 3.79081 9.0381 3.32515C8.9746 3.23056 8.9111 3.12142 8.85466 3.01955C8.67121 3.45612 8.45249 3.87813 8.21261 4.27831C8.48777 4.70032 8.79821 5.1005 9.12982 5.47885C9.99765 6.46839 11.0278 7.31969 12.1566 7.98909C11.0278 8.65848 9.99765 9.50978 9.12982 10.5066C8.49483 11.2415 7.9445 12.0491 7.49294 12.9077C7.03434 12.0491 6.49106 11.2415 5.84901 10.5066C5.28457 9.85903 4.64252 9.26239 3.95108 8.74579C3.69708 8.55662 3.42897 8.37471 3.16087 8.20009C3.04798 8.12733 2.93509 8.06185 2.8222 7.98909C2.8857 7.95271 2.95626 7.91633 3.01976 7.87267C3.05503 7.85084 3.09031 7.82901 3.13264 7.79991C3.13264 7.79991 3.1397 7.79991 3.14675 7.79263C3.59831 7.51614 4.02869 7.20327 4.44497 6.8613C4.5508 6.77399 4.65663 6.6794 4.76246 6.59209C5.02352 6.35925 5.28457 6.09732 5.54563 5.82083C5.65851 5.71169 5.75729 5.59527 5.85607 5.48613C5.94779 5.37699 6.04657 5.26057 6.13123 5.15143C6.38523 4.84584 6.63923 4.51114 6.865 4.16189C6.95673 4.02365 7.04139 3.8854 7.13311 3.74716C7.22483 3.59436 7.31656 3.44156 7.40122 3.27422C7.69755 2.72851 7.9445 2.15371 8.12088 1.5498C8.09972 1.49886 8.07855 1.44793 8.05738 1.397L7.5 0L6.93556 1.397C6.45579 2.59754 5.79257 3.69623 4.95296 4.65666C3.92992 5.8281 2.65287 6.78854 1.24177 7.42883L0 7.99636L1.24177 8.57117C2.65287 9.21874 3.92992 10.1792 4.95296 11.3433C5.78551 12.3038 6.45579 13.3952 6.93556 14.603L7.5 16L8.05738 14.603C8.53716 13.4025 9.20038 12.3038 10.04 11.3433C11.063 10.1719 12.3471 9.20418 13.7512 8.57117L15 7.99636L13.7512 7.42883L13.7371 7.42156Z" fill="black"/>
</svg>
