<svg width="71" height="26" viewBox="0 0 71 26" fill="none" xmlns="http://www.w3.org/2000/svg">
<path d="M7.12101 16.444L10.1321 15.6809L11.3901 19.5582L7.12101 16.444ZM14.0506 11.4324H8.75029L7.12101 6.44141L5.49173 11.4324H0.191406L4.48116 14.5259L2.85188 19.5169L7.14164 16.4233L9.78148 14.5259L14.0506 11.4324Z" fill="#219653"/>
<path d="M22.5419 8.55455V17H20.8075V8.55455H22.5419ZM25.1405 8.55455V9.91765H18.2495V8.55455H25.1405ZM27.2924 12.0928V17H25.6219V10.7239H27.1938L27.2924 12.0928ZM29.1834 10.6833L29.1544 12.232C29.0732 12.2204 28.9746 12.2108 28.8586 12.203C28.7464 12.1914 28.6439 12.1856 28.5511 12.1856C28.3153 12.1856 28.1103 12.2166 27.9363 12.2784C27.7661 12.3364 27.6231 12.4234 27.5071 12.5395C27.3949 12.6555 27.3098 12.7966 27.2518 12.9629C27.1977 13.1292 27.1668 13.3186 27.159 13.5313L26.8226 13.4269C26.8226 13.0209 26.8632 12.6477 26.9444 12.3074C27.0256 11.9633 27.1436 11.6636 27.2982 11.4084C27.4568 11.1531 27.6501 10.9559 27.8783 10.8167C28.1064 10.6775 28.3675 10.6079 28.6613 10.6079C28.7542 10.6079 28.8489 10.6156 28.9456 10.6311C29.0422 10.6427 29.1215 10.6601 29.1834 10.6833ZM33.6845 15.4977V10.7239H35.3551V17H33.7831L33.6845 15.4977ZM33.8701 14.21L34.3632 14.1984C34.3632 14.616 34.3148 15.0046 34.2182 15.3643C34.1215 15.72 33.9765 16.0294 33.7831 16.2923C33.5898 16.5514 33.3462 16.7544 33.0523 16.9014C32.7584 17.0445 32.4123 17.116 32.014 17.116C31.7085 17.116 31.4262 17.0735 31.1671 16.9884C30.9119 16.8995 30.6915 16.7622 30.5059 16.5766C30.3241 16.3871 30.1811 16.1454 30.0767 15.8515C29.9761 15.5538 29.9258 15.1961 29.9258 14.7784V10.7239H31.5964V14.79C31.5964 14.9756 31.6176 15.1323 31.6602 15.2599C31.7066 15.3875 31.7704 15.4919 31.8516 15.5731C31.9328 15.6543 32.0275 15.7123 32.1358 15.7471C32.248 15.7819 32.3717 15.7993 32.507 15.7993C32.8512 15.7993 33.1219 15.7297 33.3191 15.5905C33.5202 15.4513 33.6613 15.2618 33.7425 15.022C33.8276 14.7784 33.8701 14.5077 33.8701 14.21ZM40.0244 15.2657C40.0244 15.1458 39.9896 15.0375 39.92 14.9408C39.8504 14.8442 39.7209 14.7552 39.5314 14.674C39.3458 14.5889 39.077 14.5116 38.7251 14.442C38.408 14.3724 38.1122 14.2854 37.8377 14.181C37.567 14.0727 37.3311 13.9432 37.13 13.7924C36.9328 13.6415 36.7781 13.4637 36.666 13.2587C36.5538 13.0499 36.4978 12.8121 36.4978 12.5453C36.4978 12.2823 36.5538 12.0348 36.666 11.8028C36.782 11.5708 36.9463 11.3658 37.159 11.1879C37.3756 11.0062 37.6385 10.8651 37.9479 10.7645C38.2611 10.6601 38.613 10.6079 39.0035 10.6079C39.5488 10.6079 40.0167 10.6949 40.4073 10.8689C40.8017 11.0429 41.1033 11.2827 41.3121 11.5882C41.5248 11.8898 41.6311 12.234 41.6311 12.6207H39.9606C39.9606 12.4582 39.9258 12.3132 39.8562 12.1856C39.7905 12.0542 39.6861 11.9517 39.543 11.8782C39.4038 11.8009 39.222 11.7622 38.9977 11.7622C38.8121 11.7622 38.6517 11.7951 38.5163 11.8608C38.381 11.9227 38.2766 12.0077 38.2031 12.116C38.1335 12.2204 38.0987 12.3364 38.0987 12.464C38.0987 12.5607 38.118 12.6477 38.1567 12.7251C38.1992 12.7985 38.2669 12.8662 38.3597 12.9281C38.4525 12.99 38.5724 13.048 38.7193 13.1021C38.8701 13.1524 39.0557 13.1988 39.2762 13.2413C39.7286 13.3341 40.1327 13.4559 40.4885 13.6067C40.8442 13.7537 41.1265 13.9548 41.3353 14.21C41.5441 14.4613 41.6485 14.792 41.6485 15.2019C41.6485 15.4803 41.5867 15.7355 41.4629 15.9675C41.3392 16.1995 41.1613 16.4026 40.9293 16.5766C40.6973 16.7467 40.4189 16.8801 40.094 16.9768C39.7731 17.0696 39.4115 17.116 39.0093 17.116C38.4254 17.116 37.9305 17.0116 37.5244 16.8028C37.1223 16.594 36.8168 16.3291 36.608 16.0081C36.403 15.6833 36.3005 15.3507 36.3005 15.0104H37.8841C37.8918 15.2386 37.9498 15.4223 38.0581 15.5615C38.1702 15.7007 38.3114 15.8012 38.4815 15.8631C38.6555 15.925 38.8431 15.9559 39.0441 15.9559C39.2607 15.9559 39.4405 15.9269 39.5836 15.8689C39.7267 15.807 39.8349 15.7258 39.9084 15.6253C39.9858 15.5209 40.0244 15.401 40.0244 15.2657ZM45.8075 10.7239V11.9072H42.1532V10.7239H45.8075ZM43.0581 9.17519H44.7286V15.1091C44.7286 15.2908 44.7518 15.43 44.7982 15.5267C44.8485 15.6234 44.9219 15.691 45.0186 15.7297C45.1153 15.7645 45.2371 15.7819 45.384 15.7819C45.4884 15.7819 45.5813 15.778 45.6625 15.7703C45.7475 15.7587 45.8191 15.7471 45.8771 15.7355L45.8829 16.9652C45.7398 17.0116 45.5851 17.0483 45.4188 17.0754C45.2526 17.1025 45.0689 17.116 44.8678 17.116C44.5004 17.116 44.1795 17.0561 43.9049 16.9362C43.6342 16.8125 43.4254 16.6152 43.2785 16.3445C43.1315 16.0739 43.0581 15.7181 43.0581 15.2773V9.17519ZM48.4293 11.9304V19.413H46.7587V10.7239H48.3075L48.4293 11.9304ZM52.4026 13.7924V13.9142C52.4026 14.3705 52.3484 14.7939 52.2402 15.1845C52.1358 15.575 51.9811 15.9153 51.7761 16.2053C51.5712 16.4915 51.316 16.7158 51.0105 16.8782C50.7089 17.0367 50.3608 17.116 49.9664 17.116C49.5836 17.116 49.251 17.0387 48.9687 16.884C48.6864 16.7293 48.4486 16.5128 48.2553 16.2343C48.0658 15.9521 47.913 15.6253 47.797 15.2541C47.681 14.8828 47.5921 14.4845 47.5302 14.0592V13.7401C47.5921 13.2838 47.681 12.8662 47.797 12.4873C47.913 12.1044 48.0658 11.7738 48.2553 11.4954C48.4486 11.2131 48.6845 10.9946 48.9629 10.8399C49.2452 10.6852 49.5758 10.6079 49.9548 10.6079C50.3531 10.6079 50.7031 10.6833 51.0047 10.8341C51.3102 10.9849 51.5654 11.2015 51.7703 11.4838C51.9792 11.7661 52.1358 12.1025 52.2402 12.4931C52.3484 12.8836 52.4026 13.3167 52.4026 13.7924ZM50.7263 13.9142V13.7924C50.7263 13.5255 50.7031 13.28 50.6566 13.0557C50.6141 12.8275 50.5445 12.6284 50.4478 12.4582C50.355 12.2881 50.2313 12.1566 50.0766 12.0638C49.9258 11.9671 49.7421 11.9188 49.5256 11.9188C49.2974 11.9188 49.1021 11.9555 48.9397 12.029C48.7812 12.1025 48.6516 12.2088 48.5511 12.348C48.4505 12.4873 48.3751 12.6535 48.3249 12.8469C48.2746 13.0402 48.2437 13.2587 48.2321 13.5023V14.3086C48.2514 14.5947 48.3055 14.8519 48.3945 15.0801C48.4834 15.3043 48.6207 15.4822 48.8063 15.6137C48.9919 15.7452 49.2355 15.8109 49.5372 15.8109C49.7576 15.8109 49.9432 15.7626 50.094 15.6659C50.2448 15.5654 50.3666 15.4281 50.4594 15.2541C50.5561 15.0801 50.6238 14.879 50.6624 14.6508C50.705 14.4227 50.7263 14.1771 50.7263 13.9142ZM55.2042 10.7239V17H53.5279V10.7239H55.2042ZM53.4235 9.08819C53.4235 8.84457 53.5085 8.64349 53.6787 8.48494C53.8488 8.32639 54.077 8.24712 54.3631 8.24712C54.6454 8.24712 54.8716 8.32639 55.0418 8.48494C55.2158 8.64349 55.3028 8.84457 55.3028 9.08819C55.3028 9.33181 55.2158 9.53289 55.0418 9.69143C54.8716 9.84998 54.6454 9.92925 54.3631 9.92925C54.077 9.92925 53.8488 9.84998 53.6787 9.69143C53.5085 9.53289 53.4235 9.33181 53.4235 9.08819ZM58.348 8.09051V17H56.6717V8.09051H58.348ZM59.4617 13.9258V13.804C59.4617 13.3438 59.5275 12.9204 59.6589 12.5337C59.7904 12.1431 59.9818 11.8047 60.2332 11.5186C60.4845 11.2324 60.7939 11.0101 61.1613 10.8515C61.5286 10.6891 61.9501 10.6079 62.4258 10.6079C62.9014 10.6079 63.3248 10.6891 63.6961 10.8515C64.0673 11.0101 64.3786 11.2324 64.6299 11.5186C64.8851 11.8047 65.0785 12.1431 65.21 12.5337C65.3415 12.9204 65.4072 13.3438 65.4072 13.804V13.9258C65.4072 14.3821 65.3415 14.8055 65.21 15.1961C65.0785 15.5828 64.8851 15.9211 64.6299 16.2111C64.3786 16.4973 64.0692 16.7196 63.7019 16.8782C63.3345 17.0367 62.913 17.116 62.4374 17.116C61.9617 17.116 61.5383 17.0367 61.1671 16.8782C60.7997 16.7196 60.4884 16.4973 60.2332 16.2111C59.9818 15.9211 59.7904 15.5828 59.6589 15.1961C59.5275 14.8055 59.4617 14.3821 59.4617 13.9258ZM61.1323 13.804V13.9258C61.1323 14.1887 61.1555 14.4343 61.2019 14.6624C61.2483 14.8906 61.3217 15.0917 61.4223 15.2657C61.5267 15.4358 61.662 15.5692 61.8283 15.6659C61.9946 15.7626 62.1976 15.8109 62.4374 15.8109C62.6694 15.8109 62.8685 15.7626 63.0348 15.6659C63.2011 15.5692 63.3345 15.4358 63.435 15.2657C63.5356 15.0917 63.6091 14.8906 63.6555 14.6624C63.7057 14.4343 63.7309 14.1887 63.7309 13.9258V13.804C63.7309 13.5487 63.7057 13.309 63.6555 13.0847C63.6091 12.8565 63.5336 12.6555 63.4292 12.4815C63.3287 12.3036 63.1953 12.1644 63.029 12.0638C62.8627 11.9633 62.6616 11.913 62.4258 11.913C62.1899 11.913 61.9888 11.9633 61.8225 12.0638C61.6601 12.1644 61.5267 12.3036 61.4223 12.4815C61.3217 12.6555 61.2483 12.8565 61.2019 13.0847C61.1555 13.309 61.1323 13.5487 61.1323 13.804ZM69.5081 10.7239V11.9072H65.8538V10.7239H69.5081ZM66.7587 9.17519H68.4292V15.1091C68.4292 15.2908 68.4524 15.43 68.4988 15.5267C68.5491 15.6234 68.6226 15.691 68.7192 15.7297C68.8159 15.7645 68.9377 15.7819 69.0847 15.7819C69.1891 15.7819 69.2819 15.778 69.3631 15.7703C69.4482 15.7587 69.5197 15.7471 69.5777 15.7355L69.5835 16.9652C69.4404 17.0116 69.2858 17.0483 69.1195 17.0754C68.9532 17.1025 68.7695 17.116 68.5684 17.116C68.2011 17.116 67.8801 17.0561 67.6056 16.9362C67.3349 16.8125 67.1261 16.6152 66.9791 16.3445C66.8322 16.0739 66.7587 15.7181 66.7587 15.2773V9.17519Z" fill="black"/>
</svg>
