<svg width="31" height="20" viewBox="0 0 31 20" fill="none" xmlns="http://www.w3.org/2000/svg">
<rect x="0.5" y="0.5" width="30" height="19" rx="3.5" stroke="#EAEAEA"/>
<g clip-path="url(#clip0_6566_416457)">
<path d="M15.4051 7.11124L14.1024 13.2019H12.5266L13.8295 7.11124H15.4051ZM22.0343 11.0441L22.8636 8.75689L23.3409 11.0441H22.0343ZM23.793 13.2019H25.25L23.9771 7.11124H22.6331C22.3302 7.11124 22.0749 7.28686 21.9618 7.55768L19.5976 13.2019H21.2524L21.5809 12.2923H23.6022L23.793 13.2019ZM19.6796 11.2135C19.6865 9.60608 17.4575 9.51704 17.4724 8.7988C17.4772 8.58058 17.6855 8.34811 18.1405 8.28866C18.3662 8.25962 18.9888 8.23605 19.6945 8.56127L19.9706 7.26918C19.5915 7.13206 19.1037 7 18.4967 7C16.939 7 15.8432 7.82741 15.8345 9.01319C15.8245 9.89006 16.6172 10.379 17.2133 10.671C17.8278 10.9695 18.0337 11.1609 18.0307 11.4276C18.0264 11.8363 17.5407 12.0172 17.0883 12.0241C16.2957 12.0364 15.8362 11.8098 15.4701 11.6391L15.184 12.9744C15.5528 13.1431 16.2323 13.29 16.9359 13.2975C18.5919 13.2975 19.6747 12.4798 19.6796 11.2135ZM13.1536 7.11124L10.6005 13.2019H8.93514L7.67867 8.34112C7.60251 8.04221 7.53607 7.93235 7.30442 7.80604C6.9255 7.60029 6.30001 7.40782 5.75 7.28809L5.78726 7.11124H8.46841C8.80993 7.11124 9.11719 7.3385 9.19542 7.73193L9.85913 11.2567L11.4982 7.11124H13.1536Z" fill="#1434CB"/>
</g>
<defs>
<clipPath id="clip0_6566_416457">
<rect width="19.5" height="12" fill="white" transform="translate(5.75 4)"/>
</clipPath>
</defs>
</svg>
