<svg width="16" height="16" viewBox="0 0 16 16" fill="none" xmlns="http://www.w3.org/2000/svg">
<path d="M14.0663 7.49431C12.2096 6.71824 10.5985 5.35274 9.51794 3.6336L8.93834 4.72403C9.80283 5.93234 10.9227 6.97365 12.19 7.74972C12.3766 7.86761 12.3766 8.12302 12.19 8.24091C10.5789 9.22327 9.24288 10.6084 8.31945 12.2686C8.20157 12.4749 7.92651 12.4749 7.81845 12.2686C6.89502 10.6182 5.559 9.22327 3.94792 8.24091C3.76127 8.12302 3.76127 7.86761 3.94792 7.74972C5.47059 6.80665 6.70837 5.47063 7.67109 3.97743C8.23104 3.10312 8.63381 1.81622 8.63381 1.81622C8.57487 1.69834 8.61416 1.78675 8.57487 1.66886L8.06404 0.195312L7.55321 1.66886C6.6396 4.29179 4.63557 6.42352 2.06177 7.49431L0.863281 7.99531L2.06177 8.49632C4.63557 9.5671 6.6396 11.6988 7.55321 14.3218L8.06404 15.7953L8.57487 14.3218C9.48847 11.6988 11.4925 9.5671 14.0663 8.49632L15.2648 7.99531L14.0663 7.49431Z" fill="white"/>
</svg>
