<svg width="36" height="36" viewBox="0 0 36 36" fill="none" xmlns="http://www.w3.org/2000/svg">
<g id="Product list" clip-path="url(#clip0_2909_49110)">
<g id="Layer_1">
<g id="Group">
<path id="Path_175265" d="M0 3C0 1.34 1.34 0 3 0H33C34.66 0 36 1.34 36 3V33C36 34.66 34.66 36 33 36H3C1.34 36 0 34.66 0 33V3Z" fill="#F5F5F5"/>
<path id="Path_174798" fill-rule="evenodd" clip-rule="evenodd" d="M3 6C1.34 6 0 7.34 0 9V27C0 28.66 1.34 30 3 30H33C34.66 30 36 28.66 36 27V9C36 7.34 34.66 6 33 6H3Z" fill="white"/>
<g id="Group_2">
<g id="Group_3">
<path id="Path_175268" opacity="0.2" d="M1.85938 10.8496C1.85938 10.5496 2.09938 10.3096 2.39938 10.3096H11.0794C11.3794 10.3096 11.6194 10.5496 11.6194 10.8496V18.4396C11.6194 18.7396 11.3794 18.9796 11.0794 18.9796H2.39938C2.09938 18.9796 1.85938 18.7396 1.85938 18.4396V10.8496Z" fill="black"/>
<g id="Group_4">
<path id="Vector" opacity="0.2" d="M1.85938 21.6804C1.85938 21.4104 2.07937 21.1904 2.34937 21.1904H7.32937C7.59937 21.1904 7.81938 21.4104 7.81938 21.6804C7.81938 21.9504 7.59937 22.1704 7.32937 22.1704H2.34937C2.07937 22.1704 1.85938 21.9504 1.85938 21.6804Z" fill="black"/>
<path id="Vector_2" opacity="0.2" d="M1.85938 20.2C1.85938 19.93 2.07937 19.71 2.34937 19.71H9.30938C9.57938 19.71 9.79938 19.93 9.79938 20.2C9.79938 20.47 9.57938 20.69 9.30938 20.69H2.34937C2.07937 20.69 1.85938 20.47 1.85938 20.2Z" fill="black"/>
<path id="Vector_3" opacity="0.2" d="M1.85938 25.0902C1.85938 24.7602 2.12938 24.4902 2.45938 24.4902H11.0194C11.3494 24.4902 11.6194 24.7602 11.6194 25.0902C11.6194 25.4202 11.3494 25.6902 11.0194 25.6902H2.45938C2.12938 25.6902 1.85938 25.4202 1.85938 25.0902Z" fill="black"/>
</g>
</g>
<g id="Group_5">
<path id="Path_175268_2" opacity="0.2" d="M13.1191 10.8496C13.1191 10.5496 13.3591 10.3096 13.6591 10.3096H22.3391C22.6391 10.3096 22.8791 10.5496 22.8791 10.8496V18.4396C22.8791 18.7396 22.6391 18.9796 22.3391 18.9796H13.6591C13.3591 18.9796 13.1191 18.7396 13.1191 18.4396V10.8496Z" fill="black"/>
<g id="Group_6">
<path id="Vector_4" opacity="0.2" d="M13.1191 21.6804C13.1191 21.4104 13.3391 21.1904 13.6091 21.1904H18.5891C18.8591 21.1904 19.0791 21.4104 19.0791 21.6804C19.0791 21.9504 18.8591 22.1704 18.5891 22.1704H13.6091C13.3391 22.1704 13.1191 21.9504 13.1191 21.6804Z" fill="black"/>
<path id="Vector_5" opacity="0.2" d="M13.1191 20.2C13.1191 19.93 13.3391 19.71 13.6091 19.71H20.5691C20.8391 19.71 21.0591 19.93 21.0591 20.2C21.0591 20.47 20.8391 20.69 20.5691 20.69H13.6091C13.3391 20.69 13.1191 20.47 13.1191 20.2Z" fill="black"/>
<path id="Vector_6" opacity="0.2" d="M13.1191 25.0902C13.1191 24.7602 13.3891 24.4902 13.7191 24.4902H22.2791C22.6091 24.4902 22.8791 24.7602 22.8791 25.0902C22.8791 25.4202 22.6091 25.6902 22.2791 25.6902H13.7191C13.3891 25.6902 13.1191 25.4202 13.1191 25.0902Z" fill="black"/>
</g>
</g>
<g id="Group_7">
<path id="Path_175268_3" opacity="0.2" d="M24.3789 10.8496C24.3789 10.5496 24.6189 10.3096 24.9189 10.3096H33.5989C33.8989 10.3096 34.1389 10.5496 34.1389 10.8496V18.4396C34.1389 18.7396 33.8989 18.9796 33.5989 18.9796H24.9189C24.6189 18.9796 24.3789 18.7396 24.3789 18.4396V10.8496Z" fill="black"/>
<g id="Group_8">
<path id="Vector_7" opacity="0.2" d="M24.3789 21.6804C24.3789 21.4104 24.5989 21.1904 24.8689 21.1904H29.8489C30.1189 21.1904 30.3389 21.4104 30.3389 21.6804C30.3389 21.9504 30.1189 22.1704 29.8489 22.1704H24.8689C24.5989 22.1704 24.3789 21.9504 24.3789 21.6804Z" fill="black"/>
<path id="Vector_8" opacity="0.2" d="M24.3789 20.2C24.3789 19.93 24.5989 19.71 24.8689 19.71H31.8289C32.0989 19.71 32.3189 19.93 32.3189 20.2C32.3189 20.47 32.0989 20.69 31.8289 20.69H24.8689C24.5989 20.69 24.3789 20.47 24.3789 20.2Z" fill="black"/>
<path id="Vector_9" opacity="0.2" d="M24.3789 25.0902C24.3789 24.7602 24.6489 24.4902 24.9789 24.4902H33.5389C33.8689 24.4902 34.1389 24.7602 34.1389 25.0902C34.1389 25.4202 33.8689 25.6902 33.5389 25.6902H24.9789C24.6489 25.6902 24.3789 25.4202 24.3789 25.0902Z" fill="black"/>
</g>
</g>
</g>
<path id="Path_174798_2" fill-rule="evenodd" clip-rule="evenodd" d="M33 6.75H3C1.76 6.75 0.75 7.76 0.75 9V27C0.75 28.24 1.76 29.25 3 29.25H33C34.24 29.25 35.25 28.24 35.25 27V9C35.25 7.76 34.24 6.75 33 6.75ZM3 6C1.34 6 0 7.34 0 9V27C0 28.66 1.34 30 3 30H33C34.66 30 36 28.66 36 27V9C36 7.34 34.66 6 33 6H3Z" fill="black"/>
</g>
</g>
</g>
<defs>
<clipPath id="clip0_2909_49110">
<rect width="36" height="36" fill="white"/>
</clipPath>
</defs>
</svg>
